  0
SECTION
  2
HEADER
  9
$ACADVER
  1
AC1009
  9
$INSBASE
 10
0.0
 20
0.0
 30
0.0
  9
$EXTMIN
 10
0.0
 20
0.0
 30
0.0
  9
$EXTMAX
 10
0.0
 20
0.0
 30
0.0
  0
ENDSEC
  0
SECTION
  2
TABLES
  0
TABLE
  2
VPORT
 70
0
  0
ENDTAB
  0
TABLE
  2
LTYPE
 70
1
  0
LTYPE
  2
CONTINUOUS
 70
0
  3
Solid line
 72
65
 73
0
 40
0.0
  0
ENDTAB
  0
TABLE
  2
LAYER
 70
1
  0
LAYER
  2
0
 70
64
 62
7
  6
continuous
  0
ENDTAB
  0
TABLE
  2
STYLE
 70
1
  0
STYLE
  2
STANDARD
 70
0
 40
0
 41
1.0
 50
0.0
 71
0
 42
1
 3
ARIAL.TTF
 4

  0
ENDTAB
  0
TABLE
  2
VIEW
 70
0
  0
ENDTAB
  0
ENDSEC
  0
SECTION
  2
BLOCKS
  0
ENDSEC
  0
SECTION
  2
ENTITIES
  0
ARC
  8
Group040
 62
0
 10
244.82500000000005
 20
-40.92500000000001
 30
0.0
 40
0.3
 50
-0.0
 51
90.0
  0
ARC
  8
Group040
 62
0
 10
244.82500000000005
 20
-54.325
 30
0.0
 40
0.3
 50
-90.0
 51
-0.0
  0
POLYLINE
  8
Group040
 62
0
 70
0
 66
1
 10
0.0
 20
0.0
 30
0.0
  0
VERTEX
  8
Group040
 10
245.125
 20
-40.925
 30
0.0
  0
VERTEX
  8
Group040
 10
245.125
 20
-54.324999999999996
 30
0.0
  0
SEQEND
  8
Group040
  0
ARC
  8
Group040
 62
0
 10
207.61249999999998
 20
-40.925000000000004
 30
0.0
 40
0.3
 50
90.0
 51
-180.0
  0
POLYLINE
  8
Group040
 62
0
 70
0
 66
1
 10
0.0
 20
0.0
 30
0.0
  0
VERTEX
  8
Group040
 10
207.31250000000003
 20
-40.925
 30
0.0
  0
VERTEX
  8
Group040
 10
207.31250000000003
 20
-54.325
 30
0.0
  0
SEQEND
  8
Group040
  0
ARC
  8
Group040
 62
0
 10
207.61249999999998
 20
-54.32499999999999
 30
0.0
 40
0.3
 50
-180.0
 51
-90.0
  0
POLYLINE
  8
Group040
 62
0
 70
0
 66
1
 10
0.0
 20
0.0
 30
0.0
  0
VERTEX
  8
Group040
 10
229.04375
 20
-40.625
 30
0.0
  0
VERTEX
  8
Group040
 10
244.825
 20
-40.625
 30
0.0
  0
SEQEND
  8
Group040
  0
POLYLINE
  8
Group040
 62
0
 70
0
 66
1
 10
0.0
 20
0.0
 30
0.0
  0
VERTEX
  8
Group040
 10
244.825
 20
-54.625
 30
0.0
  0
VERTEX
  8
Group040
 10
229.04375
 20
-54.625
 30
0.0
  0
SEQEND
  8
Group040
  0
ARC
  8
Group039
 62
0
 10
223.39374999999998
 20
-40.925000000000004
 30
0.0
 40
0.3
 50
-0.0
 51
90.0
  0
ARC
  8
Group039
 62
0
 10
223.39374999999998
 20
-54.32499999999999
 30
0.0
 40
0.3
 50
-90.0
 51
-0.0
  0
POLYLINE
  8
Group039
 62
0
 70
0
 66
1
 10
0.0
 20
0.0
 30
0.0
  0
VERTEX
  8
Group039
 10
223.69375
 20
-40.925
 30
0.0
  0
VERTEX
  8
Group039
 10
223.69375
 20
-54.324999999999996
 30
0.0
  0
SEQEND
  8
Group039
  0
POLYLINE
  8
Group039
 62
0
 70
0
 66
1
 10
0.0
 20
0.0
 30
0.0
  0
VERTEX
  8
Group039
 10
207.6125
 20
-40.625
 30
0.0
  0
VERTEX
  8
Group039
 10
223.39375
 20
-40.625
 30
0.0
  0
SEQEND
  8
Group039
  0
POLYLINE
  8
Group039
 62
0
 70
0
 66
1
 10
0.0
 20
0.0
 30
0.0
  0
VERTEX
  8
Group039
 10
223.39375
 20
-54.625
 30
0.0
  0
VERTEX
  8
Group039
 10
207.6125
 20
-54.625
 30
0.0
  0
SEQEND
  8
Group039
  0
ARC
  8
Group039
 62
0
 10
229.04375
 20
-40.925
 30
0.0
 40
0.3
 50
90.0
 51
-180.0
  0
POLYLINE
  8
Group039
 62
0
 70
0
 66
1
 10
0.0
 20
0.0
 30
0.0
  0
VERTEX
  8
Group039
 10
228.74374999999992
 20
-40.925
 30
0.0
  0
VERTEX
  8
Group039
 10
228.74374999999992
 20
-54.324999999999996
 30
0.0
  0
SEQEND
  8
Group039
  0
ARC
  8
Group039
 62
0
 10
229.04375
 20
-54.32499999999999
 30
0.0
 40
0.3
 50
-180.0
 51
-90.0
  0
ARC
  8
Group038
 62
0
 10
188.56250000000003
 20
-40.92499999999995
 30
0.0
 40
0.3
 50
90.0
 51
-180.0
  0
ARC
  8
Group038
 62
0
 10
201.96250000000003
 20
-40.924999999999955
 30
0.0
 40
0.3
 50
-0.0
 51
90.0
  0
ARC
  8
Group038
 62
0
 10
188.56250000000003
 20
-54.32499999999993
 30
0.0
 40
0.3
 50
-180.0
 51
-90.0
  0
ARC
  8
Group038
 62
0
 10
201.96250000000003
 20
-54.324999999999946
 30
0.0
 40
0.3
 50
-90.0
 51
-0.0
  0
POLYLINE
  8
Group038
 62
0
 70
0
 66
1
 10
0.0
 20
0.0
 30
0.0
  0
VERTEX
  8
Group038
 10
188.5625
 20
-40.624999999999936
 30
0.0
  0
VERTEX
  8
Group038
 10
201.96250000000003
 20
-40.624999999999936
 30
0.0
  0
SEQEND
  8
Group038
  0
POLYLINE
  8
Group038
 62
0
 70
0
 66
1
 10
0.0
 20
0.0
 30
0.0
  0
VERTEX
  8
Group038
 10
202.2625
 20
-40.92499999999994
 30
0.0
  0
VERTEX
  8
Group038
 10
202.2625
 20
-54.32499999999994
 30
0.0
  0
SEQEND
  8
Group038
  0
POLYLINE
  8
Group038
 62
0
 70
0
 66
1
 10
0.0
 20
0.0
 30
0.0
  0
VERTEX
  8
Group038
 10
201.96250000000003
 20
-54.624999999999936
 30
0.0
  0
VERTEX
  8
Group038
 10
188.5625
 20
-54.624999999999936
 30
0.0
  0
SEQEND
  8
Group038
  0
POLYLINE
  8
Group038
 62
0
 70
0
 66
1
 10
0.0
 20
0.0
 30
0.0
  0
VERTEX
  8
Group038
 10
188.26250000000005
 20
-40.92499999999994
 30
0.0
  0
VERTEX
  8
Group038
 10
188.26250000000005
 20
-54.32499999999994
 30
0.0
  0
SEQEND
  8
Group038
  0
ARC
  8
Group037
 62
0
 10
169.51250000000002
 20
-40.924999999999955
 30
0.0
 40
0.3
 50
90.0
 51
-180.0
  0
ARC
  8
Group037
 62
0
 10
182.91250000000002
 20
-40.92499999999996
 30
0.0
 40
0.3
 50
-0.0
 51
90.0
  0
ARC
  8
Group037
 62
0
 10
169.51250000000002
 20
-54.32499999999994
 30
0.0
 40
0.3
 50
-180.0
 51
-90.0
  0
ARC
  8
Group037
 62
0
 10
182.91250000000002
 20
-54.32499999999995
 30
0.0
 40
0.3
 50
-90.0
 51
-0.0
  0
POLYLINE
  8
Group037
 62
0
 70
0
 66
1
 10
0.0
 20
0.0
 30
0.0
  0
VERTEX
  8
Group037
 10
169.5125
 20
-40.62499999999994
 30
0.0
  0
VERTEX
  8
Group037
 10
182.91250000000002
 20
-40.62499999999994
 30
0.0
  0
SEQEND
  8
Group037
  0
POLYLINE
  8
Group037
 62
0
 70
0
 66
1
 10
0.0
 20
0.0
 30
0.0
  0
VERTEX
  8
Group037
 10
183.21249999999998
 20
-40.92499999999995
 30
0.0
  0
VERTEX
  8
Group037
 10
183.21249999999998
 20
-54.324999999999946
 30
0.0
  0
SEQEND
  8
Group037
  0
POLYLINE
  8
Group037
 62
0
 70
0
 66
1
 10
0.0
 20
0.0
 30
0.0
  0
VERTEX
  8
Group037
 10
182.91250000000002
 20
-54.62499999999994
 30
0.0
  0
VERTEX
  8
Group037
 10
169.5125
 20
-54.62499999999994
 30
0.0
  0
SEQEND
  8
Group037
  0
POLYLINE
  8
Group037
 62
0
 70
0
 66
1
 10
0.0
 20
0.0
 30
0.0
  0
VERTEX
  8
Group037
 10
169.21250000000003
 20
-40.92499999999995
 30
0.0
  0
VERTEX
  8
Group037
 10
169.21250000000003
 20
-54.324999999999946
 30
0.0
  0
SEQEND
  8
Group037
  0
ARC
  8
Group036
 62
0
 10
150.4625
 20
-40.92499999999996
 30
0.0
 40
0.3
 50
90.0
 51
-180.0
  0
ARC
  8
Group036
 62
0
 10
163.8625
 20
-40.92499999999997
 30
0.0
 40
0.3
 50
-0.0
 51
90.0
  0
ARC
  8
Group036
 62
0
 10
150.4625
 20
-54.324999999999946
 30
0.0
 40
0.3
 50
-180.0
 51
-90.0
  0
ARC
  8
Group036
 62
0
 10
163.8625
 20
-54.32499999999996
 30
0.0
 40
0.3
 50
-90.0
 51
-0.0
  0
POLYLINE
  8
Group036
 62
0
 70
0
 66
1
 10
0.0
 20
0.0
 30
0.0
  0
VERTEX
  8
Group036
 10
150.46249999999998
 20
-40.62499999999995
 30
0.0
  0
VERTEX
  8
Group036
 10
163.8625
 20
-40.62499999999995
 30
0.0
  0
SEQEND
  8
Group036
  0
POLYLINE
  8
Group036
 62
0
 70
0
 66
1
 10
0.0
 20
0.0
 30
0.0
  0
VERTEX
  8
Group036
 10
164.16249999999997
 20
-40.924999999999955
 30
0.0
  0
VERTEX
  8
Group036
 10
164.16249999999997
 20
-54.32499999999995
 30
0.0
  0
SEQEND
  8
Group036
  0
POLYLINE
  8
Group036
 62
0
 70
0
 66
1
 10
0.0
 20
0.0
 30
0.0
  0
VERTEX
  8
Group036
 10
163.8625
 20
-54.62499999999995
 30
0.0
  0
VERTEX
  8
Group036
 10
150.46249999999998
 20
-54.62499999999995
 30
0.0
  0
SEQEND
  8
Group036
  0
POLYLINE
  8
Group036
 62
0
 70
0
 66
1
 10
0.0
 20
0.0
 30
0.0
  0
VERTEX
  8
Group036
 10
150.16250000000002
 20
-40.924999999999955
 30
0.0
  0
VERTEX
  8
Group036
 10
150.16250000000002
 20
-54.32499999999995
 30
0.0
  0
SEQEND
  8
Group036
  0
ARC
  8
Group035
 62
0
 10
131.4125
 20
-40.92499999999997
 30
0.0
 40
0.3
 50
90.0
 51
-180.0
  0
ARC
  8
Group035
 62
0
 10
144.8125
 20
-40.924999999999976
 30
0.0
 40
0.3
 50
-0.0
 51
90.0
  0
ARC
  8
Group035
 62
0
 10
131.4125
 20
-54.32499999999995
 30
0.0
 40
0.3
 50
-180.0
 51
-90.0
  0
ARC
  8
Group035
 62
0
 10
144.8125
 20
-54.32499999999997
 30
0.0
 40
0.3
 50
-90.0
 51
-0.0
  0
POLYLINE
  8
Group035
 62
0
 70
0
 66
1
 10
0.0
 20
0.0
 30
0.0
  0
VERTEX
  8
Group035
 10
131.4125
 20
-40.62499999999996
 30
0.0
  0
VERTEX
  8
Group035
 10
144.8125
 20
-40.62499999999996
 30
0.0
  0
SEQEND
  8
Group035
  0
POLYLINE
  8
Group035
 62
0
 70
0
 66
1
 10
0.0
 20
0.0
 30
0.0
  0
VERTEX
  8
Group035
 10
145.11249999999998
 20
-40.92499999999996
 30
0.0
  0
VERTEX
  8
Group035
 10
145.11249999999998
 20
-54.32499999999996
 30
0.0
  0
SEQEND
  8
Group035
  0
POLYLINE
  8
Group035
 62
0
 70
0
 66
1
 10
0.0
 20
0.0
 30
0.0
  0
VERTEX
  8
Group035
 10
144.8125
 20
-54.62499999999996
 30
0.0
  0
VERTEX
  8
Group035
 10
131.4125
 20
-54.62499999999996
 30
0.0
  0
SEQEND
  8
Group035
  0
POLYLINE
  8
Group035
 62
0
 70
0
 66
1
 10
0.0
 20
0.0
 30
0.0
  0
VERTEX
  8
Group035
 10
131.1125
 20
-40.92499999999996
 30
0.0
  0
VERTEX
  8
Group035
 10
131.1125
 20
-54.32499999999996
 30
0.0
  0
SEQEND
  8
Group035
  0
ARC
  8
Group034
 62
0
 10
112.3625
 20
-40.924999999999976
 30
0.0
 40
0.3
 50
90.0
 51
-180.0
  0
ARC
  8
Group034
 62
0
 10
125.76249999999999
 20
-40.92499999999998
 30
0.0
 40
0.3
 50
-0.0
 51
90.0
  0
ARC
  8
Group034
 62
0
 10
112.36249999999998
 20
-54.32499999999996
 30
0.0
 40
0.3
 50
-180.0
 51
-90.0
  0
ARC
  8
Group034
 62
0
 10
125.76249999999999
 20
-54.324999999999974
 30
0.0
 40
0.3
 50
-90.0
 51
-0.0
  0
POLYLINE
  8
Group034
 62
0
 70
0
 66
1
 10
0.0
 20
0.0
 30
0.0
  0
VERTEX
  8
Group034
 10
112.3625
 20
-40.624999999999964
 30
0.0
  0
VERTEX
  8
Group034
 10
125.7625
 20
-40.624999999999964
 30
0.0
  0
SEQEND
  8
Group034
  0
POLYLINE
  8
Group034
 62
0
 70
0
 66
1
 10
0.0
 20
0.0
 30
0.0
  0
VERTEX
  8
Group034
 10
126.06249999999999
 20
-40.92499999999997
 30
0.0
  0
VERTEX
  8
Group034
 10
126.06249999999999
 20
-54.32499999999997
 30
0.0
  0
SEQEND
  8
Group034
  0
POLYLINE
  8
Group034
 62
0
 70
0
 66
1
 10
0.0
 20
0.0
 30
0.0
  0
VERTEX
  8
Group034
 10
125.7625
 20
-54.624999999999964
 30
0.0
  0
VERTEX
  8
Group034
 10
112.3625
 20
-54.624999999999964
 30
0.0
  0
SEQEND
  8
Group034
  0
POLYLINE
  8
Group034
 62
0
 70
0
 66
1
 10
0.0
 20
0.0
 30
0.0
  0
VERTEX
  8
Group034
 10
112.0625
 20
-40.92499999999997
 30
0.0
  0
VERTEX
  8
Group034
 10
112.0625
 20
-54.32499999999997
 30
0.0
  0
SEQEND
  8
Group034
  0
ARC
  8
Group033
 62
0
 10
93.3125
 20
-40.92499999999998
 30
0.0
 40
0.3
 50
90.0
 51
-180.0
  0
ARC
  8
Group033
 62
0
 10
106.71249999999999
 20
-40.92499999999999
 30
0.0
 40
0.3
 50
-0.0
 51
90.0
  0
ARC
  8
Group033
 62
0
 10
93.31249999999999
 20
-54.32499999999997
 30
0.0
 40
0.3
 50
-180.0
 51
-90.0
  0
ARC
  8
Group033
 62
0
 10
106.71249999999999
 20
-54.32499999999998
 30
0.0
 40
0.3
 50
-90.0
 51
-0.0
  0
POLYLINE
  8
Group033
 62
0
 70
0
 66
1
 10
0.0
 20
0.0
 30
0.0
  0
VERTEX
  8
Group033
 10
93.3125
 20
-40.62499999999997
 30
0.0
  0
VERTEX
  8
Group033
 10
106.7125
 20
-40.62499999999997
 30
0.0
  0
SEQEND
  8
Group033
  0
POLYLINE
  8
Group033
 62
0
 70
0
 66
1
 10
0.0
 20
0.0
 30
0.0
  0
VERTEX
  8
Group033
 10
107.01249999999999
 20
-40.924999999999976
 30
0.0
  0
VERTEX
  8
Group033
 10
107.01249999999999
 20
-54.324999999999974
 30
0.0
  0
SEQEND
  8
Group033
  0
POLYLINE
  8
Group033
 62
0
 70
0
 66
1
 10
0.0
 20
0.0
 30
0.0
  0
VERTEX
  8
Group033
 10
106.7125
 20
-54.62499999999997
 30
0.0
  0
VERTEX
  8
Group033
 10
93.3125
 20
-54.62499999999997
 30
0.0
  0
SEQEND
  8
Group033
  0
POLYLINE
  8
Group033
 62
0
 70
0
 66
1
 10
0.0
 20
0.0
 30
0.0
  0
VERTEX
  8
Group033
 10
93.0125
 20
-40.924999999999976
 30
0.0
  0
VERTEX
  8
Group033
 10
93.0125
 20
-54.324999999999974
 30
0.0
  0
SEQEND
  8
Group033
  0
ARC
  8
Group032
 62
0
 10
74.2625
 20
-40.92499999999999
 30
0.0
 40
0.3
 50
90.0
 51
-180.0
  0
ARC
  8
Group032
 62
0
 10
87.6625
 20
-40.925
 30
0.0
 40
0.3
 50
-0.0
 51
90.0
  0
ARC
  8
Group032
 62
0
 10
74.26249999999999
 20
-54.324999999999974
 30
0.0
 40
0.3
 50
-180.0
 51
-90.0
  0
ARC
  8
Group032
 62
0
 10
87.6625
 20
-54.32499999999999
 30
0.0
 40
0.3
 50
-90.0
 51
-0.0
  0
POLYLINE
  8
Group032
 62
0
 70
0
 66
1
 10
0.0
 20
0.0
 30
0.0
  0
VERTEX
  8
Group032
 10
74.2625
 20
-40.62499999999998
 30
0.0
  0
VERTEX
  8
Group032
 10
87.66250000000001
 20
-40.62499999999998
 30
0.0
  0
SEQEND
  8
Group032
  0
POLYLINE
  8
Group032
 62
0
 70
0
 66
1
 10
0.0
 20
0.0
 30
0.0
  0
VERTEX
  8
Group032
 10
87.96249999999999
 20
-40.92499999999998
 30
0.0
  0
VERTEX
  8
Group032
 10
87.96249999999999
 20
-54.32499999999998
 30
0.0
  0
SEQEND
  8
Group032
  0
POLYLINE
  8
Group032
 62
0
 70
0
 66
1
 10
0.0
 20
0.0
 30
0.0
  0
VERTEX
  8
Group032
 10
87.66250000000001
 20
-54.62499999999998
 30
0.0
  0
VERTEX
  8
Group032
 10
74.2625
 20
-54.62499999999998
 30
0.0
  0
SEQEND
  8
Group032
  0
POLYLINE
  8
Group032
 62
0
 70
0
 66
1
 10
0.0
 20
0.0
 30
0.0
  0
VERTEX
  8
Group032
 10
73.9625
 20
-40.92499999999998
 30
0.0
  0
VERTEX
  8
Group032
 10
73.9625
 20
-54.32499999999998
 30
0.0
  0
SEQEND
  8
Group032
  0
ARC
  8
Group031
 62
0
 10
55.212500000000006
 20
-40.925
 30
0.0
 40
0.3
 50
90.0
 51
-180.0
  0
ARC
  8
Group031
 62
0
 10
68.6125
 20
-40.925000000000004
 30
0.0
 40
0.3
 50
-0.0
 51
90.0
  0
ARC
  8
Group031
 62
0
 10
55.21249999999999
 20
-54.32499999999998
 30
0.0
 40
0.3
 50
-180.0
 51
-90.0
  0
ARC
  8
Group031
 62
0
 10
68.6125
 20
-54.324999999999996
 30
0.0
 40
0.3
 50
-90.0
 51
-0.0
  0
POLYLINE
  8
Group031
 62
0
 70
0
 66
1
 10
0.0
 20
0.0
 30
0.0
  0
VERTEX
  8
Group031
 10
55.212500000000006
 20
-40.624999999999986
 30
0.0
  0
VERTEX
  8
Group031
 10
68.61250000000001
 20
-40.624999999999986
 30
0.0
  0
SEQEND
  8
Group031
  0
POLYLINE
  8
Group031
 62
0
 70
0
 66
1
 10
0.0
 20
0.0
 30
0.0
  0
VERTEX
  8
Group031
 10
68.9125
 20
-40.92499999999999
 30
0.0
  0
VERTEX
  8
Group031
 10
68.9125
 20
-54.32499999999999
 30
0.0
  0
SEQEND
  8
Group031
  0
POLYLINE
  8
Group031
 62
0
 70
0
 66
1
 10
0.0
 20
0.0
 30
0.0
  0
VERTEX
  8
Group031
 10
68.61250000000001
 20
-54.624999999999986
 30
0.0
  0
VERTEX
  8
Group031
 10
55.212500000000006
 20
-54.624999999999986
 30
0.0
  0
SEQEND
  8
Group031
  0
POLYLINE
  8
Group031
 62
0
 70
0
 66
1
 10
0.0
 20
0.0
 30
0.0
  0
VERTEX
  8
Group031
 10
54.9125
 20
-40.92499999999999
 30
0.0
  0
VERTEX
  8
Group031
 10
54.9125
 20
-54.32499999999999
 30
0.0
  0
SEQEND
  8
Group031
  0
ARC
  8
Group030
 62
0
 10
36.1625
 20
-40.925000000000004
 30
0.0
 40
0.3
 50
90.0
 51
-180.0
  0
ARC
  8
Group030
 62
0
 10
49.5625
 20
-40.92500000000001
 30
0.0
 40
0.3
 50
-0.0
 51
90.0
  0
ARC
  8
Group030
 62
0
 10
36.162499999999994
 20
-54.32499999999999
 30
0.0
 40
0.3
 50
-180.0
 51
-90.0
  0
ARC
  8
Group030
 62
0
 10
49.56249999999999
 20
-54.325
 30
0.0
 40
0.3
 50
-90.0
 51
-0.0
  0
POLYLINE
  8
Group030
 62
0
 70
0
 66
1
 10
0.0
 20
0.0
 30
0.0
  0
VERTEX
  8
Group030
 10
36.1625
 20
-40.62499999999999
 30
0.0
  0
VERTEX
  8
Group030
 10
49.5625
 20
-40.62499999999999
 30
0.0
  0
SEQEND
  8
Group030
  0
POLYLINE
  8
Group030
 62
0
 70
0
 66
1
 10
0.0
 20
0.0
 30
0.0
  0
VERTEX
  8
Group030
 10
49.8625
 20
-40.925
 30
0.0
  0
VERTEX
  8
Group030
 10
49.8625
 20
-54.324999999999996
 30
0.0
  0
SEQEND
  8
Group030
  0
POLYLINE
  8
Group030
 62
0
 70
0
 66
1
 10
0.0
 20
0.0
 30
0.0
  0
VERTEX
  8
Group030
 10
49.5625
 20
-54.62499999999999
 30
0.0
  0
VERTEX
  8
Group030
 10
36.1625
 20
-54.62499999999999
 30
0.0
  0
SEQEND
  8
Group030
  0
POLYLINE
  8
Group030
 62
0
 70
0
 66
1
 10
0.0
 20
0.0
 30
0.0
  0
VERTEX
  8
Group030
 10
35.8625
 20
-40.925
 30
0.0
  0
VERTEX
  8
Group030
 10
35.8625
 20
-54.324999999999996
 30
0.0
  0
SEQEND
  8
Group030
  0
ARC
  8
Group029
 62
0
 10
23.368750000000034
 20
-40.92500000000001
 30
0.0
 40
0.3
 50
-0.0
 51
90.0
  0
ARC
  8
Group029
 62
0
 10
9.968750000000057
 20
-40.925
 30
0.0
 40
0.3
 50
90.0
 51
-180.0
  0
ARC
  8
Group029
 62
0
 10
9.968750000000057
 20
-54.32499999999999
 30
0.0
 40
0.3
 50
-180.0
 51
-90.0
  0
POLYLINE
  8
Group029
 62
0
 70
0
 66
1
 10
0.0
 20
0.0
 30
0.0
  0
VERTEX
  8
Group029
 10
23.66874999999999
 20
-40.925
 30
0.0
  0
VERTEX
  8
Group029
 10
23.66874999999999
 20
-54.324999999999996
 30
0.0
  0
SEQEND
  8
Group029
  0
POLYLINE
  8
Group029
 62
0
 70
0
 66
1
 10
0.0
 20
0.0
 30
0.0
  0
VERTEX
  8
Group029
 10
23.368750000000034
 20
-54.62499999999999
 30
0.0
  0
VERTEX
  8
Group029
 10
9.968750000000057
 20
-54.62499999999999
 30
0.0
  0
SEQEND
  8
Group029
  0
POLYLINE
  8
Group029
 62
0
 70
0
 66
1
 10
0.0
 20
0.0
 30
0.0
  0
VERTEX
  8
Group029
 10
9.968750000000057
 20
-40.62499999999999
 30
0.0
  0
VERTEX
  8
Group029
 10
23.368750000000034
 20
-40.62499999999999
 30
0.0
  0
SEQEND
  8
Group029
  0
POLYLINE
  8
Group029
 62
0
 70
0
 66
1
 10
0.0
 20
0.0
 30
0.0
  0
VERTEX
  8
Group029
 10
9.668749999999989
 20
-40.925
 30
0.0
  0
VERTEX
  8
Group029
 10
9.668749999999989
 20
-54.324999999999996
 30
0.0
  0
SEQEND
  8
Group029
  0
ARC
  8
Group029
 62
0
 10
23.368750000000034
 20
-54.325
 30
0.0
 40
0.3
 50
-90.0
 51
-0.0
  0
ARC
  8
Group042
 62
0
 10
5.206250000000001
 20
-59.975
 30
0.0
 40
0.3
 50
90.0
 51
-180.0
  0
ARC
  8
Group042
 62
0
 10
18.60625
 20
-59.97500000000001
 30
0.0
 40
0.3
 50
-0.0
 51
90.0
  0
ARC
  8
Group042
 62
0
 10
5.206249999999997
 20
-73.375
 30
0.0
 40
0.3
 50
-180.0
 51
-90.0
  0
ARC
  8
Group042
 62
0
 10
18.606249999999992
 20
-73.375
 30
0.0
 40
0.3
 50
-90.0
 51
-0.0
  0
POLYLINE
  8
Group042
 62
0
 70
0
 66
1
 10
0.0
 20
0.0
 30
0.0
  0
VERTEX
  8
Group042
 10
5.206250000000004
 20
-59.675000000000004
 30
0.0
  0
VERTEX
  8
Group042
 10
18.606250000000003
 20
-59.675000000000004
 30
0.0
  0
SEQEND
  8
Group042
  0
POLYLINE
  8
Group042
 62
0
 70
0
 66
1
 10
0.0
 20
0.0
 30
0.0
  0
VERTEX
  8
Group042
 10
18.90625
 20
-59.97500000000001
 30
0.0
  0
VERTEX
  8
Group042
 10
18.90625
 20
-73.375
 30
0.0
  0
SEQEND
  8
Group042
  0
POLYLINE
  8
Group042
 62
0
 70
0
 66
1
 10
0.0
 20
0.0
 30
0.0
  0
VERTEX
  8
Group042
 10
18.606250000000003
 20
-73.67500000000001
 30
0.0
  0
VERTEX
  8
Group042
 10
5.206250000000004
 20
-73.67500000000001
 30
0.0
  0
SEQEND
  8
Group042
  0
POLYLINE
  8
Group042
 62
0
 70
0
 66
1
 10
0.0
 20
0.0
 30
0.0
  0
VERTEX
  8
Group042
 10
4.90625
 20
-59.97500000000001
 30
0.0
  0
VERTEX
  8
Group042
 10
4.90625
 20
-73.375
 30
0.0
  0
SEQEND
  8
Group042
  0
ARC
  8
Group043
 62
0
 10
26.637500000000003
 20
-59.975
 30
0.0
 40
0.3
 50
90.0
 51
-180.0
  0
ARC
  8
Group043
 62
0
 10
40.0375
 20
-59.975
 30
0.0
 40
0.3
 50
-0.0
 51
90.0
  0
ARC
  8
Group043
 62
0
 10
26.637499999999996
 20
-73.375
 30
0.0
 40
0.3
 50
-180.0
 51
-90.0
  0
ARC
  8
Group043
 62
0
 10
40.037499999999994
 20
-73.375
 30
0.0
 40
0.3
 50
-90.0
 51
-0.0
  0
POLYLINE
  8
Group043
 62
0
 70
0
 66
1
 10
0.0
 20
0.0
 30
0.0
  0
VERTEX
  8
Group043
 10
26.6375
 20
-59.675000000000004
 30
0.0
  0
VERTEX
  8
Group043
 10
40.0375
 20
-59.675000000000004
 30
0.0
  0
SEQEND
  8
Group043
  0
POLYLINE
  8
Group043
 62
0
 70
0
 66
1
 10
0.0
 20
0.0
 30
0.0
  0
VERTEX
  8
Group043
 10
40.3375
 20
-59.97500000000001
 30
0.0
  0
VERTEX
  8
Group043
 10
40.3375
 20
-73.375
 30
0.0
  0
SEQEND
  8
Group043
  0
POLYLINE
  8
Group043
 62
0
 70
0
 66
1
 10
0.0
 20
0.0
 30
0.0
  0
VERTEX
  8
Group043
 10
40.0375
 20
-73.67500000000001
 30
0.0
  0
VERTEX
  8
Group043
 10
26.6375
 20
-73.67500000000001
 30
0.0
  0
SEQEND
  8
Group043
  0
POLYLINE
  8
Group043
 62
0
 70
0
 66
1
 10
0.0
 20
0.0
 30
0.0
  0
VERTEX
  8
Group043
 10
26.3375
 20
-59.97500000000001
 30
0.0
  0
VERTEX
  8
Group043
 10
26.3375
 20
-73.375
 30
0.0
  0
SEQEND
  8
Group043
  0
ARC
  8
Group044
 62
0
 10
45.6875
 20
-59.97500000000001
 30
0.0
 40
0.3
 50
90.0
 51
-180.0
  0
ARC
  8
Group044
 62
0
 10
59.087500000000006
 20
-59.97500000000001
 30
0.0
 40
0.3
 50
-0.0
 51
90.0
  0
ARC
  8
Group044
 62
0
 10
45.6875
 20
-73.375
 30
0.0
 40
0.3
 50
-180.0
 51
-90.0
  0
ARC
  8
Group044
 62
0
 10
59.08749999999999
 20
-73.375
 30
0.0
 40
0.3
 50
-90.0
 51
-0.0
  0
POLYLINE
  8
Group044
 62
0
 70
0
 66
1
 10
0.0
 20
0.0
 30
0.0
  0
VERTEX
  8
Group044
 10
45.6875
 20
-59.675000000000004
 30
0.0
  0
VERTEX
  8
Group044
 10
59.087500000000006
 20
-59.675000000000004
 30
0.0
  0
SEQEND
  8
Group044
  0
POLYLINE
  8
Group044
 62
0
 70
0
 66
1
 10
0.0
 20
0.0
 30
0.0
  0
VERTEX
  8
Group044
 10
59.3875
 20
-59.97500000000001
 30
0.0
  0
VERTEX
  8
Group044
 10
59.3875
 20
-73.375
 30
0.0
  0
SEQEND
  8
Group044
  0
POLYLINE
  8
Group044
 62
0
 70
0
 66
1
 10
0.0
 20
0.0
 30
0.0
  0
VERTEX
  8
Group044
 10
59.087500000000006
 20
-73.67500000000001
 30
0.0
  0
VERTEX
  8
Group044
 10
45.6875
 20
-73.67500000000001
 30
0.0
  0
SEQEND
  8
Group044
  0
POLYLINE
  8
Group044
 62
0
 70
0
 66
1
 10
0.0
 20
0.0
 30
0.0
  0
VERTEX
  8
Group044
 10
45.3875
 20
-59.97500000000001
 30
0.0
  0
VERTEX
  8
Group044
 10
45.3875
 20
-73.375
 30
0.0
  0
SEQEND
  8
Group044
  0
ARC
  8
Group045
 62
0
 10
64.7375
 20
-59.97500000000001
 30
0.0
 40
0.3
 50
90.0
 51
-180.0
  0
ARC
  8
Group045
 62
0
 10
78.1375
 20
-59.97500000000001
 30
0.0
 40
0.3
 50
-0.0
 51
90.0
  0
ARC
  8
Group045
 62
0
 10
64.7375
 20
-73.375
 30
0.0
 40
0.3
 50
-180.0
 51
-90.0
  0
ARC
  8
Group045
 62
0
 10
78.13749999999999
 20
-73.375
 30
0.0
 40
0.3
 50
-90.0
 51
-0.0
  0
POLYLINE
  8
Group045
 62
0
 70
0
 66
1
 10
0.0
 20
0.0
 30
0.0
  0
VERTEX
  8
Group045
 10
64.7375
 20
-59.675000000000004
 30
0.0
  0
VERTEX
  8
Group045
 10
78.13750000000002
 20
-59.675000000000004
 30
0.0
  0
SEQEND
  8
Group045
  0
POLYLINE
  8
Group045
 62
0
 70
0
 66
1
 10
0.0
 20
0.0
 30
0.0
  0
VERTEX
  8
Group045
 10
78.13750000000002
 20
-73.67500000000001
 30
0.0
  0
VERTEX
  8
Group045
 10
64.7375
 20
-73.67500000000001
 30
0.0
  0
SEQEND
  8
Group045
  0
POLYLINE
  8
Group045
 62
0
 70
0
 66
1
 10
0.0
 20
0.0
 30
0.0
  0
VERTEX
  8
Group045
 10
64.4375
 20
-59.97500000000001
 30
0.0
  0
VERTEX
  8
Group045
 10
64.4375
 20
-73.375
 30
0.0
  0
SEQEND
  8
Group045
  0
POLYLINE
  8
Group045
 62
0
 70
0
 66
1
 10
0.0
 20
0.0
 30
0.0
  0
VERTEX
  8
Group045
 10
78.4375
 20
-63.875
 30
0.0
  0
VERTEX
  8
Group045
 10
78.4375
 20
-59.975
 30
0.0
  0
SEQEND
  8
Group045
  0
ARC
  8
Group045
 62
0
 10
78.9375
 20
-63.875
 30
0.0
 40
0.5
 50
-180.0
 51
-90.0
  0
POLYLINE
  8
Group045
 62
0
 70
0
 66
1
 10
0.0
 20
0.0
 30
0.0
  0
VERTEX
  8
Group045
 10
78.9375
 20
-64.375
 30
0.0
  0
VERTEX
  8
Group045
 10
90.13125
 20
-64.375
 30
0.0
  0
SEQEND
  8
Group045
  0
ARC
  8
Group045
 62
0
 10
90.13125
 20
-63.875
 30
0.0
 40
0.5
 50
-90.0
 51
-0.0
  0
POLYLINE
  8
Group045
 62
0
 70
0
 66
1
 10
0.0
 20
0.0
 30
0.0
  0
VERTEX
  8
Group045
 10
90.63125
 20
-63.875
 30
0.0
  0
VERTEX
  8
Group045
 10
90.63125
 20
-59.975
 30
0.0
  0
SEQEND
  8
Group045
  0
POLYLINE
  8
Group045
 62
0
 70
0
 66
1
 10
0.0
 20
0.0
 30
0.0
  0
VERTEX
  8
Group045
 10
90.63125
 20
-69.4750000003
 30
0.0
  0
VERTEX
  8
Group045
 10
90.63125
 20
-73.375
 30
0.0
  0
SEQEND
  8
Group045
  0
ARC
  8
Group045
 62
0
 10
90.13124999999998
 20
-69.4750000003
 30
0.0
 40
0.5
 50
-0.0
 51
90.0
  0
POLYLINE
  8
Group045
 62
0
 70
0
 66
1
 10
0.0
 20
0.0
 30
0.0
  0
VERTEX
  8
Group045
 10
78.9375
 20
-68.9750000003
 30
0.0
  0
VERTEX
  8
Group045
 10
90.13125
 20
-68.9750000003
 30
0.0
  0
SEQEND
  8
Group045
  0
ARC
  8
Group045
 62
0
 10
78.93749999999999
 20
-69.47500000029999
 30
0.0
 40
0.5
 50
90.0
 51
-180.0
  0
POLYLINE
  8
Group045
 62
0
 70
0
 66
1
 10
0.0
 20
0.0
 30
0.0
  0
VERTEX
  8
Group045
 10
78.4375
 20
-69.4750000003
 30
0.0
  0
VERTEX
  8
Group045
 10
78.4375
 20
-73.375
 30
0.0
  0
SEQEND
  8
Group045
  0
ARC
  8
Group046
 62
0
 10
104.33125000000004
 20
-59.97500000000001
 30
0.0
 40
0.3
 50
-0.0
 51
90.0
  0
ARC
  8
Group046
 62
0
 10
90.93125000000006
 20
-59.974999999999994
 30
0.0
 40
0.3
 50
90.0
 51
-180.0
  0
ARC
  8
Group046
 62
0
 10
90.93125000000006
 20
-73.37499999999999
 30
0.0
 40
0.3
 50
-180.0
 51
-90.0
  0
POLYLINE
  8
Group046
 62
0
 70
0
 66
1
 10
0.0
 20
0.0
 30
0.0
  0
VERTEX
  8
Group046
 10
104.63125
 20
-59.974999999999994
 30
0.0
  0
VERTEX
  8
Group046
 10
104.63125
 20
-73.375
 30
0.0
  0
SEQEND
  8
Group046
  0
POLYLINE
  8
Group046
 62
0
 70
0
 66
1
 10
0.0
 20
0.0
 30
0.0
  0
VERTEX
  8
Group046
 10
104.33125000000004
 20
-73.67499999999998
 30
0.0
  0
VERTEX
  8
Group046
 10
90.93125000000006
 20
-73.67499999999998
 30
0.0
  0
SEQEND
  8
Group046
  0
POLYLINE
  8
Group046
 62
0
 70
0
 66
1
 10
0.0
 20
0.0
 30
0.0
  0
VERTEX
  8
Group046
 10
90.93125000000006
 20
-59.67499999999999
 30
0.0
  0
VERTEX
  8
Group046
 10
104.33125000000004
 20
-59.67499999999999
 30
0.0
  0
SEQEND
  8
Group046
  0
ARC
  8
Group046
 62
0
 10
104.33125000000004
 20
-73.375
 30
0.0
 40
0.3
 50
-90.0
 51
-0.0
  0
POLYLINE
  8
Group046
 62
0
 70
0
 66
1
 10
0.0
 20
0.0
 30
0.0
  0
VERTEX
  8
Group046
 10
104.63125
 20
-59.975
 30
0.0
  0
VERTEX
  8
Group046
 10
104.63125
 20
-73.375
 30
0.0
  0
SEQEND
  8
Group046
  0
ARC
  8
Group050
 62
0
 10
147.1937500000049
 20
-59.97500000023
 30
0.0
 40
0.3
 50
-0.0
 51
90.0
  0
ARC
  8
Group050
 62
0
 10
147.1937500000049
 20
-73.37500000023002
 30
0.0
 40
0.3
 50
-90.0
 51
-0.0
  0
ARC
  8
Group050
 62
0
 10
133.79375000000493
 20
-73.37500000023
 30
0.0
 40
0.3
 50
-180.0
 51
-90.0
  0
ARC
  8
Group050
 62
0
 10
133.79375000003495
 20
-59.975000000181
 30
0.0
 40
0.3
 50
90.0
 51
-180.0
  0
POLYLINE
  8
Group050
 62
0
 70
0
 66
1
 10
0.0
 20
0.0
 30
0.0
  0
VERTEX
  8
Group050
 10
147.19375000000494
 20
-73.67500000023001
 30
0.0
  0
VERTEX
  8
Group050
 10
133.79375000003498
 20
-73.67500000023001
 30
0.0
  0
SEQEND
  8
Group050
  0
POLYLINE
  8
Group050
 62
0
 70
0
 66
1
 10
0.0
 20
0.0
 30
0.0
  0
VERTEX
  8
Group050
 10
133.79375000003498
 20
-59.67500000018102
 30
0.0
  0
VERTEX
  8
Group050
 10
147.19375000000494
 20
-59.675000000181015
 30
0.0
  0
SEQEND
  8
Group050
  0
POLYLINE
  8
Group049
 62
0
 70
0
 66
1
 10
0.0
 20
0.0
 30
0.0
  0
VERTEX
  8
Group049
 10
155.75675000004003
 20
-72.20500000023202
 30
0.0
  0
VERTEX
  8
Group049
 10
149.10675000004
 20
-72.20500000023202
 30
0.0
  0
SEQEND
  8
Group049
  0
POLYLINE
  8
Group049
 62
0
 70
0
 66
1
 10
0.0
 20
0.0
 30
0.0
  0
VERTEX
  8
Group049
 10
153.93175000003998
 20
-58.705000000232005
 30
0.0
  0
VERTEX
  8
Group049
 10
150.93175000003998
 20
-58.705000000232005
 30
0.0
  0
SEQEND
  8
Group049
  0
POLYLINE
  8
Group049
 62
0
 70
0
 66
1
 10
0.0
 20
0.0
 30
0.0
  0
VERTEX
  8
Group049
 10
149.10675000004
 20
-59.90500000023201
 30
0.0
  0
VERTEX
  8
Group049
 10
150.93175000004004
 20
-59.90500000023201
 30
0.0
  0
SEQEND
  8
Group049
  0
POLYLINE
  8
Group049
 62
0
 70
0
 66
1
 10
0.0
 20
0.0
 30
0.0
  0
VERTEX
  8
Group049
 10
150.93175000004004
 20
-58.705000000232005
 30
0.0
  0
VERTEX
  8
Group049
 10
150.93175000004004
 20
-59.90500000023201
 30
0.0
  0
SEQEND
  8
Group049
  0
POLYLINE
  8
Group049
 62
0
 70
0
 66
1
 10
0.0
 20
0.0
 30
0.0
  0
VERTEX
  8
Group049
 10
153.93175000004004
 20
-58.705000000232005
 30
0.0
  0
VERTEX
  8
Group049
 10
153.93175000004004
 20
-59.90500000023201
 30
0.0
  0
SEQEND
  8
Group049
  0
POLYLINE
  8
Group049
 62
0
 70
0
 66
1
 10
0.0
 20
0.0
 30
0.0
  0
VERTEX
  8
Group049
 10
153.93175000004004
 20
-59.90500000023201
 30
0.0
  0
VERTEX
  8
Group049
 10
155.75675000004003
 20
-59.90500000023201
 30
0.0
  0
SEQEND
  8
Group049
  0
POLYLINE
  8
Group049
 62
0
 70
0
 66
1
 10
0.0
 20
0.0
 30
0.0
  0
VERTEX
  8
Group049
 10
156.63175000003991
 20
-68.97500000023203
 30
0.0
  0
VERTEX
  8
Group049
 10
156.63175000003991
 20
-66.17500000023202
 30
0.0
  0
SEQEND
  8
Group049
  0
POLYLINE
  8
Group049
 62
0
 70
0
 66
1
 10
0.0
 20
0.0
 30
0.0
  0
VERTEX
  8
Group049
 10
156.63175000004003
 20
-68.975000000232
 30
0.0
  0
VERTEX
  8
Group049
 10
155.75675000004003
 20
-68.975000000232
 30
0.0
  0
SEQEND
  8
Group049
  0
POLYLINE
  8
Group049
 62
0
 70
0
 66
1
 10
0.0
 20
0.0
 30
0.0
  0
VERTEX
  8
Group049
 10
155.75675000004003
 20
-68.975000000232
 30
0.0
  0
VERTEX
  8
Group049
 10
155.75675000004003
 20
-72.205000000232
 30
0.0
  0
SEQEND
  8
Group049
  0
POLYLINE
  8
Group049
 62
0
 70
0
 66
1
 10
0.0
 20
0.0
 30
0.0
  0
VERTEX
  8
Group049
 10
156.63175000004003
 20
-66.175000000232
 30
0.0
  0
VERTEX
  8
Group049
 10
155.75675000004003
 20
-66.175000000232
 30
0.0
  0
SEQEND
  8
Group049
  0
POLYLINE
  8
Group049
 62
0
 70
0
 66
1
 10
0.0
 20
0.0
 30
0.0
  0
VERTEX
  8
Group049
 10
155.75675000004003
 20
-59.90500000023199
 30
0.0
  0
VERTEX
  8
Group049
 10
155.75675000004003
 20
-66.175000000232
 30
0.0
  0
SEQEND
  8
Group049
  0
POLYLINE
  8
Group049
 62
0
 70
0
 66
1
 10
0.0
 20
0.0
 30
0.0
  0
VERTEX
  8
Group049
 10
149.10675000013995
 20
-72.20500000023
 30
0.0
  0
VERTEX
  8
Group049
 10
149.10675000013995
 20
-71.40500000023
 30
0.0
  0
SEQEND
  8
Group049
  0
POLYLINE
  8
Group049
 62
0
 70
0
 66
1
 10
0.0
 20
0.0
 30
0.0
  0
VERTEX
  8
Group049
 10
149.10675000013995
 20
-59.90500000026
 30
0.0
  0
VERTEX
  8
Group049
 10
149.10675000013995
 20
-60.705000000259986
 30
0.0
  0
SEQEND
  8
Group049
  0
POLYLINE
  8
Group049
 62
0
 70
0
 66
1
 10
0.0
 20
0.0
 30
0.0
  0
VERTEX
  8
Group049
 10
147.4937500000049
 20
-60.70500000022996
 30
0.0
  0
VERTEX
  8
Group049
 10
147.4937500000049
 20
-59.97500000022997
 30
0.0
  0
SEQEND
  8
Group049
  0
POLYLINE
  8
Group049
 62
0
 70
0
 66
1
 10
0.0
 20
0.0
 30
0.0
  0
VERTEX
  8
Group049
 10
147.4937500000049
 20
-71.40500000019999
 30
0.0
  0
VERTEX
  8
Group049
 10
147.4937500000049
 20
-73.37500000019999
 30
0.0
  0
SEQEND
  8
Group049
  0
POLYLINE
  8
Group049
 62
0
 70
0
 66
1
 10
0.0
 20
0.0
 30
0.0
  0
VERTEX
  8
Group049
 10
149.10675000013998
 20
-60.70500000026004
 30
0.0
  0
VERTEX
  8
Group049
 10
147.49374999999998
 20
-60.70500000026004
 30
0.0
  0
SEQEND
  8
Group049
  0
POLYLINE
  8
Group049
 62
0
 70
0
 66
1
 10
0.0
 20
0.0
 30
0.0
  0
VERTEX
  8
Group049
 10
149.10675000013998
 20
-71.40500000026005
 30
0.0
  0
VERTEX
  8
Group049
 10
147.49374999999998
 20
-71.40500000016004
 30
0.0
  0
SEQEND
  8
Group049
  0
POLYLINE
  8
Group048
 62
0
 70
0
 66
1
 10
0.0
 20
0.0
 30
0.0
  0
VERTEX
  8
Group048
 10
131.88074999999003
 20
-72.20500000026001
 30
0.0
  0
VERTEX
  8
Group048
 10
125.23074999999
 20
-72.20500000026001
 30
0.0
  0
SEQEND
  8
Group048
  0
POLYLINE
  8
Group048
 62
0
 70
0
 66
1
 10
0.0
 20
0.0
 30
0.0
  0
VERTEX
  8
Group048
 10
130.05574999999004
 20
-58.70500000026
 30
0.0
  0
VERTEX
  8
Group048
 10
127.05574999999004
 20
-58.70500000026
 30
0.0
  0
SEQEND
  8
Group048
  0
POLYLINE
  8
Group048
 62
0
 70
0
 66
1
 10
0.0
 20
0.0
 30
0.0
  0
VERTEX
  8
Group048
 10
125.23074999999
 20
-59.90500000026
 30
0.0
  0
VERTEX
  8
Group048
 10
127.05574999999004
 20
-59.90500000026001
 30
0.0
  0
SEQEND
  8
Group048
  0
POLYLINE
  8
Group048
 62
0
 70
0
 66
1
 10
0.0
 20
0.0
 30
0.0
  0
VERTEX
  8
Group048
 10
127.05574999999004
 20
-58.70500000026001
 30
0.0
  0
VERTEX
  8
Group048
 10
127.05574999999004
 20
-59.90500000026001
 30
0.0
  0
SEQEND
  8
Group048
  0
POLYLINE
  8
Group048
 62
0
 70
0
 66
1
 10
0.0
 20
0.0
 30
0.0
  0
VERTEX
  8
Group048
 10
130.05574999999004
 20
-58.70500000026001
 30
0.0
  0
VERTEX
  8
Group048
 10
130.05574999999004
 20
-59.90500000026001
 30
0.0
  0
SEQEND
  8
Group048
  0
POLYLINE
  8
Group048
 62
0
 70
0
 66
1
 10
0.0
 20
0.0
 30
0.0
  0
VERTEX
  8
Group048
 10
130.05574999999004
 20
-59.90500000026001
 30
0.0
  0
VERTEX
  8
Group048
 10
131.88074999999003
 20
-59.90500000026001
 30
0.0
  0
SEQEND
  8
Group048
  0
POLYLINE
  8
Group048
 62
0
 70
0
 66
1
 10
0.0
 20
0.0
 30
0.0
  0
VERTEX
  8
Group048
 10
131.88074999999003
 20
-72.20500000023
 30
0.0
  0
VERTEX
  8
Group048
 10
131.88074999999003
 20
-71.40500000023
 30
0.0
  0
SEQEND
  8
Group048
  0
POLYLINE
  8
Group048
 62
0
 70
0
 66
1
 10
0.0
 20
0.0
 30
0.0
  0
VERTEX
  8
Group048
 10
131.88074999999003
 20
-59.90500000026001
 30
0.0
  0
VERTEX
  8
Group048
 10
131.88074999999003
 20
-60.70500000025999
 30
0.0
  0
SEQEND
  8
Group048
  0
POLYLINE
  8
Group048
 62
0
 70
0
 66
1
 10
0.0
 20
0.0
 30
0.0
  0
VERTEX
  8
Group048
 10
133.49375000002
 20
-60.70500000026004
 30
0.0
  0
VERTEX
  8
Group048
 10
131.88075000002
 20
-60.70500000026004
 30
0.0
  0
SEQEND
  8
Group048
  0
POLYLINE
  8
Group048
 62
0
 70
0
 66
1
 10
0.0
 20
0.0
 30
0.0
  0
VERTEX
  8
Group048
 10
133.49375000002
 20
-71.40500000026005
 30
0.0
  0
VERTEX
  8
Group048
 10
131.88075000002
 20
-71.40500000026005
 30
0.0
  0
SEQEND
  8
Group048
  0
POLYLINE
  8
Group048
 62
0
 70
0
 66
1
 10
0.0
 20
0.0
 30
0.0
  0
VERTEX
  8
Group048
 10
133.49375000002
 20
-59.97500000016004
 30
0.0
  0
VERTEX
  8
Group048
 10
133.49375000002
 20
-60.70500000026004
 30
0.0
  0
SEQEND
  8
Group048
  0
POLYLINE
  8
Group048
 62
0
 70
0
 66
1
 10
0.0
 20
0.0
 30
0.0
  0
VERTEX
  8
Group048
 10
133.49375000002
 20
-73.37500000026004
 30
0.0
  0
VERTEX
  8
Group048
 10
133.49375000002
 20
-71.40500000026005
 30
0.0
  0
SEQEND
  8
Group048
  0
POLYLINE
  8
Group050
 62
0
 70
0
 66
1
 10
0.0
 20
0.0
 30
0.0
  0
VERTEX
  8
Group050
 10
125.23075
 20
-64.375
 30
0.0
  0
VERTEX
  8
Group050
 10
125.23075
 20
-59.9050000003
 30
0.0
  0
SEQEND
  8
Group050
  0
POLYLINE
  8
Group050
 62
0
 70
0
 66
1
 10
0.0
 20
0.0
 30
0.0
  0
VERTEX
  8
Group050
 10
125.23075
 20
-68.9750000003
 30
0.0
  0
VERTEX
  8
Group050
 10
125.23075
 20
-72.2050000003
 30
0.0
  0
SEQEND
  8
Group050
  0
ARC
  8
Group050
 62
0
 10
117.73075
 20
-64.875
 30
0.0
 40
0.5
 50
90.0
 51
-180.0
  0
ARC
  8
Group050
 62
0
 10
117.73075
 20
-68.47500000000001
 30
0.0
 40
0.5
 50
-180.0
 51
-90.0
  0
POLYLINE
  8
Group050
 62
0
 70
0
 66
1
 10
0.0
 20
0.0
 30
0.0
  0
VERTEX
  8
Group050
 10
117.73075
 20
-64.375
 30
0.0
  0
VERTEX
  8
Group050
 10
125.23075
 20
-64.375
 30
0.0
  0
SEQEND
  8
Group050
  0
POLYLINE
  8
Group050
 62
0
 70
0
 66
1
 10
0.0
 20
0.0
 30
0.0
  0
VERTEX
  8
Group050
 10
117.23075
 20
-64.875
 30
0.0
  0
VERTEX
  8
Group050
 10
117.23075
 20
-68.475
 30
0.0
  0
SEQEND
  8
Group050
  0
POLYLINE
  8
Group050
 62
0
 70
0
 66
1
 10
0.0
 20
0.0
 30
0.0
  0
VERTEX
  8
Group050
 10
117.73075
 20
-68.975
 30
0.0
  0
VERTEX
  8
Group050
 10
125.23075
 20
-68.9750000003
 30
0.0
  0
SEQEND
  8
Group050
  0
ARC
  8
Group051
 62
0
 10
169.5125
 20
-59.975
 30
0.0
 40
0.3
 50
90.0
 51
-180.0
  0
ARC
  8
Group051
 62
0
 10
182.9125
 20
-59.975
 30
0.0
 40
0.3
 50
-0.0
 51
90.0
  0
ARC
  8
Group051
 62
0
 10
169.5125
 20
-73.375
 30
0.0
 40
0.3
 50
-180.0
 51
-90.0
  0
ARC
  8
Group051
 62
0
 10
182.9125
 20
-73.375
 30
0.0
 40
0.3
 50
-90.0
 51
-0.0
  0
POLYLINE
  8
Group051
 62
0
 70
0
 66
1
 10
0.0
 20
0.0
 30
0.0
  0
VERTEX
  8
Group051
 10
169.5125
 20
-59.675000000000004
 30
0.0
  0
VERTEX
  8
Group051
 10
182.9125
 20
-59.675000000000004
 30
0.0
  0
SEQEND
  8
Group051
  0
POLYLINE
  8
Group051
 62
0
 70
0
 66
1
 10
0.0
 20
0.0
 30
0.0
  0
VERTEX
  8
Group051
 10
183.2125
 20
-59.97500000000001
 30
0.0
  0
VERTEX
  8
Group051
 10
183.2125
 20
-73.375
 30
0.0
  0
SEQEND
  8
Group051
  0
POLYLINE
  8
Group051
 62
0
 70
0
 66
1
 10
0.0
 20
0.0
 30
0.0
  0
VERTEX
  8
Group051
 10
182.9125
 20
-73.67500000000001
 30
0.0
  0
VERTEX
  8
Group051
 10
169.5125
 20
-73.67500000000001
 30
0.0
  0
SEQEND
  8
Group051
  0
POLYLINE
  8
Group051
 62
0
 70
0
 66
1
 10
0.0
 20
0.0
 30
0.0
  0
VERTEX
  8
Group051
 10
169.2125
 20
-59.97500000000001
 30
0.0
  0
VERTEX
  8
Group051
 10
169.2125
 20
-73.375
 30
0.0
  0
SEQEND
  8
Group051
  0
ARC
  8
Group052
 62
0
 10
188.56249999999997
 20
-59.975
 30
0.0
 40
0.3
 50
90.0
 51
-180.0
  0
ARC
  8
Group052
 62
0
 10
201.96249999999998
 20
-59.975
 30
0.0
 40
0.3
 50
-0.0
 51
90.0
  0
ARC
  8
Group052
 62
0
 10
188.56249999999997
 20
-73.375
 30
0.0
 40
0.3
 50
-180.0
 51
-90.0
  0
ARC
  8
Group052
 62
0
 10
201.96249999999998
 20
-73.375
 30
0.0
 40
0.3
 50
-90.0
 51
-0.0
  0
POLYLINE
  8
Group052
 62
0
 70
0
 66
1
 10
0.0
 20
0.0
 30
0.0
  0
VERTEX
  8
Group052
 10
188.56249999999997
 20
-59.675000000000004
 30
0.0
  0
VERTEX
  8
Group052
 10
201.96249999999998
 20
-59.675000000000004
 30
0.0
  0
SEQEND
  8
Group052
  0
POLYLINE
  8
Group052
 62
0
 70
0
 66
1
 10
0.0
 20
0.0
 30
0.0
  0
VERTEX
  8
Group052
 10
202.2625
 20
-59.97500000000001
 30
0.0
  0
VERTEX
  8
Group052
 10
202.2625
 20
-73.375
 30
0.0
  0
SEQEND
  8
Group052
  0
POLYLINE
  8
Group052
 62
0
 70
0
 66
1
 10
0.0
 20
0.0
 30
0.0
  0
VERTEX
  8
Group052
 10
201.96249999999998
 20
-73.67500000000001
 30
0.0
  0
VERTEX
  8
Group052
 10
188.56249999999997
 20
-73.67500000000001
 30
0.0
  0
SEQEND
  8
Group052
  0
POLYLINE
  8
Group052
 62
0
 70
0
 66
1
 10
0.0
 20
0.0
 30
0.0
  0
VERTEX
  8
Group052
 10
188.2625
 20
-59.97500000000001
 30
0.0
  0
VERTEX
  8
Group052
 10
188.2625
 20
-73.375
 30
0.0
  0
SEQEND
  8
Group052
  0
ARC
  8
Group053
 62
0
 10
207.61249999999998
 20
-59.975
 30
0.0
 40
0.3
 50
90.0
 51
-180.0
  0
ARC
  8
Group053
 62
0
 10
221.0125
 20
-59.975
 30
0.0
 40
0.3
 50
-0.0
 51
90.0
  0
ARC
  8
Group053
 62
0
 10
207.61249999999998
 20
-73.375
 30
0.0
 40
0.3
 50
-180.0
 51
-90.0
  0
ARC
  8
Group053
 62
0
 10
221.0125
 20
-73.375
 30
0.0
 40
0.3
 50
-90.0
 51
-0.0
  0
POLYLINE
  8
Group053
 62
0
 70
0
 66
1
 10
0.0
 20
0.0
 30
0.0
  0
VERTEX
  8
Group053
 10
207.61249999999998
 20
-59.675000000000004
 30
0.0
  0
VERTEX
  8
Group053
 10
221.0125
 20
-59.675000000000004
 30
0.0
  0
SEQEND
  8
Group053
  0
POLYLINE
  8
Group053
 62
0
 70
0
 66
1
 10
0.0
 20
0.0
 30
0.0
  0
VERTEX
  8
Group053
 10
221.3125
 20
-59.97500000000001
 30
0.0
  0
VERTEX
  8
Group053
 10
221.3125
 20
-73.375
 30
0.0
  0
SEQEND
  8
Group053
  0
POLYLINE
  8
Group053
 62
0
 70
0
 66
1
 10
0.0
 20
0.0
 30
0.0
  0
VERTEX
  8
Group053
 10
221.0125
 20
-73.67500000000001
 30
0.0
  0
VERTEX
  8
Group053
 10
207.61249999999998
 20
-73.67500000000001
 30
0.0
  0
SEQEND
  8
Group053
  0
POLYLINE
  8
Group053
 62
0
 70
0
 66
1
 10
0.0
 20
0.0
 30
0.0
  0
VERTEX
  8
Group053
 10
207.3125
 20
-59.97500000000001
 30
0.0
  0
VERTEX
  8
Group053
 10
207.3125
 20
-73.375
 30
0.0
  0
SEQEND
  8
Group053
  0
ARC
  8
Group054
 62
0
 10
229.04375000000002
 20
-59.97500000000001
 30
0.0
 40
0.3
 50
90.0
 51
-180.0
  0
ARC
  8
Group054
 62
0
 10
242.44375
 20
-59.975000000000016
 30
0.0
 40
0.3
 50
-0.0
 51
90.0
  0
ARC
  8
Group054
 62
0
 10
229.04375
 20
-73.375
 30
0.0
 40
0.3
 50
-180.0
 51
-90.0
  0
ARC
  8
Group054
 62
0
 10
242.44375
 20
-73.375
 30
0.0
 40
0.3
 50
-90.0
 51
-0.0
  0
POLYLINE
  8
Group054
 62
0
 70
0
 66
1
 10
0.0
 20
0.0
 30
0.0
  0
VERTEX
  8
Group054
 10
229.04375
 20
-59.675000000000004
 30
0.0
  0
VERTEX
  8
Group054
 10
242.44375
 20
-59.675000000000004
 30
0.0
  0
SEQEND
  8
Group054
  0
POLYLINE
  8
Group054
 62
0
 70
0
 66
1
 10
0.0
 20
0.0
 30
0.0
  0
VERTEX
  8
Group054
 10
242.74375
 20
-59.97500000000001
 30
0.0
  0
VERTEX
  8
Group054
 10
242.74375
 20
-73.375
 30
0.0
  0
SEQEND
  8
Group054
  0
POLYLINE
  8
Group054
 62
0
 70
0
 66
1
 10
0.0
 20
0.0
 30
0.0
  0
VERTEX
  8
Group054
 10
242.44375
 20
-73.67500000000001
 30
0.0
  0
VERTEX
  8
Group054
 10
229.04375
 20
-73.67500000000001
 30
0.0
  0
SEQEND
  8
Group054
  0
POLYLINE
  8
Group054
 62
0
 70
0
 66
1
 10
0.0
 20
0.0
 30
0.0
  0
VERTEX
  8
Group054
 10
228.74375
 20
-59.97500000000001
 30
0.0
  0
VERTEX
  8
Group054
 10
228.74375
 20
-73.375
 30
0.0
  0
SEQEND
  8
Group054
  0
ARC
  8
Group016
 62
0
 10
5.206250000000001
 20
-21.875
 30
0.0
 40
0.3
 50
90.0
 51
-180.0
  0
ARC
  8
Group016
 62
0
 10
18.60625
 20
-21.875000000000004
 30
0.0
 40
0.3
 50
-0.0
 51
90.0
  0
ARC
  8
Group016
 62
0
 10
5.206249999999997
 20
-35.27499999999999
 30
0.0
 40
0.3
 50
-180.0
 51
-90.0
  0
ARC
  8
Group016
 62
0
 10
18.606249999999992
 20
-35.27499999999999
 30
0.0
 40
0.3
 50
-90.0
 51
-0.0
  0
POLYLINE
  8
Group016
 62
0
 70
0
 66
1
 10
0.0
 20
0.0
 30
0.0
  0
VERTEX
  8
Group016
 10
5.206250000000004
 20
-21.574999999999996
 30
0.0
  0
VERTEX
  8
Group016
 10
18.606250000000003
 20
-21.574999999999996
 30
0.0
  0
SEQEND
  8
Group016
  0
POLYLINE
  8
Group016
 62
0
 70
0
 66
1
 10
0.0
 20
0.0
 30
0.0
  0
VERTEX
  8
Group016
 10
18.606250000000003
 20
-35.574999999999996
 30
0.0
  0
VERTEX
  8
Group016
 10
5.206250000000004
 20
-35.574999999999996
 30
0.0
  0
SEQEND
  8
Group016
  0
POLYLINE
  8
Group016
 62
0
 70
0
 66
1
 10
0.0
 20
0.0
 30
0.0
  0
VERTEX
  8
Group016
 10
4.90625
 20
-21.874999999999996
 30
0.0
  0
VERTEX
  8
Group016
 10
4.90625
 20
-35.275
 30
0.0
  0
SEQEND
  8
Group016
  0
ARC
  8
Group016
 62
0
 10
21.825
 20
-26.85
 30
0.0
 40
3.5
 50
-90.0
 51
90.0
  0
POLYLINE
  8
Group016
 62
0
 70
0
 66
1
 10
0.0
 20
0.0
 30
0.0
  0
VERTEX
  8
Group016
 10
21.825
 20
-23.35
 30
0.0
  0
VERTEX
  8
Group016
 10
18.90625
 20
-23.35
 30
0.0
  0
SEQEND
  8
Group016
  0
POLYLINE
  8
Group016
 62
0
 70
0
 66
1
 10
0.0
 20
0.0
 30
0.0
  0
VERTEX
  8
Group016
 10
21.825
 20
-30.35
 30
0.0
  0
VERTEX
  8
Group016
 10
18.90625
 20
-30.35
 30
0.0
  0
SEQEND
  8
Group016
  0
POLYLINE
  8
Group016
 62
0
 70
0
 66
1
 10
0.0
 20
0.0
 30
0.0
  0
VERTEX
  8
Group016
 10
18.90625
 20
-35.275
 30
0.0
  0
VERTEX
  8
Group016
 10
18.90625
 20
-30.35
 30
0.0
  0
SEQEND
  8
Group016
  0
POLYLINE
  8
Group016
 62
0
 70
0
 66
1
 10
0.0
 20
0.0
 30
0.0
  0
VERTEX
  8
Group016
 10
18.90625
 20
-23.35
 30
0.0
  0
VERTEX
  8
Group016
 10
18.90625
 20
-21.875
 30
0.0
  0
SEQEND
  8
Group016
  0
ARC
  8
Group017
 62
0
 10
26.637500000000003
 20
-21.875000000000004
 30
0.0
 40
0.3
 50
90.0
 51
-180.0
  0
ARC
  8
Group017
 62
0
 10
40.0375
 20
-21.875000000000007
 30
0.0
 40
0.3
 50
-0.0
 51
90.0
  0
ARC
  8
Group017
 62
0
 10
26.637499999999996
 20
-35.27499999999999
 30
0.0
 40
0.3
 50
-180.0
 51
-90.0
  0
ARC
  8
Group017
 62
0
 10
40.037499999999994
 20
-35.275
 30
0.0
 40
0.3
 50
-90.0
 51
-0.0
  0
POLYLINE
  8
Group017
 62
0
 70
0
 66
1
 10
0.0
 20
0.0
 30
0.0
  0
VERTEX
  8
Group017
 10
26.6375
 20
-21.574999999999996
 30
0.0
  0
VERTEX
  8
Group017
 10
40.0375
 20
-21.574999999999996
 30
0.0
  0
SEQEND
  8
Group017
  0
POLYLINE
  8
Group017
 62
0
 70
0
 66
1
 10
0.0
 20
0.0
 30
0.0
  0
VERTEX
  8
Group017
 10
40.3375
 20
-21.874999999999996
 30
0.0
  0
VERTEX
  8
Group017
 10
40.3375
 20
-35.275
 30
0.0
  0
SEQEND
  8
Group017
  0
POLYLINE
  8
Group017
 62
0
 70
0
 66
1
 10
0.0
 20
0.0
 30
0.0
  0
VERTEX
  8
Group017
 10
40.0375
 20
-35.574999999999996
 30
0.0
  0
VERTEX
  8
Group017
 10
26.6375
 20
-35.574999999999996
 30
0.0
  0
SEQEND
  8
Group017
  0
POLYLINE
  8
Group017
 62
0
 70
0
 66
1
 10
0.0
 20
0.0
 30
0.0
  0
VERTEX
  8
Group017
 10
26.3375
 20
-21.874999999999996
 30
0.0
  0
VERTEX
  8
Group017
 10
26.3375
 20
-35.275
 30
0.0
  0
SEQEND
  8
Group017
  0
ARC
  8
Group018
 62
0
 10
45.6875
 20
-21.875000000000004
 30
0.0
 40
0.3
 50
90.0
 51
-180.0
  0
ARC
  8
Group018
 62
0
 10
59.087500000000006
 20
-21.875000000000007
 30
0.0
 40
0.3
 50
-0.0
 51
90.0
  0
ARC
  8
Group018
 62
0
 10
45.6875
 20
-35.27499999999999
 30
0.0
 40
0.3
 50
-180.0
 51
-90.0
  0
ARC
  8
Group018
 62
0
 10
59.08749999999999
 20
-35.275
 30
0.0
 40
0.3
 50
-90.0
 51
-0.0
  0
POLYLINE
  8
Group018
 62
0
 70
0
 66
1
 10
0.0
 20
0.0
 30
0.0
  0
VERTEX
  8
Group018
 10
45.6875
 20
-21.574999999999996
 30
0.0
  0
VERTEX
  8
Group018
 10
59.087500000000006
 20
-21.574999999999996
 30
0.0
  0
SEQEND
  8
Group018
  0
POLYLINE
  8
Group018
 62
0
 70
0
 66
1
 10
0.0
 20
0.0
 30
0.0
  0
VERTEX
  8
Group018
 10
59.3875
 20
-21.874999999999996
 30
0.0
  0
VERTEX
  8
Group018
 10
59.3875
 20
-35.275
 30
0.0
  0
SEQEND
  8
Group018
  0
POLYLINE
  8
Group018
 62
0
 70
0
 66
1
 10
0.0
 20
0.0
 30
0.0
  0
VERTEX
  8
Group018
 10
59.087500000000006
 20
-35.574999999999996
 30
0.0
  0
VERTEX
  8
Group018
 10
45.6875
 20
-35.574999999999996
 30
0.0
  0
SEQEND
  8
Group018
  0
POLYLINE
  8
Group018
 62
0
 70
0
 66
1
 10
0.0
 20
0.0
 30
0.0
  0
VERTEX
  8
Group018
 10
45.3875
 20
-21.874999999999996
 30
0.0
  0
VERTEX
  8
Group018
 10
45.3875
 20
-35.275
 30
0.0
  0
SEQEND
  8
Group018
  0
ARC
  8
Group019
 62
0
 10
64.7375
 20
-21.875000000000004
 30
0.0
 40
0.3
 50
90.0
 51
-180.0
  0
ARC
  8
Group019
 62
0
 10
78.1375
 20
-21.875000000000007
 30
0.0
 40
0.3
 50
-0.0
 51
90.0
  0
ARC
  8
Group019
 62
0
 10
64.7375
 20
-35.27499999999999
 30
0.0
 40
0.3
 50
-180.0
 51
-90.0
  0
ARC
  8
Group019
 62
0
 10
78.13749999999999
 20
-35.275
 30
0.0
 40
0.3
 50
-90.0
 51
-0.0
  0
POLYLINE
  8
Group019
 62
0
 70
0
 66
1
 10
0.0
 20
0.0
 30
0.0
  0
VERTEX
  8
Group019
 10
64.7375
 20
-21.574999999999996
 30
0.0
  0
VERTEX
  8
Group019
 10
78.13750000000002
 20
-21.574999999999996
 30
0.0
  0
SEQEND
  8
Group019
  0
POLYLINE
  8
Group019
 62
0
 70
0
 66
1
 10
0.0
 20
0.0
 30
0.0
  0
VERTEX
  8
Group019
 10
78.4375
 20
-21.874999999999996
 30
0.0
  0
VERTEX
  8
Group019
 10
78.4375
 20
-35.275
 30
0.0
  0
SEQEND
  8
Group019
  0
POLYLINE
  8
Group019
 62
0
 70
0
 66
1
 10
0.0
 20
0.0
 30
0.0
  0
VERTEX
  8
Group019
 10
78.13750000000002
 20
-35.574999999999996
 30
0.0
  0
VERTEX
  8
Group019
 10
64.7375
 20
-35.574999999999996
 30
0.0
  0
SEQEND
  8
Group019
  0
POLYLINE
  8
Group019
 62
0
 70
0
 66
1
 10
0.0
 20
0.0
 30
0.0
  0
VERTEX
  8
Group019
 10
64.4375
 20
-21.874999999999996
 30
0.0
  0
VERTEX
  8
Group019
 10
64.4375
 20
-35.275
 30
0.0
  0
SEQEND
  8
Group019
  0
ARC
  8
Group020
 62
0
 10
83.7875
 20
-21.875000000000004
 30
0.0
 40
0.3
 50
90.0
 51
-180.0
  0
ARC
  8
Group020
 62
0
 10
97.1875
 20
-21.875000000000007
 30
0.0
 40
0.3
 50
-0.0
 51
90.0
  0
ARC
  8
Group020
 62
0
 10
83.7875
 20
-35.27499999999999
 30
0.0
 40
0.3
 50
-180.0
 51
-90.0
  0
ARC
  8
Group020
 62
0
 10
97.18749999999999
 20
-35.275
 30
0.0
 40
0.3
 50
-90.0
 51
-0.0
  0
POLYLINE
  8
Group020
 62
0
 70
0
 66
1
 10
0.0
 20
0.0
 30
0.0
  0
VERTEX
  8
Group020
 10
83.7875
 20
-21.574999999999996
 30
0.0
  0
VERTEX
  8
Group020
 10
97.18750000000003
 20
-21.574999999999996
 30
0.0
  0
SEQEND
  8
Group020
  0
POLYLINE
  8
Group020
 62
0
 70
0
 66
1
 10
0.0
 20
0.0
 30
0.0
  0
VERTEX
  8
Group020
 10
97.48750000000001
 20
-21.874999999999996
 30
0.0
  0
VERTEX
  8
Group020
 10
97.48750000000001
 20
-35.275
 30
0.0
  0
SEQEND
  8
Group020
  0
POLYLINE
  8
Group020
 62
0
 70
0
 66
1
 10
0.0
 20
0.0
 30
0.0
  0
VERTEX
  8
Group020
 10
97.18750000000003
 20
-35.574999999999996
 30
0.0
  0
VERTEX
  8
Group020
 10
83.7875
 20
-35.574999999999996
 30
0.0
  0
SEQEND
  8
Group020
  0
POLYLINE
  8
Group020
 62
0
 70
0
 66
1
 10
0.0
 20
0.0
 30
0.0
  0
VERTEX
  8
Group020
 10
83.48750000000001
 20
-21.874999999999996
 30
0.0
  0
VERTEX
  8
Group020
 10
83.48750000000001
 20
-35.275
 30
0.0
  0
SEQEND
  8
Group020
  0
ARC
  8
Group021
 62
0
 10
102.83749999999999
 20
-21.875000000000004
 30
0.0
 40
0.3
 50
90.0
 51
-180.0
  0
ARC
  8
Group021
 62
0
 10
116.2375
 20
-21.875000000000007
 30
0.0
 40
0.3
 50
-0.0
 51
90.0
  0
ARC
  8
Group021
 62
0
 10
102.83749999999999
 20
-35.27499999999999
 30
0.0
 40
0.3
 50
-180.0
 51
-90.0
  0
ARC
  8
Group021
 62
0
 10
116.23749999999998
 20
-35.275
 30
0.0
 40
0.3
 50
-90.0
 51
-0.0
  0
POLYLINE
  8
Group021
 62
0
 70
0
 66
1
 10
0.0
 20
0.0
 30
0.0
  0
VERTEX
  8
Group021
 10
102.83749999999999
 20
-21.574999999999996
 30
0.0
  0
VERTEX
  8
Group021
 10
116.23750000000003
 20
-21.574999999999996
 30
0.0
  0
SEQEND
  8
Group021
  0
POLYLINE
  8
Group021
 62
0
 70
0
 66
1
 10
0.0
 20
0.0
 30
0.0
  0
VERTEX
  8
Group021
 10
116.53750000000001
 20
-21.874999999999996
 30
0.0
  0
VERTEX
  8
Group021
 10
116.53750000000001
 20
-35.275
 30
0.0
  0
SEQEND
  8
Group021
  0
POLYLINE
  8
Group021
 62
0
 70
0
 66
1
 10
0.0
 20
0.0
 30
0.0
  0
VERTEX
  8
Group021
 10
116.23750000000003
 20
-35.574999999999996
 30
0.0
  0
VERTEX
  8
Group021
 10
102.83749999999999
 20
-35.574999999999996
 30
0.0
  0
SEQEND
  8
Group021
  0
POLYLINE
  8
Group021
 62
0
 70
0
 66
1
 10
0.0
 20
0.0
 30
0.0
  0
VERTEX
  8
Group021
 10
102.53750000000001
 20
-21.874999999999996
 30
0.0
  0
VERTEX
  8
Group021
 10
102.53750000000001
 20
-35.275
 30
0.0
  0
SEQEND
  8
Group021
  0
ARC
  8
Group022
 62
0
 10
121.88749999999999
 20
-21.875000000000004
 30
0.0
 40
0.3
 50
90.0
 51
-180.0
  0
ARC
  8
Group022
 62
0
 10
135.2875
 20
-21.875000000000007
 30
0.0
 40
0.3
 50
-0.0
 51
90.0
  0
ARC
  8
Group022
 62
0
 10
121.88749999999999
 20
-35.27499999999999
 30
0.0
 40
0.3
 50
-180.0
 51
-90.0
  0
ARC
  8
Group022
 62
0
 10
135.2875
 20
-35.275
 30
0.0
 40
0.3
 50
-90.0
 51
-0.0
  0
POLYLINE
  8
Group022
 62
0
 70
0
 66
1
 10
0.0
 20
0.0
 30
0.0
  0
VERTEX
  8
Group022
 10
121.88749999999999
 20
-21.574999999999996
 30
0.0
  0
VERTEX
  8
Group022
 10
135.28750000000002
 20
-21.574999999999996
 30
0.0
  0
SEQEND
  8
Group022
  0
POLYLINE
  8
Group022
 62
0
 70
0
 66
1
 10
0.0
 20
0.0
 30
0.0
  0
VERTEX
  8
Group022
 10
135.5875
 20
-21.874999999999996
 30
0.0
  0
VERTEX
  8
Group022
 10
135.5875
 20
-35.275
 30
0.0
  0
SEQEND
  8
Group022
  0
POLYLINE
  8
Group022
 62
0
 70
0
 66
1
 10
0.0
 20
0.0
 30
0.0
  0
VERTEX
  8
Group022
 10
135.28750000000002
 20
-35.574999999999996
 30
0.0
  0
VERTEX
  8
Group022
 10
121.88749999999999
 20
-35.574999999999996
 30
0.0
  0
SEQEND
  8
Group022
  0
POLYLINE
  8
Group022
 62
0
 70
0
 66
1
 10
0.0
 20
0.0
 30
0.0
  0
VERTEX
  8
Group022
 10
121.5875
 20
-21.874999999999996
 30
0.0
  0
VERTEX
  8
Group022
 10
121.5875
 20
-35.275
 30
0.0
  0
SEQEND
  8
Group022
  0
ARC
  8
Group023
 62
0
 10
140.9375
 20
-21.875000000000004
 30
0.0
 40
0.3
 50
90.0
 51
-180.0
  0
ARC
  8
Group023
 62
0
 10
154.3375
 20
-21.875000000000007
 30
0.0
 40
0.3
 50
-0.0
 51
90.0
  0
ARC
  8
Group023
 62
0
 10
140.9375
 20
-35.27499999999999
 30
0.0
 40
0.3
 50
-180.0
 51
-90.0
  0
ARC
  8
Group023
 62
0
 10
154.3375
 20
-35.275
 30
0.0
 40
0.3
 50
-90.0
 51
-0.0
  0
POLYLINE
  8
Group023
 62
0
 70
0
 66
1
 10
0.0
 20
0.0
 30
0.0
  0
VERTEX
  8
Group023
 10
140.9375
 20
-21.574999999999996
 30
0.0
  0
VERTEX
  8
Group023
 10
154.33750000000003
 20
-21.574999999999996
 30
0.0
  0
SEQEND
  8
Group023
  0
POLYLINE
  8
Group023
 62
0
 70
0
 66
1
 10
0.0
 20
0.0
 30
0.0
  0
VERTEX
  8
Group023
 10
154.6375
 20
-21.874999999999996
 30
0.0
  0
VERTEX
  8
Group023
 10
154.6375
 20
-35.275
 30
0.0
  0
SEQEND
  8
Group023
  0
POLYLINE
  8
Group023
 62
0
 70
0
 66
1
 10
0.0
 20
0.0
 30
0.0
  0
VERTEX
  8
Group023
 10
154.33750000000003
 20
-35.574999999999996
 30
0.0
  0
VERTEX
  8
Group023
 10
140.9375
 20
-35.574999999999996
 30
0.0
  0
SEQEND
  8
Group023
  0
POLYLINE
  8
Group023
 62
0
 70
0
 66
1
 10
0.0
 20
0.0
 30
0.0
  0
VERTEX
  8
Group023
 10
140.6375
 20
-21.874999999999996
 30
0.0
  0
VERTEX
  8
Group023
 10
140.6375
 20
-35.275
 30
0.0
  0
SEQEND
  8
Group023
  0
ARC
  8
Group024
 62
0
 10
159.9875
 20
-21.875000000000004
 30
0.0
 40
0.3
 50
90.0
 51
-180.0
  0
ARC
  8
Group024
 62
0
 10
173.38750000000002
 20
-21.875000000000007
 30
0.0
 40
0.3
 50
-0.0
 51
90.0
  0
ARC
  8
Group024
 62
0
 10
159.9875
 20
-35.27499999999999
 30
0.0
 40
0.3
 50
-180.0
 51
-90.0
  0
ARC
  8
Group024
 62
0
 10
173.38750000000002
 20
-35.275
 30
0.0
 40
0.3
 50
-90.0
 51
-0.0
  0
POLYLINE
  8
Group024
 62
0
 70
0
 66
1
 10
0.0
 20
0.0
 30
0.0
  0
VERTEX
  8
Group024
 10
159.9875
 20
-21.574999999999996
 30
0.0
  0
VERTEX
  8
Group024
 10
173.38750000000005
 20
-21.574999999999996
 30
0.0
  0
SEQEND
  8
Group024
  0
POLYLINE
  8
Group024
 62
0
 70
0
 66
1
 10
0.0
 20
0.0
 30
0.0
  0
VERTEX
  8
Group024
 10
173.6875
 20
-21.874999999999996
 30
0.0
  0
VERTEX
  8
Group024
 10
173.6875
 20
-35.275
 30
0.0
  0
SEQEND
  8
Group024
  0
POLYLINE
  8
Group024
 62
0
 70
0
 66
1
 10
0.0
 20
0.0
 30
0.0
  0
VERTEX
  8
Group024
 10
173.38750000000005
 20
-35.574999999999996
 30
0.0
  0
VERTEX
  8
Group024
 10
159.9875
 20
-35.574999999999996
 30
0.0
  0
SEQEND
  8
Group024
  0
POLYLINE
  8
Group024
 62
0
 70
0
 66
1
 10
0.0
 20
0.0
 30
0.0
  0
VERTEX
  8
Group024
 10
159.6875
 20
-21.874999999999996
 30
0.0
  0
VERTEX
  8
Group024
 10
159.6875
 20
-35.275
 30
0.0
  0
SEQEND
  8
Group024
  0
ARC
  8
Group025
 62
0
 10
179.03750000000002
 20
-21.875000000000004
 30
0.0
 40
0.3
 50
90.0
 51
-180.0
  0
ARC
  8
Group025
 62
0
 10
192.43750000000003
 20
-21.875000000000007
 30
0.0
 40
0.3
 50
-0.0
 51
90.0
  0
ARC
  8
Group025
 62
0
 10
179.03750000000002
 20
-35.27499999999999
 30
0.0
 40
0.3
 50
-180.0
 51
-90.0
  0
ARC
  8
Group025
 62
0
 10
192.43750000000003
 20
-35.275
 30
0.0
 40
0.3
 50
-90.0
 51
-0.0
  0
POLYLINE
  8
Group025
 62
0
 70
0
 66
1
 10
0.0
 20
0.0
 30
0.0
  0
VERTEX
  8
Group025
 10
179.03750000000002
 20
-21.574999999999996
 30
0.0
  0
VERTEX
  8
Group025
 10
192.43750000000006
 20
-21.574999999999996
 30
0.0
  0
SEQEND
  8
Group025
  0
POLYLINE
  8
Group025
 62
0
 70
0
 66
1
 10
0.0
 20
0.0
 30
0.0
  0
VERTEX
  8
Group025
 10
192.7375
 20
-21.874999999999996
 30
0.0
  0
VERTEX
  8
Group025
 10
192.7375
 20
-35.275
 30
0.0
  0
SEQEND
  8
Group025
  0
POLYLINE
  8
Group025
 62
0
 70
0
 66
1
 10
0.0
 20
0.0
 30
0.0
  0
VERTEX
  8
Group025
 10
192.43750000000006
 20
-35.574999999999996
 30
0.0
  0
VERTEX
  8
Group025
 10
179.03750000000002
 20
-35.574999999999996
 30
0.0
  0
SEQEND
  8
Group025
  0
POLYLINE
  8
Group025
 62
0
 70
0
 66
1
 10
0.0
 20
0.0
 30
0.0
  0
VERTEX
  8
Group025
 10
178.7375
 20
-21.874999999999996
 30
0.0
  0
VERTEX
  8
Group025
 10
178.7375
 20
-35.275
 30
0.0
  0
SEQEND
  8
Group025
  0
ARC
  8
Group026
 62
0
 10
198.08750000000003
 20
-21.875000000000004
 30
0.0
 40
0.3
 50
90.0
 51
-180.0
  0
ARC
  8
Group026
 62
0
 10
211.48750000000004
 20
-21.875000000000007
 30
0.0
 40
0.3
 50
-0.0
 51
90.0
  0
ARC
  8
Group026
 62
0
 10
198.08750000000003
 20
-35.27499999999999
 30
0.0
 40
0.3
 50
-180.0
 51
-90.0
  0
ARC
  8
Group026
 62
0
 10
211.48750000000004
 20
-35.275
 30
0.0
 40
0.3
 50
-90.0
 51
-0.0
  0
POLYLINE
  8
Group026
 62
0
 70
0
 66
1
 10
0.0
 20
0.0
 30
0.0
  0
VERTEX
  8
Group026
 10
198.08750000000003
 20
-21.574999999999996
 30
0.0
  0
VERTEX
  8
Group026
 10
211.48750000000007
 20
-21.574999999999996
 30
0.0
  0
SEQEND
  8
Group026
  0
POLYLINE
  8
Group026
 62
0
 70
0
 66
1
 10
0.0
 20
0.0
 30
0.0
  0
VERTEX
  8
Group026
 10
211.78750000000002
 20
-21.874999999999996
 30
0.0
  0
VERTEX
  8
Group026
 10
211.78750000000002
 20
-35.275
 30
0.0
  0
SEQEND
  8
Group026
  0
POLYLINE
  8
Group026
 62
0
 70
0
 66
1
 10
0.0
 20
0.0
 30
0.0
  0
VERTEX
  8
Group026
 10
211.48750000000007
 20
-35.574999999999996
 30
0.0
  0
VERTEX
  8
Group026
 10
198.08750000000003
 20
-35.574999999999996
 30
0.0
  0
SEQEND
  8
Group026
  0
POLYLINE
  8
Group026
 62
0
 70
0
 66
1
 10
0.0
 20
0.0
 30
0.0
  0
VERTEX
  8
Group026
 10
197.78750000000002
 20
-21.874999999999996
 30
0.0
  0
VERTEX
  8
Group026
 10
197.78750000000002
 20
-35.275
 30
0.0
  0
SEQEND
  8
Group026
  0
ARC
  8
Group027
 62
0
 10
237.68125000000003
 20
-21.875000000000007
 30
0.0
 40
0.3
 50
-0.0
 51
90.0
  0
ARC
  8
Group027
 62
0
 10
224.28125000000006
 20
-21.875
 30
0.0
 40
0.3
 50
90.0
 51
-180.0
  0
ARC
  8
Group027
 62
0
 10
224.28125000000006
 20
-35.27499999999999
 30
0.0
 40
0.3
 50
-180.0
 51
-90.0
  0
POLYLINE
  8
Group027
 62
0
 70
0
 66
1
 10
0.0
 20
0.0
 30
0.0
  0
VERTEX
  8
Group027
 10
237.98125
 20
-21.87499999999999
 30
0.0
  0
VERTEX
  8
Group027
 10
237.98125
 20
-35.27499999999999
 30
0.0
  0
SEQEND
  8
Group027
  0
POLYLINE
  8
Group027
 62
0
 70
0
 66
1
 10
0.0
 20
0.0
 30
0.0
  0
VERTEX
  8
Group027
 10
237.68125000000003
 20
-35.57499999999999
 30
0.0
  0
VERTEX
  8
Group027
 10
224.28125000000006
 20
-35.57499999999999
 30
0.0
  0
SEQEND
  8
Group027
  0
POLYLINE
  8
Group027
 62
0
 70
0
 66
1
 10
0.0
 20
0.0
 30
0.0
  0
VERTEX
  8
Group027
 10
224.28125000000006
 20
-21.57499999999999
 30
0.0
  0
VERTEX
  8
Group027
 10
237.68125000000003
 20
-21.57499999999999
 30
0.0
  0
SEQEND
  8
Group027
  0
POLYLINE
  8
Group027
 62
0
 70
0
 66
1
 10
0.0
 20
0.0
 30
0.0
  0
VERTEX
  8
Group027
 10
223.98125
 20
-21.87499999999999
 30
0.0
  0
VERTEX
  8
Group027
 10
223.98125
 20
-35.27499999999999
 30
0.0
  0
SEQEND
  8
Group027
  0
ARC
  8
Group027
 62
0
 10
237.68125000000003
 20
-35.275
 30
0.0
 40
0.3
 50
-90.0
 51
-0.0
  0
ARC
  8
Group002
 62
0
 10
2.825000000000003
 20
-2.825000000000003
 30
0.0
 40
0.3
 50
90.0
 51
-180.0
  0
ARC
  8
Group002
 62
0
 10
16.225
 20
-2.825000000000006
 30
0.0
 40
0.3
 50
-0.0
 51
90.0
  0
ARC
  8
Group002
 62
0
 10
2.824999999999996
 20
-16.224999999999994
 30
0.0
 40
0.3
 50
-180.0
 51
-90.0
  0
ARC
  8
Group002
 62
0
 10
16.224999999999994
 20
-16.224999999999998
 30
0.0
 40
0.3
 50
-90.0
 51
-0.0
  0
POLYLINE
  8
Group002
 62
0
 70
0
 66
1
 10
0.0
 20
0.0
 30
0.0
  0
VERTEX
  8
Group002
 10
2.824999999999999
 20
-2.524999999999999
 30
0.0
  0
VERTEX
  8
Group002
 10
16.225
 20
-2.524999999999999
 30
0.0
  0
SEQEND
  8
Group002
  0
POLYLINE
  8
Group002
 62
0
 70
0
 66
1
 10
0.0
 20
0.0
 30
0.0
  0
VERTEX
  8
Group002
 10
16.525
 20
-2.824999999999999
 30
0.0
  0
VERTEX
  8
Group002
 10
16.525
 20
-16.225
 30
0.0
  0
SEQEND
  8
Group002
  0
POLYLINE
  8
Group002
 62
0
 70
0
 66
1
 10
0.0
 20
0.0
 30
0.0
  0
VERTEX
  8
Group002
 10
16.225
 20
-16.525
 30
0.0
  0
VERTEX
  8
Group002
 10
2.824999999999999
 20
-16.525
 30
0.0
  0
SEQEND
  8
Group002
  0
POLYLINE
  8
Group002
 62
0
 70
0
 66
1
 10
0.0
 20
0.0
 30
0.0
  0
VERTEX
  8
Group002
 10
2.524999999999999
 20
-2.824999999999999
 30
0.0
  0
VERTEX
  8
Group002
 10
2.524999999999999
 20
-16.225
 30
0.0
  0
SEQEND
  8
Group002
  0
ARC
  8
Group003
 62
0
 10
21.875
 20
-2.825000000000003
 30
0.0
 40
0.3
 50
90.0
 51
-180.0
  0
ARC
  8
Group003
 62
0
 10
35.275000000000006
 20
-2.825000000000006
 30
0.0
 40
0.3
 50
-0.0
 51
90.0
  0
ARC
  8
Group003
 62
0
 10
21.875
 20
-16.224999999999994
 30
0.0
 40
0.3
 50
-180.0
 51
-90.0
  0
ARC
  8
Group003
 62
0
 10
35.27499999999999
 20
-16.224999999999998
 30
0.0
 40
0.3
 50
-90.0
 51
-0.0
  0
POLYLINE
  8
Group003
 62
0
 70
0
 66
1
 10
0.0
 20
0.0
 30
0.0
  0
VERTEX
  8
Group003
 10
21.875
 20
-2.524999999999999
 30
0.0
  0
VERTEX
  8
Group003
 10
35.275000000000006
 20
-2.524999999999999
 30
0.0
  0
SEQEND
  8
Group003
  0
POLYLINE
  8
Group003
 62
0
 70
0
 66
1
 10
0.0
 20
0.0
 30
0.0
  0
VERTEX
  8
Group003
 10
35.575
 20
-2.824999999999999
 30
0.0
  0
VERTEX
  8
Group003
 10
35.575
 20
-16.225
 30
0.0
  0
SEQEND
  8
Group003
  0
POLYLINE
  8
Group003
 62
0
 70
0
 66
1
 10
0.0
 20
0.0
 30
0.0
  0
VERTEX
  8
Group003
 10
35.275000000000006
 20
-16.525
 30
0.0
  0
VERTEX
  8
Group003
 10
21.875
 20
-16.525
 30
0.0
  0
SEQEND
  8
Group003
  0
POLYLINE
  8
Group003
 62
0
 70
0
 66
1
 10
0.0
 20
0.0
 30
0.0
  0
VERTEX
  8
Group003
 10
21.575000000000003
 20
-2.824999999999999
 30
0.0
  0
VERTEX
  8
Group003
 10
21.575000000000003
 20
-16.225
 30
0.0
  0
SEQEND
  8
Group003
  0
ARC
  8
Group004
 62
0
 10
40.925
 20
-2.825000000000003
 30
0.0
 40
0.3
 50
90.0
 51
-180.0
  0
ARC
  8
Group004
 62
0
 10
54.325
 20
-2.825000000000006
 30
0.0
 40
0.3
 50
-0.0
 51
90.0
  0
ARC
  8
Group004
 62
0
 10
40.925
 20
-16.224999999999994
 30
0.0
 40
0.3
 50
-180.0
 51
-90.0
  0
ARC
  8
Group004
 62
0
 10
54.32499999999999
 20
-16.224999999999998
 30
0.0
 40
0.3
 50
-90.0
 51
-0.0
  0
POLYLINE
  8
Group004
 62
0
 70
0
 66
1
 10
0.0
 20
0.0
 30
0.0
  0
VERTEX
  8
Group004
 10
40.925
 20
-2.524999999999999
 30
0.0
  0
VERTEX
  8
Group004
 10
54.32500000000001
 20
-2.524999999999999
 30
0.0
  0
SEQEND
  8
Group004
  0
POLYLINE
  8
Group004
 62
0
 70
0
 66
1
 10
0.0
 20
0.0
 30
0.0
  0
VERTEX
  8
Group004
 10
54.62500000000001
 20
-2.824999999999999
 30
0.0
  0
VERTEX
  8
Group004
 10
54.62500000000001
 20
-16.225
 30
0.0
  0
SEQEND
  8
Group004
  0
POLYLINE
  8
Group004
 62
0
 70
0
 66
1
 10
0.0
 20
0.0
 30
0.0
  0
VERTEX
  8
Group004
 10
54.32500000000001
 20
-16.525
 30
0.0
  0
VERTEX
  8
Group004
 10
40.925
 20
-16.525
 30
0.0
  0
SEQEND
  8
Group004
  0
POLYLINE
  8
Group004
 62
0
 70
0
 66
1
 10
0.0
 20
0.0
 30
0.0
  0
VERTEX
  8
Group004
 10
40.625
 20
-2.824999999999999
 30
0.0
  0
VERTEX
  8
Group004
 10
40.625
 20
-16.225
 30
0.0
  0
SEQEND
  8
Group004
  0
ARC
  8
Group005
 62
0
 10
59.974999999999994
 20
-2.825000000000003
 30
0.0
 40
0.3
 50
90.0
 51
-180.0
  0
ARC
  8
Group005
 62
0
 10
73.375
 20
-2.825000000000006
 30
0.0
 40
0.3
 50
-0.0
 51
90.0
  0
ARC
  8
Group005
 62
0
 10
59.974999999999994
 20
-16.224999999999994
 30
0.0
 40
0.3
 50
-180.0
 51
-90.0
  0
ARC
  8
Group005
 62
0
 10
73.37499999999999
 20
-16.224999999999998
 30
0.0
 40
0.3
 50
-90.0
 51
-0.0
  0
POLYLINE
  8
Group005
 62
0
 70
0
 66
1
 10
0.0
 20
0.0
 30
0.0
  0
VERTEX
  8
Group005
 10
59.975
 20
-2.524999999999999
 30
0.0
  0
VERTEX
  8
Group005
 10
73.37500000000001
 20
-2.524999999999999
 30
0.0
  0
SEQEND
  8
Group005
  0
POLYLINE
  8
Group005
 62
0
 70
0
 66
1
 10
0.0
 20
0.0
 30
0.0
  0
VERTEX
  8
Group005
 10
73.67500000000001
 20
-2.824999999999999
 30
0.0
  0
VERTEX
  8
Group005
 10
73.67500000000001
 20
-16.225
 30
0.0
  0
SEQEND
  8
Group005
  0
POLYLINE
  8
Group005
 62
0
 70
0
 66
1
 10
0.0
 20
0.0
 30
0.0
  0
VERTEX
  8
Group005
 10
73.37500000000001
 20
-16.525
 30
0.0
  0
VERTEX
  8
Group005
 10
59.975
 20
-16.525
 30
0.0
  0
SEQEND
  8
Group005
  0
POLYLINE
  8
Group005
 62
0
 70
0
 66
1
 10
0.0
 20
0.0
 30
0.0
  0
VERTEX
  8
Group005
 10
59.675000000000004
 20
-2.824999999999999
 30
0.0
  0
VERTEX
  8
Group005
 10
59.675000000000004
 20
-16.225
 30
0.0
  0
SEQEND
  8
Group005
  0
ARC
  8
Group006
 62
0
 10
79.02499999999999
 20
-2.825000000000003
 30
0.0
 40
0.3
 50
90.0
 51
-180.0
  0
ARC
  8
Group006
 62
0
 10
92.425
 20
-2.825000000000006
 30
0.0
 40
0.3
 50
-0.0
 51
90.0
  0
ARC
  8
Group006
 62
0
 10
79.02499999999999
 20
-16.224999999999994
 30
0.0
 40
0.3
 50
-180.0
 51
-90.0
  0
ARC
  8
Group006
 62
0
 10
92.42499999999998
 20
-16.224999999999998
 30
0.0
 40
0.3
 50
-90.0
 51
-0.0
  0
POLYLINE
  8
Group006
 62
0
 70
0
 66
1
 10
0.0
 20
0.0
 30
0.0
  0
VERTEX
  8
Group006
 10
79.025
 20
-2.524999999999999
 30
0.0
  0
VERTEX
  8
Group006
 10
92.42500000000001
 20
-2.524999999999999
 30
0.0
  0
SEQEND
  8
Group006
  0
POLYLINE
  8
Group006
 62
0
 70
0
 66
1
 10
0.0
 20
0.0
 30
0.0
  0
VERTEX
  8
Group006
 10
92.72500000000001
 20
-2.824999999999999
 30
0.0
  0
VERTEX
  8
Group006
 10
92.72500000000001
 20
-16.225
 30
0.0
  0
SEQEND
  8
Group006
  0
POLYLINE
  8
Group006
 62
0
 70
0
 66
1
 10
0.0
 20
0.0
 30
0.0
  0
VERTEX
  8
Group006
 10
92.42500000000001
 20
-16.525
 30
0.0
  0
VERTEX
  8
Group006
 10
79.025
 20
-16.525
 30
0.0
  0
SEQEND
  8
Group006
  0
POLYLINE
  8
Group006
 62
0
 70
0
 66
1
 10
0.0
 20
0.0
 30
0.0
  0
VERTEX
  8
Group006
 10
78.725
 20
-2.824999999999999
 30
0.0
  0
VERTEX
  8
Group006
 10
78.725
 20
-16.225
 30
0.0
  0
SEQEND
  8
Group006
  0
ARC
  8
Group007
 62
0
 10
98.07499999999999
 20
-2.825000000000003
 30
0.0
 40
0.3
 50
90.0
 51
-180.0
  0
ARC
  8
Group007
 62
0
 10
111.475
 20
-2.825000000000006
 30
0.0
 40
0.3
 50
-0.0
 51
90.0
  0
ARC
  8
Group007
 62
0
 10
98.07499999999999
 20
-16.224999999999994
 30
0.0
 40
0.3
 50
-180.0
 51
-90.0
  0
ARC
  8
Group007
 62
0
 10
111.47499999999998
 20
-16.224999999999998
 30
0.0
 40
0.3
 50
-90.0
 51
-0.0
  0
POLYLINE
  8
Group007
 62
0
 70
0
 66
1
 10
0.0
 20
0.0
 30
0.0
  0
VERTEX
  8
Group007
 10
98.075
 20
-2.524999999999999
 30
0.0
  0
VERTEX
  8
Group007
 10
111.47500000000001
 20
-2.524999999999999
 30
0.0
  0
SEQEND
  8
Group007
  0
POLYLINE
  8
Group007
 62
0
 70
0
 66
1
 10
0.0
 20
0.0
 30
0.0
  0
VERTEX
  8
Group007
 10
111.775
 20
-2.824999999999999
 30
0.0
  0
VERTEX
  8
Group007
 10
111.775
 20
-16.225
 30
0.0
  0
SEQEND
  8
Group007
  0
POLYLINE
  8
Group007
 62
0
 70
0
 66
1
 10
0.0
 20
0.0
 30
0.0
  0
VERTEX
  8
Group007
 10
111.47500000000001
 20
-16.525
 30
0.0
  0
VERTEX
  8
Group007
 10
98.075
 20
-16.525
 30
0.0
  0
SEQEND
  8
Group007
  0
POLYLINE
  8
Group007
 62
0
 70
0
 66
1
 10
0.0
 20
0.0
 30
0.0
  0
VERTEX
  8
Group007
 10
97.77499999999999
 20
-2.824999999999999
 30
0.0
  0
VERTEX
  8
Group007
 10
97.77499999999999
 20
-16.225
 30
0.0
  0
SEQEND
  8
Group007
  0
ARC
  8
Group008
 62
0
 10
117.12499999999999
 20
-2.825000000000003
 30
0.0
 40
0.3
 50
90.0
 51
-180.0
  0
ARC
  8
Group008
 62
0
 10
130.525
 20
-2.825000000000006
 30
0.0
 40
0.3
 50
-0.0
 51
90.0
  0
ARC
  8
Group008
 62
0
 10
117.12499999999999
 20
-16.224999999999994
 30
0.0
 40
0.3
 50
-180.0
 51
-90.0
  0
ARC
  8
Group008
 62
0
 10
130.52499999999998
 20
-16.224999999999998
 30
0.0
 40
0.3
 50
-90.0
 51
-0.0
  0
POLYLINE
  8
Group008
 62
0
 70
0
 66
1
 10
0.0
 20
0.0
 30
0.0
  0
VERTEX
  8
Group008
 10
117.125
 20
-2.524999999999999
 30
0.0
  0
VERTEX
  8
Group008
 10
130.525
 20
-2.524999999999999
 30
0.0
  0
SEQEND
  8
Group008
  0
POLYLINE
  8
Group008
 62
0
 70
0
 66
1
 10
0.0
 20
0.0
 30
0.0
  0
VERTEX
  8
Group008
 10
130.825
 20
-2.824999999999999
 30
0.0
  0
VERTEX
  8
Group008
 10
130.825
 20
-16.225
 30
0.0
  0
SEQEND
  8
Group008
  0
POLYLINE
  8
Group008
 62
0
 70
0
 66
1
 10
0.0
 20
0.0
 30
0.0
  0
VERTEX
  8
Group008
 10
130.525
 20
-16.525
 30
0.0
  0
VERTEX
  8
Group008
 10
117.125
 20
-16.525
 30
0.0
  0
SEQEND
  8
Group008
  0
POLYLINE
  8
Group008
 62
0
 70
0
 66
1
 10
0.0
 20
0.0
 30
0.0
  0
VERTEX
  8
Group008
 10
116.82499999999999
 20
-2.824999999999999
 30
0.0
  0
VERTEX
  8
Group008
 10
116.82499999999999
 20
-16.225
 30
0.0
  0
SEQEND
  8
Group008
  0
ARC
  8
Group009
 62
0
 10
136.17499999999998
 20
-2.825000000000003
 30
0.0
 40
0.3
 50
90.0
 51
-180.0
  0
ARC
  8
Group009
 62
0
 10
149.57500000000002
 20
-2.825000000000006
 30
0.0
 40
0.3
 50
-0.0
 51
90.0
  0
ARC
  8
Group009
 62
0
 10
136.17499999999998
 20
-16.224999999999994
 30
0.0
 40
0.3
 50
180.0
 51
-90.0
  0
ARC
  8
Group009
 62
0
 10
149.575
 20
-16.224999999999998
 30
0.0
 40
0.3
 50
-90.0
 51
-0.0
  0
POLYLINE
  8
Group009
 62
0
 70
0
 66
1
 10
0.0
 20
0.0
 30
0.0
  0
VERTEX
  8
Group009
 10
136.175
 20
-2.524999999999999
 30
0.0
  0
VERTEX
  8
Group009
 10
149.575
 20
-2.524999999999999
 30
0.0
  0
SEQEND
  8
Group009
  0
POLYLINE
  8
Group009
 62
0
 70
0
 66
1
 10
0.0
 20
0.0
 30
0.0
  0
VERTEX
  8
Group009
 10
149.875
 20
-2.824999999999999
 30
0.0
  0
VERTEX
  8
Group009
 10
149.875
 20
-16.225
 30
0.0
  0
SEQEND
  8
Group009
  0
POLYLINE
  8
Group009
 62
0
 70
0
 66
1
 10
0.0
 20
0.0
 30
0.0
  0
VERTEX
  8
Group009
 10
149.575
 20
-16.525
 30
0.0
  0
VERTEX
  8
Group009
 10
136.175
 20
-16.525
 30
0.0
  0
SEQEND
  8
Group009
  0
POLYLINE
  8
Group009
 62
0
 70
0
 66
1
 10
0.0
 20
0.0
 30
0.0
  0
VERTEX
  8
Group009
 10
135.875
 20
-2.824999999999999
 30
0.0
  0
VERTEX
  8
Group009
 10
135.875
 20
-16.225
 30
0.0
  0
SEQEND
  8
Group009
  0
ARC
  8
Group010
 62
0
 10
155.225
 20
-2.825000000000003
 30
0.0
 40
0.3
 50
90.0
 51
-180.0
  0
ARC
  8
Group010
 62
0
 10
168.62500000000003
 20
-2.825000000000006
 30
0.0
 40
0.3
 50
-0.0
 51
90.0
  0
ARC
  8
Group010
 62
0
 10
155.225
 20
-16.224999999999994
 30
0.0
 40
0.3
 50
-180.0
 51
-90.0
  0
ARC
  8
Group010
 62
0
 10
168.625
 20
-16.224999999999998
 30
0.0
 40
0.3
 50
-90.0
 51
-0.0
  0
POLYLINE
  8
Group010
 62
0
 70
0
 66
1
 10
0.0
 20
0.0
 30
0.0
  0
VERTEX
  8
Group010
 10
155.22500000000002
 20
-2.524999999999999
 30
0.0
  0
VERTEX
  8
Group010
 10
168.625
 20
-2.524999999999999
 30
0.0
  0
SEQEND
  8
Group010
  0
POLYLINE
  8
Group010
 62
0
 70
0
 66
1
 10
0.0
 20
0.0
 30
0.0
  0
VERTEX
  8
Group010
 10
168.925
 20
-2.824999999999999
 30
0.0
  0
VERTEX
  8
Group010
 10
168.925
 20
-16.225
 30
0.0
  0
SEQEND
  8
Group010
  0
POLYLINE
  8
Group010
 62
0
 70
0
 66
1
 10
0.0
 20
0.0
 30
0.0
  0
VERTEX
  8
Group010
 10
168.625
 20
-16.525
 30
0.0
  0
VERTEX
  8
Group010
 10
155.22500000000002
 20
-16.525
 30
0.0
  0
SEQEND
  8
Group010
  0
POLYLINE
  8
Group010
 62
0
 70
0
 66
1
 10
0.0
 20
0.0
 30
0.0
  0
VERTEX
  8
Group010
 10
154.925
 20
-2.824999999999999
 30
0.0
  0
VERTEX
  8
Group010
 10
154.925
 20
-16.225
 30
0.0
  0
SEQEND
  8
Group010
  0
ARC
  8
Group011
 62
0
 10
174.275
 20
-2.825000000000003
 30
0.0
 40
0.3
 50
90.0
 51
-180.0
  0
ARC
  8
Group011
 62
0
 10
187.67500000000004
 20
-2.825000000000006
 30
0.0
 40
0.3
 50
-0.0
 51
90.0
  0
ARC
  8
Group011
 62
0
 10
174.275
 20
-16.224999999999994
 30
0.0
 40
0.3
 50
-180.0
 51
-90.0
  0
ARC
  8
Group011
 62
0
 10
187.675
 20
-16.224999999999998
 30
0.0
 40
0.3
 50
-90.0
 51
-0.0
  0
POLYLINE
  8
Group011
 62
0
 70
0
 66
1
 10
0.0
 20
0.0
 30
0.0
  0
VERTEX
  8
Group011
 10
174.27500000000003
 20
-2.524999999999999
 30
0.0
  0
VERTEX
  8
Group011
 10
187.675
 20
-2.524999999999999
 30
0.0
  0
SEQEND
  8
Group011
  0
POLYLINE
  8
Group011
 62
0
 70
0
 66
1
 10
0.0
 20
0.0
 30
0.0
  0
VERTEX
  8
Group011
 10
187.97500000000002
 20
-2.824999999999999
 30
0.0
  0
VERTEX
  8
Group011
 10
187.97500000000002
 20
-16.225
 30
0.0
  0
SEQEND
  8
Group011
  0
POLYLINE
  8
Group011
 62
0
 70
0
 66
1
 10
0.0
 20
0.0
 30
0.0
  0
VERTEX
  8
Group011
 10
187.675
 20
-16.525
 30
0.0
  0
VERTEX
  8
Group011
 10
174.27500000000003
 20
-16.525
 30
0.0
  0
SEQEND
  8
Group011
  0
POLYLINE
  8
Group011
 62
0
 70
0
 66
1
 10
0.0
 20
0.0
 30
0.0
  0
VERTEX
  8
Group011
 10
173.97500000000002
 20
-2.824999999999999
 30
0.0
  0
VERTEX
  8
Group011
 10
173.97500000000002
 20
-16.225
 30
0.0
  0
SEQEND
  8
Group011
  0
ARC
  8
Group012
 62
0
 10
193.325
 20
-2.825000000000002
 30
0.0
 40
0.3
 50
90.0
 51
-180.0
  0
ARC
  8
Group012
 62
0
 10
206.72500000000002
 20
-2.825000000000006
 30
0.0
 40
0.3
 50
0.0
 51
90.0
  0
ARC
  8
Group012
 62
0
 10
193.325
 20
-16.224999999999994
 30
0.0
 40
0.3
 50
-180.0
 51
-90.0
  0
ARC
  8
Group012
 62
0
 10
206.725
 20
-16.224999999999998
 30
0.0
 40
0.3
 50
-90.0
 51
-0.0
  0
POLYLINE
  8
Group012
 62
0
 70
0
 66
1
 10
0.0
 20
0.0
 30
0.0
  0
VERTEX
  8
Group012
 10
193.32500000000002
 20
-2.524999999999999
 30
0.0
  0
VERTEX
  8
Group012
 10
206.725
 20
-2.524999999999999
 30
0.0
  0
SEQEND
  8
Group012
  0
POLYLINE
  8
Group012
 62
0
 70
0
 66
1
 10
0.0
 20
0.0
 30
0.0
  0
VERTEX
  8
Group012
 10
207.025
 20
-2.824999999999999
 30
0.0
  0
VERTEX
  8
Group012
 10
207.025
 20
-16.225
 30
0.0
  0
SEQEND
  8
Group012
  0
POLYLINE
  8
Group012
 62
0
 70
0
 66
1
 10
0.0
 20
0.0
 30
0.0
  0
VERTEX
  8
Group012
 10
206.725
 20
-16.525
 30
0.0
  0
VERTEX
  8
Group012
 10
193.32500000000002
 20
-16.525
 30
0.0
  0
SEQEND
  8
Group012
  0
POLYLINE
  8
Group012
 62
0
 70
0
 66
1
 10
0.0
 20
0.0
 30
0.0
  0
VERTEX
  8
Group012
 10
193.025
 20
-2.824999999999999
 30
0.0
  0
VERTEX
  8
Group012
 10
193.025
 20
-16.225
 30
0.0
  0
SEQEND
  8
Group012
  0
ARC
  8
Group013
 62
0
 10
212.375
 20
-2.825000000000002
 30
0.0
 40
0.3
 50
90.0
 51
-180.0
  0
ARC
  8
Group013
 62
0
 10
225.77500000000003
 20
-2.825000000000006
 30
0.0
 40
0.3
 50
-0.0
 51
90.0
  0
ARC
  8
Group013
 62
0
 10
212.375
 20
-16.224999999999994
 30
0.0
 40
0.3
 50
-180.0
 51
-90.0
  0
ARC
  8
Group013
 62
0
 10
225.775
 20
-16.224999999999998
 30
0.0
 40
0.3
 50
-90.0
 51
-0.0
  0
POLYLINE
  8
Group013
 62
0
 70
0
 66
1
 10
0.0
 20
0.0
 30
0.0
  0
VERTEX
  8
Group013
 10
212.37500000000003
 20
-2.524999999999999
 30
0.0
  0
VERTEX
  8
Group013
 10
225.775
 20
-2.524999999999999
 30
0.0
  0
SEQEND
  8
Group013
  0
POLYLINE
  8
Group013
 62
0
 70
0
 66
1
 10
0.0
 20
0.0
 30
0.0
  0
VERTEX
  8
Group013
 10
226.07500000000002
 20
-2.824999999999999
 30
0.0
  0
VERTEX
  8
Group013
 10
226.07500000000002
 20
-16.225
 30
0.0
  0
SEQEND
  8
Group013
  0
POLYLINE
  8
Group013
 62
0
 70
0
 66
1
 10
0.0
 20
0.0
 30
0.0
  0
VERTEX
  8
Group013
 10
225.775
 20
-16.525
 30
0.0
  0
VERTEX
  8
Group013
 10
212.37500000000003
 20
-16.525
 30
0.0
  0
SEQEND
  8
Group013
  0
POLYLINE
  8
Group013
 62
0
 70
0
 66
1
 10
0.0
 20
0.0
 30
0.0
  0
VERTEX
  8
Group013
 10
212.07500000000002
 20
-2.824999999999999
 30
0.0
  0
VERTEX
  8
Group013
 10
212.07500000000002
 20
-16.225
 30
0.0
  0
SEQEND
  8
Group013
  0
ARC
  8
Group014
 62
0
 10
231.425
 20
-2.825000000000002
 30
0.0
 40
0.3
 50
90.0
 51
-180.0
  0
ARC
  8
Group014
 62
0
 10
244.82500000000005
 20
-2.825000000000006
 30
0.0
 40
0.3
 50
0.0
 51
90.0
  0
ARC
  8
Group014
 62
0
 10
231.425
 20
-16.224999999999994
 30
0.0
 40
0.3
 50
-180.0
 51
-90.0
  0
ARC
  8
Group014
 62
0
 10
244.82500000000002
 20
-16.224999999999998
 30
0.0
 40
0.3
 50
-90.0
 51
-0.0
  0
POLYLINE
  8
Group014
 62
0
 70
0
 66
1
 10
0.0
 20
0.0
 30
0.0
  0
VERTEX
  8
Group014
 10
231.42500000000004
 20
-2.524999999999999
 30
0.0
  0
VERTEX
  8
Group014
 10
244.82500000000002
 20
-2.524999999999999
 30
0.0
  0
SEQEND
  8
Group014
  0
POLYLINE
  8
Group014
 62
0
 70
0
 66
1
 10
0.0
 20
0.0
 30
0.0
  0
VERTEX
  8
Group014
 10
245.12500000000003
 20
-2.824999999999999
 30
0.0
  0
VERTEX
  8
Group014
 10
245.12500000000003
 20
-16.225
 30
0.0
  0
SEQEND
  8
Group014
  0
POLYLINE
  8
Group014
 62
0
 70
0
 66
1
 10
0.0
 20
0.0
 30
0.0
  0
VERTEX
  8
Group014
 10
244.82500000000002
 20
-16.525
 30
0.0
  0
VERTEX
  8
Group014
 10
231.42500000000004
 20
-16.525
 30
0.0
  0
SEQEND
  8
Group014
  0
POLYLINE
  8
Group014
 62
0
 70
0
 66
1
 10
0.0
 20
0.0
 30
0.0
  0
VERTEX
  8
Group014
 10
231.12500000000003
 20
-2.824999999999999
 30
0.0
  0
VERTEX
  8
Group014
 10
231.12500000000003
 20
-16.225
 30
0.0
  0
SEQEND
  8
Group014
  0
CIRCLE
  8
Border
 62
0
 10
223.77499999999998
 20
-57.575
 30
0.0
 40
1.75
  0
CIRCLE
  8
Border
 62
0
 10
23.625
 20
-19.525000000000002
 30
0.0
 40
1.75
  0
CIRCLE
  8
Border
 62
0
 10
214.925
 20
-19.525000000000002
 30
0.0
 40
1.75
  0
CIRCLE
  8
Border
 62
0
 10
128.17499999999995
 20
-38.575
 30
0.0
 40
1.75
  0
CIRCLE
  8
Border
 62
0
 10
23.475
 20
-57.575
 30
0.0
 40
1.75
  0
ARC
  8
Border
 62
0
 10
1.225
 20
-1.225
 30
0.0
 40
0.5
 50
90.0
 51
-180.0
  0
ARC
  8
Border
 62
0
 10
246.37500000000003
 20
-1.225
 30
0.0
 40
0.5
 50
-0.0
 51
90.0
  0
ARC
  8
Border
 62
0
 10
246.37500000000003
 20
-74.875
 30
0.0
 40
0.5
 50
-90.0
 51
-0.0
  0
ARC
  8
Border
 62
0
 10
1.225
 20
-74.875
 30
0.0
 40
0.5
 50
-180.0
 51
-90.0
  0
POLYLINE
  8
Border
 62
0
 70
0
 66
1
 10
0.0
 20
0.0
 30
0.0
  0
VERTEX
  8
Border
 10
246.375
 20
-75.375
 30
0.0
  0
VERTEX
  8
Border
 10
1.224999999999994
 20
-75.375
 30
0.0
  0
SEQEND
  8
Border
  0
POLYLINE
  8
Border
 62
0
 70
0
 66
1
 10
0.0
 20
0.0
 30
0.0
  0
VERTEX
  8
Border
 10
1.225
 20
-0.725
 30
0.0
  0
VERTEX
  8
Border
 10
246.375
 20
-0.725
 30
0.0
  0
SEQEND
  8
Border
  0
POLYLINE
  8
Border
 62
0
 70
0
 66
1
 10
0.0
 20
0.0
 30
0.0
  0
VERTEX
  8
Border
 10
246.87500000000003
 20
-74.875
 30
0.0
  0
VERTEX
  8
Border
 10
246.87500000000003
 20
-1.2249999999999943
 30
0.0
  0
SEQEND
  8
Border
  0
POLYLINE
  8
Border
 62
0
 70
0
 66
1
 10
0.0
 20
0.0
 30
0.0
  0
VERTEX
  8
Border
 10
0.725
 20
-1.225
 30
0.0
  0
VERTEX
  8
Border
 10
0.725
 20
-74.875
 30
0.0
  0
SEQEND
  8
Border
  0
ENDSEC
  0
EOF
