%TF.GenerationSoftware,KiCad,Pcbnew,(5.99.0-8436-gbd786b578a)*%
%TF.CreationDate,2021-02-24T19:01:32+01:00*%
%TF.ProjectId,atom47,61746f6d-3437-42e6-9b69-6361645f7063,rev?*%
%TF.SameCoordinates,Original*%
%TF.FileFunction,Paste,Bot*%
%TF.FilePolarity,Positive*%
%FSLAX46Y46*%
G04 Gerber Fmt 4.6, Leading zero omitted, Abs format (unit mm)*
G04 Created by KiCad (PCBNEW (5.99.0-8436-gbd786b578a)) date 2021-02-24 19:01:32*
%MOMM*%
%LPD*%
G01*
G04 APERTURE LIST*
%ADD10R,1.000000X0.900000*%
%ADD11R,1.400000X1.200000*%
%ADD12R,0.900000X1.000000*%
%ADD13R,0.400000X1.250000*%
%ADD14R,0.600000X1.200000*%
%ADD15R,0.400000X2.000000*%
%ADD16R,0.550000X1.600000*%
%ADD17R,1.600000X0.550000*%
G04 APERTURE END LIST*
D10*
X19050008Y-17667195D03*
X19050008Y-19242195D03*
D11*
X152995433Y-69065674D03*
X152995433Y-66665674D03*
X150018868Y-69065674D03*
X150018868Y-66665674D03*
X110132897Y-69065674D03*
X110132897Y-66665674D03*
X158948563Y-69065674D03*
X158948563Y-66665674D03*
X83939125Y-69065674D03*
X83939125Y-66665674D03*
X155971998Y-69065674D03*
X155971998Y-66665674D03*
X116086027Y-69065674D03*
X116086027Y-66665674D03*
X164901693Y-50025032D03*
X164901693Y-47625032D03*
X25598451Y-69065674D03*
X25598451Y-66665674D03*
X22026573Y-69065674D03*
X22026573Y-66665674D03*
X145851677Y-50025032D03*
X145851677Y-47625032D03*
X203001725Y-50015658D03*
X203001725Y-47615658D03*
X206573603Y-50015658D03*
X206573603Y-47615658D03*
X187523587Y-50015658D03*
X187523587Y-47615658D03*
X183951709Y-50025032D03*
X183951709Y-47625032D03*
X126801661Y-50025032D03*
X126801661Y-47625032D03*
X88701629Y-50025032D03*
X88701629Y-47625032D03*
X69651613Y-50025032D03*
X69651613Y-47625032D03*
X74414117Y-11915626D03*
X74414117Y-9515626D03*
X223242367Y-30965642D03*
X223242367Y-28565642D03*
X193476717Y-30965642D03*
X193476717Y-28565642D03*
X36314085Y-11915626D03*
X36314085Y-9515626D03*
X174426701Y-30965642D03*
X174426701Y-28565642D03*
X207764229Y-11915626D03*
X207764229Y-9515626D03*
X155376685Y-30965642D03*
X155376685Y-28565642D03*
X136326669Y-30965642D03*
X136326669Y-28565642D03*
X150614181Y-11915626D03*
X150614181Y-9515626D03*
X93464133Y-11915626D03*
X93464133Y-9515626D03*
X60126605Y-30965642D03*
X60126605Y-28565642D03*
X41076589Y-30965642D03*
X41076589Y-28565642D03*
X131564165Y-11915626D03*
X131564165Y-9515626D03*
X98226637Y-30965642D03*
X98226637Y-28565642D03*
X229790810Y-11915626D03*
X229790810Y-9515626D03*
X79176621Y-30965642D03*
X79176621Y-28565642D03*
X169664197Y-11915626D03*
X169664197Y-9515626D03*
X55364101Y-11915626D03*
X55364101Y-9515626D03*
X89892255Y-69065674D03*
X89892255Y-66665674D03*
X188714213Y-11915626D03*
X188714213Y-9515626D03*
X212526733Y-30965642D03*
X212526733Y-28565642D03*
X117276653Y-30965642D03*
X117276653Y-28565642D03*
X19645321Y-30965642D03*
X19645321Y-28565642D03*
X112514149Y-11915626D03*
X112514149Y-9515626D03*
X226814245Y-11915626D03*
X226814245Y-9515626D03*
X107751645Y-50025032D03*
X107751645Y-47625032D03*
X24407825Y-50015658D03*
X24407825Y-47615658D03*
X50601597Y-50025032D03*
X50601597Y-47625032D03*
X39885963Y-11915626D03*
X39885963Y-9515626D03*
D12*
X22218760Y-35718772D03*
X20643760Y-35718772D03*
X30764081Y-32742207D03*
X32339081Y-32742207D03*
D10*
X17264069Y-17667195D03*
X17264069Y-19242195D03*
D12*
X38503150Y-39290650D03*
X40078150Y-39290650D03*
D10*
X25598451Y-28171890D03*
X25598451Y-26596890D03*
D12*
X22218760Y-39290650D03*
X20643760Y-39290650D03*
X22218760Y-37504711D03*
X20643760Y-37504711D03*
D13*
X17375000Y-6875000D03*
X18025000Y-6875000D03*
X18675000Y-6875000D03*
X19325000Y-6875000D03*
X19975000Y-6875000D03*
D14*
X18100008Y-11946878D03*
X19050008Y-11946878D03*
X20000008Y-11946878D03*
X20000008Y-14246878D03*
X19050008Y-14246878D03*
X18100008Y-14246878D03*
D12*
X22218760Y-33932833D03*
X20643760Y-33932833D03*
D15*
X26184390Y-32146894D03*
X28584390Y-32146894D03*
X27384390Y-32146894D03*
D16*
X26965642Y-36231276D03*
X27765642Y-36231276D03*
X28565642Y-36231276D03*
X29365642Y-36231276D03*
X30165642Y-36231276D03*
X30965642Y-36231276D03*
X31765642Y-36231276D03*
X32565642Y-36231276D03*
D17*
X34015642Y-37681276D03*
X34015642Y-38481276D03*
X34015642Y-39281276D03*
X34015642Y-40081276D03*
X34015642Y-40881276D03*
X34015642Y-41681276D03*
X34015642Y-42481276D03*
X34015642Y-43281276D03*
D16*
X32565642Y-44731276D03*
X31765642Y-44731276D03*
X30965642Y-44731276D03*
X30165642Y-44731276D03*
X29365642Y-44731276D03*
X28565642Y-44731276D03*
X27765642Y-44731276D03*
X26965642Y-44731276D03*
D17*
X25515642Y-43281276D03*
X25515642Y-42481276D03*
X25515642Y-41681276D03*
X25515642Y-40881276D03*
X25515642Y-40081276D03*
X25515642Y-39281276D03*
X25515642Y-38481276D03*
X25515642Y-37681276D03*
D10*
X15478112Y-19242172D03*
X15478112Y-17667172D03*
M02*
