%TF.GenerationSoftware,KiCad,Pcbnew,(5.99.0-8436-gbd786b578a)*%
%TF.CreationDate,2021-02-24T19:01:32+01:00*%
%TF.ProjectId,atom47,61746f6d-3437-42e6-9b69-6361645f7063,rev?*%
%TF.SameCoordinates,Original*%
%TF.FileFunction,Legend,Top*%
%TF.FilePolarity,Positive*%
%FSLAX46Y46*%
G04 Gerber Fmt 4.6, Leading zero omitted, Abs format (unit mm)*
G04 Created by KiCad (PCBNEW (5.99.0-8436-gbd786b578a)) date 2021-02-24 19:01:32*
%MOMM*%
%LPD*%
G01*
G04 APERTURE LIST*
%ADD10C,0.150000*%
%ADD11C,0.120000*%
G04 APERTURE END LIST*
D10*
X85582131Y-67222667D02*
X85105941Y-67556000D01*
X85582131Y-67794095D02*
X84582131Y-67794095D01*
X84582131Y-67413143D01*
X84629751Y-67317905D01*
X84677370Y-67270286D01*
X84772608Y-67222667D01*
X84915465Y-67222667D01*
X85010703Y-67270286D01*
X85058322Y-67317905D01*
X85105941Y-67413143D01*
X85105941Y-67794095D01*
X85534512Y-66841714D02*
X85582131Y-66698857D01*
X85582131Y-66460762D01*
X85534512Y-66365524D01*
X85486893Y-66317905D01*
X85391655Y-66270286D01*
X85296417Y-66270286D01*
X85201179Y-66317905D01*
X85153560Y-66365524D01*
X85105941Y-66460762D01*
X85058322Y-66651238D01*
X85010703Y-66746476D01*
X84963084Y-66794095D01*
X84867846Y-66841714D01*
X84772608Y-66841714D01*
X84677370Y-66794095D01*
X84629751Y-66746476D01*
X84582131Y-66651238D01*
X84582131Y-66413143D01*
X84629751Y-66270286D01*
X84582131Y-65984571D02*
X84582131Y-65413143D01*
X85582131Y-65698857D02*
X84582131Y-65698857D01*
D11*
X22075000Y-27100000D02*
X22075000Y-26100000D01*
X21625000Y-26800000D02*
X21825000Y-26600000D01*
X21725000Y-26500000D02*
X21725000Y-26600000D01*
X21625000Y-26900000D02*
X21925000Y-26600000D01*
X21575000Y-27100000D02*
X21575000Y-26850000D01*
X22075000Y-26600000D02*
X21575000Y-26100000D01*
X21575000Y-26100000D02*
X21575000Y-27100000D01*
X21575000Y-27100000D02*
X22075000Y-26600000D01*
X21825000Y-26600000D02*
X21625000Y-26400000D01*
X21625000Y-26300000D02*
X21625000Y-26800000D01*
X21925000Y-26600000D02*
X21625000Y-26300000D01*
M02*
