%TF.GenerationSoftware,KiCad,Pcbnew,(5.99.0-8436-gbd786b578a)*%
%TF.CreationDate,2021-02-24T19:01:32+01:00*%
%TF.ProjectId,atom47,61746f6d-3437-42e6-9b69-6361645f7063,rev?*%
%TF.SameCoordinates,Original*%
%TF.FileFunction,Copper,L2,Bot*%
%TF.FilePolarity,Positive*%
%FSLAX46Y46*%
G04 Gerber Fmt 4.6, Leading zero omitted, Abs format (unit mm)*
G04 Created by KiCad (PCBNEW (5.99.0-8436-gbd786b578a)) date 2021-02-24 19:01:32*
%MOMM*%
%LPD*%
G01*
G04 APERTURE LIST*
%TA.AperFunction,ComponentPad*%
%ADD10C,2.286000*%
%TD*%
%TA.AperFunction,ComponentPad*%
%ADD11C,3.000000*%
%TD*%
%TA.AperFunction,ComponentPad*%
%ADD12C,1.350000*%
%TD*%
%TA.AperFunction,ComponentPad*%
%ADD13O,1.350000X1.350000*%
%TD*%
%TA.AperFunction,SMDPad,CuDef*%
%ADD14R,1.000000X0.900000*%
%TD*%
%TA.AperFunction,SMDPad,CuDef*%
%ADD15R,1.400000X1.200000*%
%TD*%
%TA.AperFunction,ComponentPad*%
%ADD16R,1.700000X1.700000*%
%TD*%
%TA.AperFunction,ComponentPad*%
%ADD17O,1.700000X1.700000*%
%TD*%
%TA.AperFunction,SMDPad,CuDef*%
%ADD18R,0.900000X1.000000*%
%TD*%
%TA.AperFunction,SMDPad,CuDef*%
%ADD19R,0.400000X1.250000*%
%TD*%
%TA.AperFunction,ComponentPad*%
%ADD20C,1.200000*%
%TD*%
%TA.AperFunction,ComponentPad*%
%ADD21O,1.000000X1.800000*%
%TD*%
%TA.AperFunction,SMDPad,CuDef*%
%ADD22R,0.600000X1.200000*%
%TD*%
%TA.AperFunction,ComponentPad*%
%ADD23R,2.000000X2.000000*%
%TD*%
%TA.AperFunction,ComponentPad*%
%ADD24C,2.000000*%
%TD*%
%TA.AperFunction,ComponentPad*%
%ADD25O,2.000000X3.200000*%
%TD*%
%TA.AperFunction,SMDPad,CuDef*%
%ADD26R,0.400000X2.000000*%
%TD*%
%TA.AperFunction,SMDPad,CuDef*%
%ADD27R,0.550000X1.600000*%
%TD*%
%TA.AperFunction,SMDPad,CuDef*%
%ADD28R,1.600000X0.550000*%
%TD*%
%TA.AperFunction,ViaPad*%
%ADD29C,0.600000*%
%TD*%
%TA.AperFunction,Conductor*%
%ADD30C,0.250000*%
%TD*%
%TA.AperFunction,Conductor*%
%ADD31C,0.500000*%
%TD*%
G04 APERTURE END LIST*
D10*
X150177500Y-23495000D03*
X143827500Y-26035000D03*
X143033750Y-61595000D03*
X136683750Y-64135000D03*
X228758750Y-42545000D03*
X222408750Y-45085000D03*
X133508750Y-61595000D03*
X127158750Y-64135000D03*
X126365000Y-61595000D03*
X120015000Y-64135000D03*
X14446250Y-23495000D03*
X8096250Y-26035000D03*
X233521250Y-23495000D03*
X227171250Y-26035000D03*
D11*
X38025000Y-5025000D03*
D10*
X235902500Y-61595000D03*
X229552500Y-64135000D03*
X207327500Y-61595000D03*
X200977500Y-64135000D03*
X38258780Y-61595056D03*
X31908780Y-64135056D03*
X16827500Y-61595000D03*
X10477500Y-64135000D03*
X219233750Y-42545000D03*
X212883750Y-45085000D03*
X14446260Y-61595056D03*
X8096260Y-64135056D03*
X62071250Y-61595000D03*
X55721250Y-64135000D03*
X238283750Y-61595000D03*
X231933750Y-64135000D03*
X238283750Y-42545000D03*
X231933750Y-45085000D03*
X100171250Y-61595000D03*
X93821250Y-64135000D03*
X45402500Y-61595000D03*
X39052500Y-64135000D03*
X12065000Y-4445000D03*
X5715000Y-6985000D03*
X31115000Y-4445000D03*
X24765000Y-6985000D03*
X50165000Y-4445000D03*
X43815000Y-6985000D03*
X69215000Y-4445000D03*
X62865000Y-6985000D03*
X88265000Y-4445000D03*
X81915000Y-6985000D03*
X107315000Y-4445000D03*
X100965000Y-6985000D03*
X126365000Y-4445000D03*
X120015000Y-6985000D03*
X145415000Y-4445000D03*
X139065000Y-6985000D03*
X164465000Y-4445000D03*
X158115000Y-6985000D03*
X183515000Y-4445000D03*
X177165000Y-6985000D03*
X202565000Y-4445000D03*
X196215000Y-6985000D03*
X221615000Y-4445000D03*
X215265000Y-6985000D03*
X240665000Y-4445000D03*
X234315000Y-6985000D03*
X35877500Y-23495000D03*
X29527500Y-26035000D03*
X54927500Y-23495000D03*
X48577500Y-26035000D03*
X73977500Y-23495000D03*
X67627500Y-26035000D03*
X93027500Y-23495000D03*
X86677500Y-26035000D03*
X112077500Y-23495000D03*
X105727500Y-26035000D03*
X131127500Y-23495000D03*
X124777500Y-26035000D03*
X169227500Y-23495000D03*
X162877500Y-26035000D03*
X188277500Y-23495000D03*
X181927500Y-26035000D03*
X207327500Y-23495000D03*
X200977500Y-26035000D03*
X45402500Y-42545000D03*
X39052500Y-45085000D03*
X64452500Y-42545000D03*
X58102500Y-45085000D03*
X83502500Y-42545000D03*
X77152500Y-45085000D03*
X102552500Y-42545000D03*
X96202500Y-45085000D03*
X121602500Y-42545000D03*
X115252500Y-45085000D03*
X140652500Y-42545000D03*
X134302500Y-45085000D03*
X159702500Y-42545000D03*
X153352500Y-45085000D03*
X178752500Y-42545000D03*
X172402500Y-45085000D03*
X197802500Y-42545000D03*
X191452500Y-45085000D03*
X240665000Y-42545000D03*
X234315000Y-45085000D03*
X35877500Y-61595000D03*
X29527500Y-64135000D03*
X54927500Y-61595000D03*
X48577500Y-64135000D03*
X73977500Y-61595000D03*
X67627500Y-64135000D03*
X178752500Y-61595000D03*
X172402500Y-64135000D03*
X197802500Y-61595000D03*
X191452500Y-64135000D03*
X216852500Y-61595000D03*
X210502500Y-64135000D03*
X216852500Y-42545000D03*
X210502500Y-45085000D03*
X202565000Y-61595000D03*
X196215000Y-64135000D03*
X221615000Y-61595000D03*
X215265000Y-64135000D03*
X240665000Y-61595000D03*
X234315000Y-64135000D03*
X59690048Y-61595056D03*
X53340048Y-64135056D03*
X78740064Y-61595056D03*
X72390064Y-64135056D03*
X104933836Y-61595056D03*
X98583836Y-64135056D03*
X169227640Y-61595056D03*
X162877640Y-64135056D03*
X190658908Y-61595056D03*
X184308908Y-64135056D03*
X214471428Y-61595056D03*
X208121428Y-64135056D03*
X140652616Y-61595056D03*
X134302616Y-64135056D03*
X19208750Y-42545000D03*
X12858750Y-45085000D03*
D12*
X86915690Y-65675048D03*
D13*
X86915690Y-67675048D03*
D14*
X19050008Y-17667195D03*
X19050008Y-19242195D03*
D15*
X152995433Y-69065674D03*
X152995433Y-66665674D03*
X150018868Y-69065674D03*
X150018868Y-66665674D03*
X110132897Y-69065674D03*
X110132897Y-66665674D03*
X158948563Y-69065674D03*
X158948563Y-66665674D03*
X83939125Y-69065674D03*
X83939125Y-66665674D03*
X155971998Y-69065674D03*
X155971998Y-66665674D03*
X116086027Y-69065674D03*
X116086027Y-66665674D03*
X164901693Y-50025032D03*
X164901693Y-47625032D03*
X25598451Y-69065674D03*
X25598451Y-66665674D03*
X22026573Y-69065674D03*
X22026573Y-66665674D03*
X145851677Y-50025032D03*
X145851677Y-47625032D03*
X203001725Y-50015658D03*
X203001725Y-47615658D03*
X206573603Y-50015658D03*
X206573603Y-47615658D03*
X187523587Y-50015658D03*
X187523587Y-47615658D03*
X183951709Y-50025032D03*
X183951709Y-47625032D03*
X126801661Y-50025032D03*
X126801661Y-47625032D03*
X88701629Y-50025032D03*
X88701629Y-47625032D03*
X69651613Y-50025032D03*
X69651613Y-47625032D03*
X74414117Y-11915626D03*
X74414117Y-9515626D03*
X223242367Y-30965642D03*
X223242367Y-28565642D03*
X193476717Y-30965642D03*
X193476717Y-28565642D03*
X36314085Y-11915626D03*
X36314085Y-9515626D03*
X174426701Y-30965642D03*
X174426701Y-28565642D03*
X207764229Y-11915626D03*
X207764229Y-9515626D03*
X155376685Y-30965642D03*
X155376685Y-28565642D03*
X136326669Y-30965642D03*
X136326669Y-28565642D03*
X150614181Y-11915626D03*
X150614181Y-9515626D03*
X93464133Y-11915626D03*
X93464133Y-9515626D03*
X60126605Y-30965642D03*
X60126605Y-28565642D03*
X41076589Y-30965642D03*
X41076589Y-28565642D03*
X131564165Y-11915626D03*
X131564165Y-9515626D03*
X98226637Y-30965642D03*
X98226637Y-28565642D03*
X229790810Y-11915626D03*
X229790810Y-9515626D03*
X79176621Y-30965642D03*
X79176621Y-28565642D03*
X169664197Y-11915626D03*
X169664197Y-9515626D03*
X55364101Y-11915626D03*
X55364101Y-9515626D03*
X89892255Y-69065674D03*
X89892255Y-66665674D03*
X188714213Y-11915626D03*
X188714213Y-9515626D03*
X212526733Y-30965642D03*
X212526733Y-28565642D03*
X117276653Y-30965642D03*
X117276653Y-28565642D03*
X19645321Y-30965642D03*
X19645321Y-28565642D03*
X112514149Y-11915626D03*
X112514149Y-9515626D03*
X226814245Y-11915626D03*
X226814245Y-9515626D03*
X107751645Y-50025032D03*
X107751645Y-47625032D03*
X24407825Y-50015658D03*
X24407825Y-47615658D03*
X50601597Y-50025032D03*
X50601597Y-47625032D03*
D16*
X5873748Y-40640024D03*
D17*
X8413748Y-40640024D03*
X5873748Y-38100024D03*
X8413748Y-38100024D03*
X5873748Y-35560024D03*
X8413748Y-35560024D03*
D15*
X39885963Y-11915626D03*
X39885963Y-9515626D03*
D18*
X22218760Y-35718772D03*
X20643760Y-35718772D03*
X30764081Y-32742207D03*
X32339081Y-32742207D03*
D14*
X17264069Y-17667195D03*
X17264069Y-19242195D03*
D18*
X38503150Y-39290650D03*
X40078150Y-39290650D03*
D14*
X25598451Y-28171890D03*
X25598451Y-26596890D03*
D18*
X22218760Y-39290650D03*
X20643760Y-39290650D03*
X22218760Y-37504711D03*
X20643760Y-37504711D03*
D19*
X17375000Y-6875000D03*
X18025000Y-6875000D03*
X18675000Y-6875000D03*
X19325000Y-6875000D03*
X19975000Y-6875000D03*
D20*
X21100000Y-6875000D03*
D21*
X22275000Y-4075000D03*
D20*
X16250000Y-6875000D03*
D21*
X15075000Y-4075000D03*
D22*
X18100008Y-11946878D03*
X19050008Y-11946878D03*
X20000008Y-11946878D03*
X20000008Y-14246878D03*
X19050008Y-14246878D03*
X18100008Y-14246878D03*
D18*
X22218760Y-33932833D03*
X20643760Y-33932833D03*
D23*
X240625192Y-17025000D03*
D24*
X235625192Y-17025000D03*
X238125192Y-17025000D03*
D25*
X232525192Y-9525000D03*
X243725192Y-9525000D03*
D24*
X235625192Y-2525000D03*
X240625192Y-2525000D03*
D26*
X26184390Y-32146894D03*
X28584390Y-32146894D03*
X27384390Y-32146894D03*
D27*
X26965642Y-36231276D03*
X27765642Y-36231276D03*
X28565642Y-36231276D03*
X29365642Y-36231276D03*
X30165642Y-36231276D03*
X30965642Y-36231276D03*
X31765642Y-36231276D03*
X32565642Y-36231276D03*
D28*
X34015642Y-37681276D03*
X34015642Y-38481276D03*
X34015642Y-39281276D03*
X34015642Y-40081276D03*
X34015642Y-40881276D03*
X34015642Y-41681276D03*
X34015642Y-42481276D03*
X34015642Y-43281276D03*
D27*
X32565642Y-44731276D03*
X31765642Y-44731276D03*
X30965642Y-44731276D03*
X30165642Y-44731276D03*
X29365642Y-44731276D03*
X28565642Y-44731276D03*
X27765642Y-44731276D03*
X26965642Y-44731276D03*
D28*
X25515642Y-43281276D03*
X25515642Y-42481276D03*
X25515642Y-41681276D03*
X25515642Y-40881276D03*
X25515642Y-40081276D03*
X25515642Y-39281276D03*
X25515642Y-38481276D03*
X25515642Y-37681276D03*
D14*
X15478112Y-19242172D03*
X15478112Y-17667172D03*
D29*
X38099401Y-12540626D03*
X7143748Y-31551581D03*
X18892440Y-10873194D03*
X33337520Y-35123459D03*
X96779760Y-12840627D03*
X39885963Y-38100024D03*
X228600184Y-13096878D03*
X28575024Y-34528154D03*
X11906252Y-35093772D03*
X16668756Y-33932833D03*
X17264069Y-39290650D03*
X24665690Y-30175048D03*
X22573694Y-40529468D03*
X28575016Y-40481276D03*
X25598459Y-34528154D03*
X29170329Y-38100024D03*
X33337520Y-33307833D03*
X38695337Y-32146894D03*
X20373457Y-24275003D03*
X28328391Y-38141971D03*
X13692191Y-38118781D03*
X21574942Y-38140601D03*
X30956268Y-31551581D03*
X27733072Y-50673225D03*
X24705481Y-44350811D03*
X13692191Y-34918769D03*
X19645321Y-38695337D03*
X23812512Y-70246926D03*
X82153186Y-70246926D03*
X21431440Y-34849696D03*
X143827500Y-34766384D03*
X200977500Y-33694547D03*
X222408750Y-33575824D03*
X233521250Y-32583645D03*
X42227528Y-53022536D03*
X58102500Y-52744683D03*
X76200056Y-52387536D03*
X162877500Y-34885205D03*
X181927500Y-34171103D03*
X23803138Y-69065674D03*
X28575016Y-50631284D03*
X124777500Y-35361681D03*
X32742207Y-42267215D03*
X13692191Y-35718772D03*
X105171904Y-36115596D03*
X32741802Y-43068328D03*
X13692191Y-36518775D03*
X31551581Y-43431274D03*
X194072030Y-16668756D03*
X185151711Y-50650032D03*
X13692191Y-37318778D03*
X25598451Y-25598451D03*
X12858750Y-40719404D03*
X34528146Y-32146894D03*
X34528146Y-11906252D03*
X29795330Y-30926580D03*
X30206268Y-34528146D03*
X21431260Y-30956268D03*
X25598451Y-44053154D03*
X33337520Y-50006284D03*
X26193764Y-50006284D03*
X31888054Y-34709932D03*
X25598451Y-29170329D03*
X35877500Y-53736890D03*
X26759390Y-39290650D03*
X23187512Y-32176581D03*
X23812512Y-31551581D03*
X27384390Y-39885963D03*
X185951714Y-50650032D03*
X194913974Y-16710697D03*
D30*
X8413748Y-35560024D02*
X8880000Y-35093772D01*
X28565642Y-34537536D02*
X28575024Y-34528154D01*
X17293757Y-39320338D02*
X17264069Y-39290650D01*
X32339082Y-32742207D02*
X32771894Y-32742207D01*
X19050008Y-11946878D02*
X19050008Y-11030762D01*
X28565642Y-36231276D02*
X28565642Y-37495337D01*
X25915690Y-30175048D02*
X24665690Y-30175048D01*
X20643760Y-39290650D02*
X19943760Y-39290650D01*
X228600184Y-13096878D02*
X227665809Y-13096878D01*
X28565642Y-36231276D02*
X28565642Y-34537536D01*
X28565642Y-36231276D02*
X28565642Y-35728146D01*
X96779760Y-12840627D02*
X38399402Y-12840627D01*
X227409558Y-12840627D02*
X96779760Y-12840627D01*
X38399402Y-12840627D02*
X38099401Y-12540626D01*
X19050008Y-11030762D02*
X18892440Y-10873194D01*
X32771894Y-32742207D02*
X33337520Y-33307833D01*
X27384390Y-30393748D02*
X27165690Y-30175048D01*
X19975000Y-6875000D02*
X21100000Y-6875000D01*
X20643760Y-39290650D02*
X21882578Y-40529468D01*
X27165690Y-30175048D02*
X25915690Y-30175048D01*
X40078151Y-39290650D02*
X40078151Y-38292212D01*
X227665809Y-13096878D02*
X227409558Y-12840627D01*
X27384390Y-32146894D02*
X27384390Y-30393748D01*
X25515642Y-40881276D02*
X28175016Y-40881276D01*
X28565642Y-37495337D02*
X29170329Y-38100024D01*
X8880000Y-35093772D02*
X11906252Y-35093772D01*
X21882578Y-40529468D02*
X22573694Y-40529468D01*
X28175016Y-40881276D02*
X28575016Y-40481276D01*
X20643760Y-39290650D02*
X20614072Y-39320338D01*
X20614072Y-39320338D02*
X17293757Y-39320338D01*
X40078151Y-38292212D02*
X39885963Y-38100024D01*
D31*
X22218760Y-37504711D02*
X22210832Y-37504711D01*
X9584125Y-40640024D02*
X12105368Y-38118781D01*
X24584390Y-37681276D02*
X25515642Y-37681276D01*
X27867696Y-37681276D02*
X28328391Y-38141971D01*
X8413748Y-40640024D02*
X9584125Y-40640024D01*
X22218760Y-33932833D02*
X22218760Y-35718772D01*
X15478112Y-19242172D02*
X15478112Y-19308960D01*
X22218760Y-35718772D02*
X22218760Y-37504711D01*
X26612512Y-37681276D02*
X26965642Y-37681276D01*
X22218760Y-26049609D02*
X22194744Y-26025593D01*
X30764080Y-31743769D02*
X30956268Y-31551581D01*
X29365642Y-34140645D02*
X30764080Y-32742207D01*
X23514855Y-37802368D02*
X24193764Y-38481276D01*
X30764080Y-32742207D02*
X30764080Y-31743769D01*
X22218760Y-33932833D02*
X22218760Y-26049609D01*
X22621886Y-35718772D02*
X24584390Y-37681276D01*
X22218760Y-35718772D02*
X22621886Y-35718772D01*
X22210832Y-37504711D02*
X21574942Y-38140601D01*
X25515642Y-37681276D02*
X26612512Y-37681276D01*
X26965642Y-37681276D02*
X27560955Y-37681276D01*
X22218760Y-37504711D02*
X23217199Y-37504711D01*
X29365642Y-36231276D02*
X29365642Y-34140645D01*
X24193764Y-38481276D02*
X25515642Y-38481276D01*
X26965642Y-37681276D02*
X27867696Y-37681276D01*
X12105368Y-38118781D02*
X13692191Y-38118781D01*
X23217199Y-37504711D02*
X23514855Y-37802368D01*
X15478112Y-19308960D02*
X22194744Y-26025593D01*
D30*
X26965642Y-44731276D02*
X26965642Y-49905795D01*
X20836307Y-37504711D02*
X21431440Y-36909578D01*
X21431440Y-34849696D02*
X21431440Y-36909578D01*
X20643760Y-37504711D02*
X20643760Y-37633894D01*
X20643760Y-37696898D02*
X19645321Y-38695337D01*
X7048749Y-34385023D02*
X13158445Y-34385023D01*
X81896935Y-69990675D02*
X24068763Y-69990675D01*
X24068763Y-69990675D02*
X23812512Y-70246926D01*
X13158445Y-34385023D02*
X13692191Y-34918769D01*
X26965642Y-44731276D02*
X25085947Y-44731276D01*
X25085947Y-44731276D02*
X24705481Y-44350811D01*
X82153186Y-70246926D02*
X81896935Y-69990675D01*
X26965642Y-49905795D02*
X27733072Y-50673225D01*
X20643760Y-37504711D02*
X20643760Y-37696898D01*
X20643760Y-37504711D02*
X20836307Y-37504711D01*
X5873748Y-35560024D02*
X7048749Y-34385023D01*
X133508750Y-61595000D02*
X140652560Y-61595000D01*
X34015642Y-41681276D02*
X39281276Y-41681276D01*
X140652616Y-61595056D02*
X143033694Y-61595056D01*
X143033694Y-61595056D02*
X143033750Y-61595000D01*
X39281276Y-41681276D02*
X46821859Y-34140693D01*
X126365000Y-61595000D02*
X133508750Y-61595000D01*
X46821859Y-34140693D02*
X143201809Y-34140693D01*
X140652560Y-61595000D02*
X140652616Y-61595056D01*
X143201809Y-34140693D02*
X143827500Y-34766384D01*
X36015027Y-38481276D02*
X41705640Y-32790663D01*
X196215000Y-64135000D02*
X200977500Y-64135000D01*
X200073616Y-32790663D02*
X200977500Y-33694547D01*
X34015642Y-38481276D02*
X36015027Y-38481276D01*
X191452444Y-64135056D02*
X191452500Y-64135000D01*
X41705640Y-32790663D02*
X200073616Y-32790663D01*
X184308908Y-64135056D02*
X191452444Y-64135056D01*
X191452500Y-64135000D02*
X196215000Y-64135000D01*
X221173579Y-32340653D02*
X222408750Y-33575824D01*
X41519240Y-32340653D02*
X221173579Y-32340653D01*
X34015642Y-37681276D02*
X36178617Y-37681276D01*
X210502500Y-45085000D02*
X212883750Y-45085000D01*
X210502500Y-64135000D02*
X215265000Y-64135000D01*
X208121428Y-64135056D02*
X210502444Y-64135056D01*
X210502444Y-64135056D02*
X210502500Y-64135000D01*
X212883750Y-45085000D02*
X222408750Y-45085000D01*
X36178617Y-37681276D02*
X41519240Y-32340653D01*
X231933750Y-45085000D02*
X234315000Y-45085000D01*
X232828248Y-31890643D02*
X41332840Y-31890643D01*
X233521250Y-32583645D02*
X232828248Y-31890643D01*
X41332840Y-31890643D02*
X36992207Y-36231276D01*
X36992207Y-36231276D02*
X32565642Y-36231276D01*
X231933750Y-64135000D02*
X229552500Y-64135000D01*
X234315000Y-64135000D02*
X231933750Y-64135000D01*
X29365642Y-44731276D02*
X29365642Y-49505048D01*
X53340048Y-64135056D02*
X55721194Y-64135056D01*
X48577500Y-64135000D02*
X53339992Y-64135000D01*
X32610667Y-52750073D02*
X41955065Y-52750073D01*
X53339992Y-64135000D02*
X53340048Y-64135056D01*
X29365642Y-49505048D02*
X32610667Y-52750073D01*
X55721194Y-64135056D02*
X55721250Y-64135000D01*
X41955065Y-52750073D02*
X42227528Y-53022536D01*
X57657880Y-52300063D02*
X58102500Y-52744683D01*
X72390008Y-64135000D02*
X72390064Y-64135056D01*
X67627500Y-64135000D02*
X72390008Y-64135000D01*
X30165642Y-44731276D02*
X30165642Y-49668638D01*
X32797067Y-52300063D02*
X57657880Y-52300063D01*
X30165642Y-49668638D02*
X32797067Y-52300063D01*
X75662573Y-51850053D02*
X76200056Y-52387536D01*
X30965642Y-49832228D02*
X32983467Y-51850053D01*
X30965642Y-44731276D02*
X30965642Y-49832228D01*
X32983467Y-51850053D02*
X75662573Y-51850053D01*
X161682978Y-33690683D02*
X162877500Y-34885205D01*
X42078440Y-33690683D02*
X161682978Y-33690683D01*
X35687847Y-40081276D02*
X42078440Y-33690683D01*
X34015642Y-40081276D02*
X35687847Y-40081276D01*
X35851437Y-39281276D02*
X41892040Y-33240673D01*
X172402444Y-64135056D02*
X172402500Y-64135000D01*
X34015642Y-39281276D02*
X35851437Y-39281276D01*
X180997070Y-33240673D02*
X181927500Y-34171103D01*
X41892040Y-33240673D02*
X180997070Y-33240673D01*
X162877640Y-64135056D02*
X172402444Y-64135056D01*
X27765642Y-44731276D02*
X27765642Y-49821910D01*
X152995433Y-69065674D02*
X155971998Y-69065674D01*
X83939125Y-69065674D02*
X87511003Y-69065674D01*
X87511003Y-69065674D02*
X110132897Y-69065674D01*
X25598451Y-69065674D02*
X83939125Y-69065674D01*
X110132897Y-69065674D02*
X116086027Y-69065674D01*
X150018868Y-69065674D02*
X152995433Y-69065674D01*
X27765642Y-49821910D02*
X28575016Y-50631284D01*
X155971998Y-69065674D02*
X158948563Y-69065674D01*
X23803138Y-69065674D02*
X25598451Y-69065674D01*
X116086027Y-69065674D02*
X150018868Y-69065674D01*
X22026573Y-69065674D02*
X23803138Y-69065674D01*
X13692191Y-35718772D02*
X10795000Y-35718772D01*
X7048749Y-36925023D02*
X5873748Y-38100024D01*
X47008259Y-34590703D02*
X124006522Y-34590703D01*
X124006522Y-34590703D02*
X124777500Y-35361681D01*
X9588749Y-36925023D02*
X7048749Y-36925023D01*
X39117686Y-42481276D02*
X47008259Y-34590703D01*
X34015642Y-42481276D02*
X32956268Y-42481276D01*
X32956268Y-42481276D02*
X32742207Y-42267215D01*
X10795000Y-35718772D02*
X9588749Y-36925023D01*
X34015642Y-42481276D02*
X39117686Y-42481276D01*
X98583780Y-64135000D02*
X98583836Y-64135056D01*
X11701562Y-36518775D02*
X10120313Y-38100024D01*
X93821250Y-64135000D02*
X98583780Y-64135000D01*
X34015642Y-43281276D02*
X32954750Y-43281276D01*
X13692191Y-36518775D02*
X11701562Y-36518775D01*
X10120313Y-38100024D02*
X8413748Y-38100024D01*
X38954096Y-43281276D02*
X47194659Y-35040713D01*
X32954750Y-43281276D02*
X32741802Y-43068328D01*
X104097021Y-35040713D02*
X105171904Y-36115596D01*
X47194659Y-35040713D02*
X104097021Y-35040713D01*
X34015642Y-43281276D02*
X38954096Y-43281276D01*
X7223122Y-39290650D02*
X5873748Y-40640024D01*
X32125642Y-43431274D02*
X31551581Y-43431274D01*
X240625192Y-17025000D02*
X238483009Y-14882817D01*
X32565642Y-43871274D02*
X32125642Y-43431274D01*
X184851710Y-50950033D02*
X185151711Y-50650032D01*
X32565642Y-44731276D02*
X32565642Y-43871274D01*
X12092185Y-37318778D02*
X10120313Y-39290650D01*
X238483009Y-14882817D02*
X195857969Y-14882817D01*
X32565642Y-44731276D02*
X32565642Y-50159408D01*
X195857969Y-14882817D02*
X194072030Y-16668756D01*
X32565642Y-50159408D02*
X33356267Y-50950033D01*
X10120313Y-39290650D02*
X7223122Y-39290650D01*
X33356267Y-50950033D02*
X184851710Y-50950033D01*
X13692191Y-37318778D02*
X12092185Y-37318778D01*
X26359400Y-5300010D02*
X27012512Y-5953122D01*
X12065000Y-4445000D02*
X12920010Y-5300010D01*
X27012512Y-5953122D02*
X32751581Y-5953122D01*
X12920010Y-5300010D02*
X26359400Y-5300010D01*
X32751581Y-5953122D02*
X36314085Y-9515626D01*
X38090650Y-9515626D02*
X33020024Y-4445000D01*
X39885963Y-9515626D02*
X38090650Y-9515626D01*
X33020024Y-4445000D02*
X31115000Y-4445000D01*
X55364101Y-9515626D02*
X55235626Y-9515626D01*
X55235626Y-9515626D02*
X50165000Y-4445000D01*
X74285626Y-9515626D02*
X69215000Y-4445000D01*
X74414117Y-9515626D02*
X74285626Y-9515626D01*
X93464133Y-9515626D02*
X93335626Y-9515626D01*
X93335626Y-9515626D02*
X88265000Y-4445000D01*
X112385626Y-9515626D02*
X107315000Y-4445000D01*
X112514149Y-9515626D02*
X112385626Y-9515626D01*
X131435626Y-9515626D02*
X126365000Y-4445000D01*
X131564165Y-9515626D02*
X131435626Y-9515626D01*
X150485626Y-9515626D02*
X145415000Y-4445000D01*
X150614181Y-9515626D02*
X150485626Y-9515626D01*
X169664197Y-9515626D02*
X169535626Y-9515626D01*
X169535626Y-9515626D02*
X164465000Y-4445000D01*
X188714213Y-9515626D02*
X188585626Y-9515626D01*
X188585626Y-9515626D02*
X183515000Y-4445000D01*
X207764229Y-9515626D02*
X207635626Y-9515626D01*
X207635626Y-9515626D02*
X202565000Y-4445000D01*
X226814245Y-9515626D02*
X226685626Y-9515626D01*
X226685626Y-9515626D02*
X221615000Y-4445000D01*
X235625192Y-5674808D02*
X234315000Y-6985000D01*
X229790810Y-9515626D02*
X232321436Y-6985000D01*
X232321436Y-6985000D02*
X234315000Y-6985000D01*
X235625192Y-2525000D02*
X235625192Y-5674808D01*
X19516892Y-28565642D02*
X14446250Y-23495000D01*
X19645321Y-28565642D02*
X19516892Y-28565642D01*
X41076589Y-28565642D02*
X40948142Y-28565642D01*
X40948142Y-28565642D02*
X35877500Y-23495000D01*
X60126605Y-28565642D02*
X59998142Y-28565642D01*
X59998142Y-28565642D02*
X54927500Y-23495000D01*
X79048142Y-28565642D02*
X73977500Y-23495000D01*
X79176621Y-28565642D02*
X79048142Y-28565642D01*
X98226637Y-28565642D02*
X98098142Y-28565642D01*
X98098142Y-28565642D02*
X93027500Y-23495000D01*
X117148142Y-28565642D02*
X112077500Y-23495000D01*
X117276653Y-28565642D02*
X117148142Y-28565642D01*
X136326669Y-28565642D02*
X136198142Y-28565642D01*
X136198142Y-28565642D02*
X131127500Y-23495000D01*
X155376685Y-28565642D02*
X155248142Y-28565642D01*
X155248142Y-28565642D02*
X150177500Y-23495000D01*
X174426701Y-28565642D02*
X174298142Y-28565642D01*
X174298142Y-28565642D02*
X169227500Y-23495000D01*
X193348142Y-28565642D02*
X188277500Y-23495000D01*
X193476717Y-28565642D02*
X193348142Y-28565642D01*
X212398142Y-28565642D02*
X207327500Y-23495000D01*
X212526733Y-28565642D02*
X212398142Y-28565642D01*
X225773009Y-26035000D02*
X227171250Y-26035000D01*
X223242367Y-28565642D02*
X225773009Y-26035000D01*
X24279408Y-47615658D02*
X19208750Y-42545000D01*
X24407825Y-47615658D02*
X24279408Y-47615658D01*
X50482532Y-47625032D02*
X45402500Y-42545000D01*
X50601597Y-47625032D02*
X50482532Y-47625032D01*
X69651613Y-47625032D02*
X69532532Y-47625032D01*
X69532532Y-47625032D02*
X64452500Y-42545000D01*
X88582532Y-47625032D02*
X83502500Y-42545000D01*
X88701629Y-47625032D02*
X88582532Y-47625032D01*
X107751645Y-47625032D02*
X107632532Y-47625032D01*
X107632532Y-47625032D02*
X102552500Y-42545000D01*
X126682532Y-47625032D02*
X121602500Y-42545000D01*
X126801661Y-47625032D02*
X126682532Y-47625032D01*
X145732532Y-47625032D02*
X140652500Y-42545000D01*
X145851677Y-47625032D02*
X145732532Y-47625032D01*
X164901693Y-47625032D02*
X164782532Y-47625032D01*
X164782532Y-47625032D02*
X159702500Y-42545000D01*
X183832532Y-47625032D02*
X178752500Y-42545000D01*
X183951709Y-47625032D02*
X183832532Y-47625032D01*
X203001725Y-47615658D02*
X209540384Y-41076999D01*
X236815749Y-41076999D02*
X238283750Y-42545000D01*
X209540384Y-41076999D02*
X236815749Y-41076999D01*
X238283750Y-42545000D02*
X240665000Y-42545000D01*
X22026573Y-66665674D02*
X21898174Y-66665674D01*
X14446316Y-61595000D02*
X14446260Y-61595056D01*
X21898174Y-66665674D02*
X16827500Y-61595000D01*
X16827500Y-61595000D02*
X14446316Y-61595000D01*
X39052444Y-64135056D02*
X39052500Y-64135000D01*
X31908724Y-64135000D02*
X31908780Y-64135056D01*
X28129125Y-64135000D02*
X29527500Y-64135000D01*
X29527500Y-64135000D02*
X31908724Y-64135000D01*
X25598451Y-66665674D02*
X28129125Y-64135000D01*
X31908780Y-64135056D02*
X39052444Y-64135056D01*
X89892255Y-66665674D02*
X89882881Y-66665674D01*
X59689992Y-61595000D02*
X59690048Y-61595056D01*
X83344206Y-60126999D02*
X79771540Y-60126999D01*
X89882881Y-66665674D02*
X83344206Y-60126999D01*
X80972328Y-60126999D02*
X79771540Y-60126999D01*
X63539251Y-60126999D02*
X62071250Y-61595000D01*
X62071194Y-61595056D02*
X62071250Y-61595000D01*
X79771540Y-60126999D02*
X63539251Y-60126999D01*
X59690048Y-61595056D02*
X62071194Y-61595056D01*
X54927500Y-61595000D02*
X59689992Y-61595000D01*
X83810682Y-66665674D02*
X78740064Y-61595056D01*
X78740008Y-61595000D02*
X78740064Y-61595056D01*
X73977500Y-61595000D02*
X78740008Y-61595000D01*
X83939125Y-66665674D02*
X83810682Y-66665674D01*
X169227640Y-61595056D02*
X178752444Y-61595056D01*
X163169181Y-61595056D02*
X169227640Y-61595056D01*
X158948563Y-65815674D02*
X163169181Y-61595056D01*
X158948563Y-66665674D02*
X158948563Y-65815674D01*
X178752444Y-61595056D02*
X178752500Y-61595000D01*
X155971998Y-66665674D02*
X162510673Y-60126999D01*
X190658964Y-61595000D02*
X190658908Y-61595056D01*
X189190851Y-60126999D02*
X190658908Y-61595056D01*
X207327500Y-61595000D02*
X202565000Y-61595000D01*
X162510673Y-60126999D02*
X189190851Y-60126999D01*
X197802500Y-61595000D02*
X190658964Y-61595000D01*
X202565000Y-61595000D02*
X197802500Y-61595000D01*
X221747429Y-59226980D02*
X224115449Y-61595000D01*
X238283750Y-61595000D02*
X240665000Y-61595000D01*
X224115449Y-61595000D02*
X235902500Y-61595000D01*
X157457562Y-59226980D02*
X221747429Y-59226980D01*
X150018868Y-66665674D02*
X157457562Y-59226980D01*
X235902500Y-61595000D02*
X238283750Y-61595000D01*
X216852500Y-42545000D02*
X219233750Y-42545000D01*
X219233750Y-42545000D02*
X228758750Y-42545000D01*
X206573603Y-46765658D02*
X210794261Y-42545000D01*
X210794261Y-42545000D02*
X216852500Y-42545000D01*
X206573603Y-47615658D02*
X206573603Y-46765658D01*
X104933836Y-61595056D02*
X100171306Y-61595056D01*
X110004454Y-66665674D02*
X104933836Y-61595056D01*
X110132897Y-66665674D02*
X110004454Y-66665674D01*
X100171306Y-61595056D02*
X100171250Y-61595000D01*
X134302616Y-64135056D02*
X136683694Y-64135056D01*
X120015000Y-64135000D02*
X127158750Y-64135000D01*
X134302560Y-64135000D02*
X134302616Y-64135056D01*
X116086027Y-66665674D02*
X118616701Y-64135000D01*
X118616701Y-64135000D02*
X120015000Y-64135000D01*
X136683694Y-64135056D02*
X136683750Y-64135000D01*
X127158750Y-64135000D02*
X134302560Y-64135000D01*
X152995433Y-66665674D02*
X159984118Y-59676989D01*
X221615000Y-61595000D02*
X216852500Y-61595000D01*
X159984118Y-59676989D02*
X212553361Y-59676989D01*
X212553361Y-59676989D02*
X214471428Y-61595056D01*
X214471484Y-61595000D02*
X214471428Y-61595056D01*
X216852500Y-61595000D02*
X214471484Y-61595000D01*
X187523587Y-47615658D02*
X190054245Y-45085000D01*
X190054245Y-45085000D02*
X191452500Y-45085000D01*
X25598451Y-25598451D02*
X25598451Y-26596890D01*
X10477444Y-64135056D02*
X10477500Y-64135000D01*
X13096878Y-40481276D02*
X12858750Y-40719404D01*
X20835947Y-40481276D02*
X13096878Y-40481276D01*
X22835947Y-42481276D02*
X20835947Y-40481276D01*
X8096260Y-64135056D02*
X10477444Y-64135056D01*
X25515642Y-42481276D02*
X22835947Y-42481276D01*
X93464133Y-11915626D02*
X112514149Y-11915626D01*
X31740151Y-33932833D02*
X33932833Y-33932833D01*
X30965642Y-34707342D02*
X31740151Y-33932833D01*
X30965642Y-36231276D02*
X30965642Y-34707342D01*
X150614181Y-11915626D02*
X169664197Y-11915626D01*
X39885963Y-11915626D02*
X55364101Y-11915626D01*
X112514149Y-11915626D02*
X131564165Y-11915626D01*
X169664197Y-11915626D02*
X188714213Y-11915626D01*
X33932833Y-33932833D02*
X34528146Y-33337520D01*
X188714213Y-11915626D02*
X207764229Y-11915626D01*
X36304711Y-11906252D02*
X36314085Y-11915626D01*
X226814245Y-11915626D02*
X229790810Y-11915626D01*
X34528146Y-33337520D02*
X34528146Y-32146894D01*
X34528146Y-11906252D02*
X36304711Y-11906252D01*
X38109398Y-11915626D02*
X39885963Y-11915626D01*
X131564165Y-11915626D02*
X150614181Y-11915626D01*
X74414117Y-11915626D02*
X93464133Y-11915626D01*
X207764229Y-11915626D02*
X226814245Y-11915626D01*
X55364101Y-11915626D02*
X74414117Y-11915626D01*
X36314085Y-11915626D02*
X38109398Y-11915626D01*
X41037527Y-30926580D02*
X29795330Y-30926580D01*
X117276653Y-30965642D02*
X136326669Y-30965642D01*
X136326669Y-30965642D02*
X155376685Y-30965642D01*
X155376685Y-30965642D02*
X174426701Y-30965642D01*
X19645321Y-30965642D02*
X21421886Y-30965642D01*
X30165642Y-34568772D02*
X30206268Y-34528146D01*
X193476717Y-30965642D02*
X212526733Y-30965642D01*
X30165642Y-36231276D02*
X30165642Y-34568772D01*
X39290650Y-30956268D02*
X41067215Y-30956268D01*
X98226637Y-30965642D02*
X117276653Y-30965642D01*
X41076589Y-30965642D02*
X60126605Y-30965642D01*
X41067215Y-30956268D02*
X41076589Y-30965642D01*
X174426701Y-30965642D02*
X193476717Y-30965642D01*
X79176621Y-30965642D02*
X98226637Y-30965642D01*
X212526733Y-30965642D02*
X223242367Y-30965642D01*
X41076589Y-30965642D02*
X41037527Y-30926580D01*
X21421886Y-30965642D02*
X21431260Y-30956268D01*
X60126605Y-30965642D02*
X79176621Y-30965642D01*
X24407825Y-50015658D02*
X26184390Y-50015658D01*
X69651613Y-50025032D02*
X88701629Y-50025032D01*
X25515642Y-43281276D02*
X25515642Y-43970345D01*
X187514213Y-50025032D02*
X187523587Y-50015658D01*
X25515642Y-43970345D02*
X25598451Y-44053154D01*
X88701629Y-50025032D02*
X107751645Y-50025032D01*
X39290650Y-50006284D02*
X50582849Y-50006284D01*
X145851677Y-50025032D02*
X164901693Y-50025032D01*
X39290650Y-50006284D02*
X33337520Y-50006284D01*
X187523587Y-50015658D02*
X206573603Y-50015658D01*
X183951709Y-50025032D02*
X187514213Y-50025032D01*
X26184390Y-50015658D02*
X26193764Y-50006284D01*
X164901693Y-50025032D02*
X183951709Y-50025032D01*
X50582849Y-50006284D02*
X50601597Y-50025032D01*
X126801661Y-50025032D02*
X145851677Y-50025032D01*
X50601597Y-50025032D02*
X69651613Y-50025032D01*
X107751645Y-50025032D02*
X126801661Y-50025032D01*
X37504711Y-50006284D02*
X39290650Y-50006284D01*
X17264048Y-17667172D02*
X17264048Y-16668777D01*
X18100008Y-15832817D02*
X17264048Y-16668777D01*
X18100008Y-14246878D02*
X18100008Y-15832817D01*
X19049984Y-17264093D02*
X19049984Y-17667172D01*
X20000008Y-14246878D02*
X20000008Y-16314069D01*
X20000008Y-16314069D02*
X19049984Y-17264093D01*
X31765642Y-36231276D02*
X31765642Y-34832344D01*
X25598451Y-29170329D02*
X25598451Y-28171890D01*
X31765642Y-34832344D02*
X31888054Y-34709932D01*
X19050008Y-13396878D02*
X19050008Y-14246878D01*
X16265635Y-18454695D02*
X15478112Y-17667172D01*
X19050008Y-16073443D02*
X18089049Y-17034402D01*
X17859382Y-13096878D02*
X18750008Y-13096878D01*
X18089049Y-18377173D02*
X18011527Y-18454695D01*
X18750008Y-13096878D02*
X19050008Y-13396878D01*
X17375000Y-6875000D02*
X17375000Y-12612496D01*
X17375000Y-12612496D02*
X17859382Y-13096878D01*
X18011527Y-18454695D02*
X16265635Y-18454695D01*
X18089049Y-17034402D02*
X18089049Y-18377173D01*
X19050008Y-14246878D02*
X19050008Y-16073443D01*
X18675000Y-9304695D02*
X20000008Y-10629703D01*
X18675000Y-6875000D02*
X18675000Y-9304695D01*
X20000008Y-10629703D02*
X20000008Y-11946878D01*
X18025000Y-6875000D02*
X18025000Y-10550008D01*
X18100008Y-10625016D02*
X18100008Y-11946878D01*
X18025000Y-10550008D02*
X18100008Y-10625016D01*
X35340693Y-53200083D02*
X35877500Y-53736890D01*
X28565642Y-44731276D02*
X28565642Y-49341458D01*
X38258724Y-61595000D02*
X38258780Y-61595056D01*
X38258780Y-61595056D02*
X45402444Y-61595056D01*
X28565642Y-49341458D02*
X32424267Y-53200083D01*
X32424267Y-53200083D02*
X35340693Y-53200083D01*
X45402444Y-61595056D02*
X45402500Y-61595000D01*
X35877500Y-61595000D02*
X38258724Y-61595000D01*
X27765642Y-34314085D02*
X27765642Y-36231276D01*
X28334390Y-33745337D02*
X28160185Y-33919543D01*
X28584390Y-33495338D02*
X28160185Y-33919543D01*
X28584390Y-32146894D02*
X28584390Y-33495338D01*
X28160185Y-33919543D02*
X27765642Y-34314085D01*
X26723491Y-33867247D02*
X26965642Y-34109398D01*
X26434390Y-33578146D02*
X26723491Y-33867247D01*
X26184390Y-33328146D02*
X26723491Y-33867247D01*
X26965642Y-34109398D02*
X26965642Y-36231276D01*
X26184390Y-32146894D02*
X26184390Y-33328146D01*
X25515642Y-41681276D02*
X24609386Y-41681276D01*
X24609386Y-41681276D02*
X22218760Y-39290650D01*
X25525016Y-39290650D02*
X25515642Y-39281276D01*
X17264069Y-19242195D02*
X17264069Y-20281731D01*
X23187512Y-29200016D02*
X23187512Y-30360955D01*
X23187512Y-29200016D02*
X23187512Y-32176581D01*
X17264069Y-20281731D02*
X23187512Y-26205174D01*
X23187512Y-29140642D02*
X23187512Y-29200016D01*
X23187512Y-26205174D02*
X23187512Y-29140642D01*
X26759390Y-39290650D02*
X25525016Y-39290650D01*
X23812512Y-28575016D02*
X23812512Y-31551581D01*
X19050008Y-19242195D02*
X19050008Y-21431260D01*
X25515642Y-40081276D02*
X27189077Y-40081276D01*
X19049984Y-19242172D02*
X19049984Y-19645297D01*
X27189077Y-40081276D02*
X27384390Y-39885963D01*
X23812512Y-26193764D02*
X23812512Y-28575016D01*
X23812512Y-28575016D02*
X23812512Y-29765642D01*
X19050008Y-21431260D02*
X23812512Y-26193764D01*
X34015642Y-40881276D02*
X36912523Y-40881276D01*
X36912523Y-40881276D02*
X38503149Y-39290650D01*
X194913974Y-16710697D02*
X196291844Y-15332827D01*
X233933019Y-15332827D02*
X235625192Y-17025000D01*
X185326702Y-51400043D02*
X185951714Y-50775031D01*
X33169867Y-51400043D02*
X185326702Y-51400043D01*
X196291844Y-15332827D02*
X233933019Y-15332827D01*
X185951714Y-50775031D02*
X185951714Y-50650032D01*
X31765642Y-49995818D02*
X33169867Y-51400043D01*
X31765642Y-44731276D02*
X31765642Y-49995818D01*
%TA.AperFunction,Conductor*%
G36*
X32286194Y-37536137D02*
G01*
X32286201Y-37536138D01*
X32290642Y-37536776D01*
X32584142Y-37536776D01*
X32652263Y-37556778D01*
X32698756Y-37610434D01*
X32710142Y-37662776D01*
X32710142Y-37956276D01*
X32715287Y-38028216D01*
X32717188Y-38034691D01*
X32717189Y-38034695D01*
X32721297Y-38048685D01*
X32725118Y-38102112D01*
X32710781Y-38201828D01*
X32710780Y-38201835D01*
X32710142Y-38206276D01*
X32710142Y-38756276D01*
X32710303Y-38758527D01*
X32713004Y-38796289D01*
X32715287Y-38828216D01*
X32717188Y-38834691D01*
X32717189Y-38834695D01*
X32721297Y-38848685D01*
X32725118Y-38902112D01*
X32710781Y-39001828D01*
X32710780Y-39001835D01*
X32710142Y-39006276D01*
X32710142Y-39556276D01*
X32715287Y-39628216D01*
X32717188Y-39634691D01*
X32717189Y-39634695D01*
X32721297Y-39648685D01*
X32725118Y-39702112D01*
X32710781Y-39801828D01*
X32710780Y-39801835D01*
X32710142Y-39806276D01*
X32710142Y-40356276D01*
X32710303Y-40358527D01*
X32713536Y-40403728D01*
X32715287Y-40428216D01*
X32717188Y-40434691D01*
X32717189Y-40434695D01*
X32721297Y-40448685D01*
X32725118Y-40502112D01*
X32710781Y-40601828D01*
X32710780Y-40601835D01*
X32710142Y-40606276D01*
X32710142Y-41156276D01*
X32710303Y-41158527D01*
X32714080Y-41211335D01*
X32715287Y-41228216D01*
X32717188Y-41234691D01*
X32717189Y-41234695D01*
X32721297Y-41248685D01*
X32725118Y-41302111D01*
X32715432Y-41369484D01*
X32685939Y-41434065D01*
X32626214Y-41472450D01*
X32603885Y-41476864D01*
X32569238Y-41480505D01*
X32562570Y-41482775D01*
X32405909Y-41536107D01*
X32405906Y-41536108D01*
X32399242Y-41538377D01*
X32246292Y-41632472D01*
X32241261Y-41637398D01*
X32241258Y-41637401D01*
X32237909Y-41640681D01*
X32117989Y-41758115D01*
X32114170Y-41764040D01*
X32114169Y-41764042D01*
X32095908Y-41792378D01*
X32020711Y-41909061D01*
X32018302Y-41915681D01*
X32018300Y-41915684D01*
X32003526Y-41956276D01*
X31959292Y-42077808D01*
X31936786Y-42255968D01*
X31954309Y-42434688D01*
X31982302Y-42518837D01*
X31984825Y-42589789D01*
X31948588Y-42650841D01*
X31885096Y-42682610D01*
X31820478Y-42677308D01*
X31742163Y-42649422D01*
X31742162Y-42649422D01*
X31735518Y-42647056D01*
X31557204Y-42625794D01*
X31550201Y-42626530D01*
X31550200Y-42626530D01*
X31506391Y-42631134D01*
X31378612Y-42644564D01*
X31371944Y-42646834D01*
X31215283Y-42700166D01*
X31215280Y-42700167D01*
X31208616Y-42702436D01*
X31055666Y-42796531D01*
X31050635Y-42801457D01*
X31050632Y-42801460D01*
X31031949Y-42819756D01*
X30927363Y-42922174D01*
X30923544Y-42928099D01*
X30923543Y-42928101D01*
X30839192Y-43058988D01*
X30830085Y-43073120D01*
X30827676Y-43079740D01*
X30827674Y-43079743D01*
X30810555Y-43126778D01*
X30768666Y-43241867D01*
X30767783Y-43248857D01*
X30758884Y-43319305D01*
X30730502Y-43384382D01*
X30671443Y-43423784D01*
X30642866Y-43429193D01*
X30639174Y-43429457D01*
X30625437Y-43430439D01*
X30625434Y-43430440D01*
X30618702Y-43430921D01*
X30612227Y-43432822D01*
X30612223Y-43432823D01*
X30598233Y-43436931D01*
X30544806Y-43440752D01*
X30445090Y-43426415D01*
X30445083Y-43426414D01*
X30440642Y-43425776D01*
X29890642Y-43425776D01*
X29888391Y-43425937D01*
X29825438Y-43430439D01*
X29825436Y-43430439D01*
X29818702Y-43430921D01*
X29812227Y-43432822D01*
X29812223Y-43432823D01*
X29798233Y-43436931D01*
X29744806Y-43440752D01*
X29645090Y-43426415D01*
X29645083Y-43426414D01*
X29640642Y-43425776D01*
X29090642Y-43425776D01*
X29088391Y-43425937D01*
X29025438Y-43430439D01*
X29025436Y-43430439D01*
X29018702Y-43430921D01*
X29012227Y-43432822D01*
X29012223Y-43432823D01*
X28998233Y-43436931D01*
X28944806Y-43440752D01*
X28845090Y-43426415D01*
X28845083Y-43426414D01*
X28840642Y-43425776D01*
X28290642Y-43425776D01*
X28288391Y-43425937D01*
X28225438Y-43430439D01*
X28225436Y-43430439D01*
X28218702Y-43430921D01*
X28212227Y-43432822D01*
X28212223Y-43432823D01*
X28198233Y-43436931D01*
X28144806Y-43440752D01*
X28045090Y-43426415D01*
X28045083Y-43426414D01*
X28040642Y-43425776D01*
X27490642Y-43425776D01*
X27488391Y-43425937D01*
X27425438Y-43430439D01*
X27425436Y-43430439D01*
X27418702Y-43430921D01*
X27412227Y-43432822D01*
X27412223Y-43432823D01*
X27398233Y-43436931D01*
X27344806Y-43440752D01*
X27245090Y-43426415D01*
X27245083Y-43426414D01*
X27240642Y-43425776D01*
X26947142Y-43425776D01*
X26879021Y-43405774D01*
X26832528Y-43352118D01*
X26821142Y-43299776D01*
X26821142Y-43006276D01*
X26815997Y-42934336D01*
X26809987Y-42913867D01*
X26806166Y-42860440D01*
X26820503Y-42760724D01*
X26820504Y-42760717D01*
X26821142Y-42756276D01*
X26821142Y-42206276D01*
X26815997Y-42134336D01*
X26809987Y-42113867D01*
X26806166Y-42060440D01*
X26820503Y-41960724D01*
X26820504Y-41960717D01*
X26821142Y-41956276D01*
X26821142Y-41406276D01*
X26815997Y-41334336D01*
X26814094Y-41327854D01*
X26812895Y-41321210D01*
X26814303Y-41320956D01*
X26811201Y-41277586D01*
X26828002Y-41160735D01*
X26828549Y-41153076D01*
X26824167Y-41138152D01*
X26822777Y-41136947D01*
X26815094Y-41135276D01*
X26805054Y-41135276D01*
X26736933Y-41115274D01*
X26709971Y-41088312D01*
X26708445Y-41089635D01*
X26702547Y-41082828D01*
X26697673Y-41075244D01*
X26675206Y-41055776D01*
X26595748Y-40986924D01*
X26595745Y-40986922D01*
X26588936Y-40981022D01*
X26589114Y-40980817D01*
X26546226Y-40931322D01*
X26536123Y-40861048D01*
X26565616Y-40796467D01*
X26592719Y-40772982D01*
X26639094Y-40743179D01*
X26639097Y-40743177D01*
X26646674Y-40738307D01*
X26648468Y-40736236D01*
X26710168Y-40708059D01*
X26728100Y-40706776D01*
X27111066Y-40706776D01*
X27122249Y-40707303D01*
X27129742Y-40708978D01*
X27137668Y-40708729D01*
X27137669Y-40708729D01*
X27197842Y-40706838D01*
X27201800Y-40706776D01*
X27228657Y-40706776D01*
X27232573Y-40706281D01*
X27233360Y-40706232D01*
X27244137Y-40705384D01*
X27279789Y-40704263D01*
X27279790Y-40704263D01*
X27287708Y-40704014D01*
X27306798Y-40698468D01*
X27326158Y-40694459D01*
X27345876Y-40691968D01*
X27345985Y-40692834D01*
X27363729Y-40690780D01*
X27367521Y-40691286D01*
X27519871Y-40677421D01*
X27539337Y-40675650D01*
X27546358Y-40675011D01*
X27580090Y-40664051D01*
X27710447Y-40621696D01*
X27710450Y-40621695D01*
X27717146Y-40619519D01*
X27871395Y-40527568D01*
X27956615Y-40446414D01*
X27996335Y-40408589D01*
X27996337Y-40408587D01*
X28001439Y-40403728D01*
X28100815Y-40254155D01*
X28164584Y-40086283D01*
X28182776Y-39956839D01*
X28189025Y-39912377D01*
X28189025Y-39912372D01*
X28189576Y-39908454D01*
X28189890Y-39885963D01*
X28169873Y-39707506D01*
X28110816Y-39537918D01*
X28015655Y-39385628D01*
X27946496Y-39315985D01*
X27894082Y-39263203D01*
X27894078Y-39263200D01*
X27889119Y-39258206D01*
X27850638Y-39233785D01*
X27743452Y-39165762D01*
X27743448Y-39165760D01*
X27737498Y-39161984D01*
X27594270Y-39110983D01*
X27536806Y-39069289D01*
X27517546Y-39033721D01*
X27498799Y-38979888D01*
X27485816Y-38942605D01*
X27390655Y-38790315D01*
X27285169Y-38684090D01*
X27269082Y-38667890D01*
X27269078Y-38667887D01*
X27264119Y-38662893D01*
X27258171Y-38659118D01*
X27254260Y-38655974D01*
X27213703Y-38597702D01*
X27211089Y-38526753D01*
X27247247Y-38465654D01*
X27310698Y-38433803D01*
X27333210Y-38431776D01*
X27497070Y-38431776D01*
X27565191Y-38451778D01*
X27604845Y-38492503D01*
X27690202Y-38633443D01*
X27695093Y-38638508D01*
X27695094Y-38638509D01*
X27720287Y-38664597D01*
X27814946Y-38762619D01*
X27965209Y-38860949D01*
X28133523Y-38923544D01*
X28140504Y-38924475D01*
X28140506Y-38924476D01*
X28304541Y-38946363D01*
X28304545Y-38946363D01*
X28311522Y-38947294D01*
X28318533Y-38946656D01*
X28318537Y-38946656D01*
X28483338Y-38931658D01*
X28490359Y-38931019D01*
X28524091Y-38920059D01*
X28654448Y-38877704D01*
X28654451Y-38877703D01*
X28661147Y-38875527D01*
X28815396Y-38783576D01*
X28936878Y-38667890D01*
X28940336Y-38664597D01*
X28940338Y-38664595D01*
X28945440Y-38659736D01*
X29044816Y-38510163D01*
X29100863Y-38362620D01*
X29106085Y-38348873D01*
X29106086Y-38348871D01*
X29108585Y-38342291D01*
X29110136Y-38331257D01*
X29133026Y-38168385D01*
X29133026Y-38168380D01*
X29133577Y-38164462D01*
X29133891Y-38141971D01*
X29113874Y-37963514D01*
X29111354Y-37956276D01*
X29057135Y-37800583D01*
X29054817Y-37793926D01*
X29014588Y-37729546D01*
X28995452Y-37661177D01*
X29016317Y-37593315D01*
X29070559Y-37547507D01*
X29121442Y-37536776D01*
X29640642Y-37536776D01*
X29649577Y-37536137D01*
X29705846Y-37532113D01*
X29705848Y-37532113D01*
X29712582Y-37531631D01*
X29719057Y-37529730D01*
X29719061Y-37529729D01*
X29733051Y-37525621D01*
X29786478Y-37521800D01*
X29886194Y-37536137D01*
X29886201Y-37536138D01*
X29890642Y-37536776D01*
X30440642Y-37536776D01*
X30449577Y-37536137D01*
X30505846Y-37532113D01*
X30505848Y-37532113D01*
X30512582Y-37531631D01*
X30519057Y-37529730D01*
X30519061Y-37529729D01*
X30533051Y-37525621D01*
X30586478Y-37521800D01*
X30686194Y-37536137D01*
X30686201Y-37536138D01*
X30690642Y-37536776D01*
X31240642Y-37536776D01*
X31249577Y-37536137D01*
X31305846Y-37532113D01*
X31305848Y-37532113D01*
X31312582Y-37531631D01*
X31319057Y-37529730D01*
X31319061Y-37529729D01*
X31333051Y-37525621D01*
X31386478Y-37521800D01*
X31486194Y-37536137D01*
X31486201Y-37536138D01*
X31490642Y-37536776D01*
X32040642Y-37536776D01*
X32049577Y-37536137D01*
X32105846Y-37532113D01*
X32105848Y-37532113D01*
X32112582Y-37531631D01*
X32119057Y-37529730D01*
X32119061Y-37529729D01*
X32133051Y-37525621D01*
X32186478Y-37521800D01*
X32286194Y-37536137D01*
G37*
%TD.AperFunction*%
%TA.AperFunction,Conductor*%
G36*
X22355600Y-40316152D02*
G01*
X22376574Y-40333055D01*
X23684200Y-41640681D01*
X23718226Y-41702993D01*
X23713161Y-41773808D01*
X23670614Y-41830644D01*
X23604094Y-41855455D01*
X23595105Y-41855776D01*
X23147228Y-41855776D01*
X23079107Y-41835774D01*
X23058133Y-41818871D01*
X21750507Y-40511245D01*
X21716481Y-40448933D01*
X21721546Y-40378118D01*
X21764093Y-40321282D01*
X21830613Y-40296471D01*
X21839602Y-40296150D01*
X22287479Y-40296150D01*
X22355600Y-40316152D01*
G37*
%TD.AperFunction*%
%TA.AperFunction,Conductor*%
G36*
X16359676Y-29778760D02*
G01*
X16359934Y-29778141D01*
X16364850Y-29780192D01*
X16364855Y-29780195D01*
X16399947Y-29794838D01*
X16571605Y-29866468D01*
X16576808Y-29867665D01*
X16576813Y-29867666D01*
X16789929Y-29916672D01*
X16789934Y-29916673D01*
X16795132Y-29917868D01*
X16800460Y-29918171D01*
X16800463Y-29918171D01*
X16956139Y-29927011D01*
X17024123Y-29930871D01*
X17029430Y-29930271D01*
X17029432Y-29930271D01*
X17149722Y-29916672D01*
X17252031Y-29905106D01*
X17257152Y-29903623D01*
X17257157Y-29903622D01*
X17467222Y-29842790D01*
X17467221Y-29842790D01*
X17472340Y-29841308D01*
X17509053Y-29823521D01*
X17602493Y-29778250D01*
X17657431Y-29765642D01*
X18529978Y-29765642D01*
X18598099Y-29785644D01*
X18644592Y-29839300D01*
X18654696Y-29909574D01*
X18625202Y-29974154D01*
X18618365Y-29980991D01*
X18614289Y-29983611D01*
X18520067Y-30092348D01*
X18460297Y-30223226D01*
X18459015Y-30232141D01*
X18459015Y-30232142D01*
X18440460Y-30361194D01*
X18440459Y-30361201D01*
X18439821Y-30365642D01*
X18439821Y-31565642D01*
X18439982Y-31567893D01*
X18442895Y-31608619D01*
X18444966Y-31637582D01*
X18446867Y-31644057D01*
X18446868Y-31644061D01*
X18475860Y-31742796D01*
X18485502Y-31775634D01*
X18490374Y-31783215D01*
X18558418Y-31889094D01*
X18558420Y-31889097D01*
X18563290Y-31896674D01*
X18570100Y-31902575D01*
X18589947Y-31919773D01*
X18672027Y-31990896D01*
X18680224Y-31994640D01*
X18680225Y-31994640D01*
X18739073Y-32021515D01*
X18802905Y-32050666D01*
X18811820Y-32051948D01*
X18811821Y-32051948D01*
X18940873Y-32070503D01*
X18940880Y-32070504D01*
X18945321Y-32071142D01*
X20345321Y-32071142D01*
X20354256Y-32070503D01*
X20410525Y-32066479D01*
X20410527Y-32066479D01*
X20417261Y-32065997D01*
X20423736Y-32064096D01*
X20423740Y-32064095D01*
X20546666Y-32028000D01*
X20555313Y-32025461D01*
X20562894Y-32020589D01*
X20668773Y-31952545D01*
X20668776Y-31952543D01*
X20676353Y-31947673D01*
X20770575Y-31838936D01*
X20780801Y-31816545D01*
X20826602Y-31716255D01*
X20826603Y-31716252D01*
X20830345Y-31708058D01*
X20830430Y-31708097D01*
X20866173Y-31652477D01*
X20930753Y-31622982D01*
X21001027Y-31633084D01*
X21017681Y-31642267D01*
X21068078Y-31675246D01*
X21236392Y-31737841D01*
X21243373Y-31738772D01*
X21243375Y-31738773D01*
X21315539Y-31748401D01*
X21358925Y-31754190D01*
X21423801Y-31783025D01*
X21462789Y-31842359D01*
X21468260Y-31879083D01*
X21468260Y-32849577D01*
X21448258Y-32917698D01*
X21394602Y-32964191D01*
X21324328Y-32974295D01*
X21289918Y-32964191D01*
X21246485Y-32944356D01*
X21229372Y-32939331D01*
X21098206Y-32920472D01*
X21089265Y-32919833D01*
X20915875Y-32919833D01*
X20900636Y-32924308D01*
X20899431Y-32925698D01*
X20897760Y-32933381D01*
X20897760Y-34198969D01*
X20877758Y-34267090D01*
X20859918Y-34288992D01*
X20812259Y-34335663D01*
X20807222Y-34340596D01*
X20803403Y-34346521D01*
X20803402Y-34346523D01*
X20770802Y-34397109D01*
X20709944Y-34491542D01*
X20707535Y-34498162D01*
X20707533Y-34498165D01*
X20682722Y-34566333D01*
X20648525Y-34660289D01*
X20647642Y-34667280D01*
X20640767Y-34721702D01*
X20612385Y-34786779D01*
X20553325Y-34826181D01*
X20482339Y-34827398D01*
X20421964Y-34790043D01*
X20391368Y-34725978D01*
X20389760Y-34705911D01*
X20389760Y-34204948D01*
X20385285Y-34189709D01*
X20383895Y-34188504D01*
X20376212Y-34186833D01*
X19698875Y-34186833D01*
X19683636Y-34191308D01*
X19682431Y-34192698D01*
X19680760Y-34200381D01*
X19680760Y-34430576D01*
X19680921Y-34435083D01*
X19685500Y-34499102D01*
X19687886Y-34512324D01*
X19724579Y-34637291D01*
X19731993Y-34653525D01*
X19800092Y-34759490D01*
X19820094Y-34827610D01*
X19800092Y-34895731D01*
X19789319Y-34910122D01*
X19768099Y-34934612D01*
X19758453Y-34949620D01*
X19705283Y-35066047D01*
X19700258Y-35083160D01*
X19681399Y-35214326D01*
X19680760Y-35223267D01*
X19680760Y-35446657D01*
X19685235Y-35461896D01*
X19686625Y-35463101D01*
X19694308Y-35464772D01*
X20371645Y-35464772D01*
X20386884Y-35460297D01*
X20388089Y-35458907D01*
X20389760Y-35451224D01*
X20389760Y-35005159D01*
X20409762Y-34937038D01*
X20463418Y-34890545D01*
X20533692Y-34880441D01*
X20598272Y-34909935D01*
X20636656Y-34969661D01*
X20641159Y-34992864D01*
X20643542Y-35017169D01*
X20700225Y-35187565D01*
X20703874Y-35193590D01*
X20787716Y-35332029D01*
X20805940Y-35397301D01*
X20805940Y-35846772D01*
X20785938Y-35914893D01*
X20732282Y-35961386D01*
X20679940Y-35972772D01*
X19698875Y-35972772D01*
X19683636Y-35977247D01*
X19682431Y-35978637D01*
X19680760Y-35986320D01*
X19680760Y-36216515D01*
X19680921Y-36221022D01*
X19685500Y-36285041D01*
X19687886Y-36298263D01*
X19724579Y-36423230D01*
X19731993Y-36439464D01*
X19804275Y-36551938D01*
X19824277Y-36620058D01*
X19804275Y-36688179D01*
X19793502Y-36702570D01*
X19768506Y-36731417D01*
X19708736Y-36862295D01*
X19707454Y-36871210D01*
X19707454Y-36871211D01*
X19688899Y-37000263D01*
X19688898Y-37000270D01*
X19688260Y-37004711D01*
X19688260Y-37715617D01*
X19668258Y-37783738D01*
X19651355Y-37804712D01*
X19587810Y-37868257D01*
X19525498Y-37902283D01*
X19511887Y-37904472D01*
X19506980Y-37904987D01*
X19479359Y-37907890D01*
X19479354Y-37907891D01*
X19472352Y-37908627D01*
X19465686Y-37910896D01*
X19465683Y-37910897D01*
X19309023Y-37964229D01*
X19309020Y-37964230D01*
X19302356Y-37966499D01*
X19149406Y-38060594D01*
X19144375Y-38065520D01*
X19144372Y-38065523D01*
X19134713Y-38074982D01*
X19021103Y-38186237D01*
X19017284Y-38192162D01*
X19017283Y-38192164D01*
X18933952Y-38321469D01*
X18923825Y-38337183D01*
X18921416Y-38343803D01*
X18921414Y-38343806D01*
X18907407Y-38382290D01*
X18862406Y-38505930D01*
X18839900Y-38684090D01*
X18840587Y-38691097D01*
X18840587Y-38691100D01*
X18849654Y-38783576D01*
X18857423Y-38862810D01*
X18914106Y-39033206D01*
X18917755Y-39039231D01*
X18969133Y-39124065D01*
X19007132Y-39186809D01*
X19131876Y-39315985D01*
X19282139Y-39414315D01*
X19450453Y-39476910D01*
X19457434Y-39477841D01*
X19457436Y-39477842D01*
X19571424Y-39493051D01*
X19636301Y-39521887D01*
X19675289Y-39581220D01*
X19680760Y-39617944D01*
X19680760Y-39729776D01*
X19660758Y-39797897D01*
X19607102Y-39844390D01*
X19554760Y-39855776D01*
X16199443Y-39855776D01*
X16131322Y-39835774D01*
X16084829Y-39782118D01*
X16073443Y-39729776D01*
X16073443Y-33437328D01*
X19680760Y-33437328D01*
X19680760Y-33660718D01*
X19685235Y-33675957D01*
X19686625Y-33677162D01*
X19694308Y-33678833D01*
X20371645Y-33678833D01*
X20386884Y-33674358D01*
X20388089Y-33672968D01*
X20389760Y-33665285D01*
X20389760Y-32937948D01*
X20385285Y-32922709D01*
X20383895Y-32921504D01*
X20376212Y-32919833D01*
X20196017Y-32919833D01*
X20191510Y-32919994D01*
X20127491Y-32924573D01*
X20114269Y-32926959D01*
X19989302Y-32963652D01*
X19973068Y-32971066D01*
X19865400Y-33040259D01*
X19851913Y-33051945D01*
X19768098Y-33148673D01*
X19758453Y-33163681D01*
X19705283Y-33280108D01*
X19700258Y-33297221D01*
X19681399Y-33428387D01*
X19680760Y-33437328D01*
X16073443Y-33437328D01*
X16073443Y-29891642D01*
X16093445Y-29823521D01*
X16147101Y-29777028D01*
X16199443Y-29765642D01*
X16306069Y-29765642D01*
X16359676Y-29778760D01*
G37*
%TD.AperFunction*%
%TA.AperFunction,Conductor*%
G36*
X40399308Y-36358571D02*
G01*
X40456144Y-36401118D01*
X40480955Y-36467638D01*
X40481276Y-36476627D01*
X40481276Y-38151650D01*
X40461274Y-38219771D01*
X40407618Y-38266264D01*
X40355276Y-38277650D01*
X40350265Y-38277650D01*
X40335026Y-38282125D01*
X40333821Y-38283515D01*
X40332150Y-38291198D01*
X40332150Y-39418650D01*
X40312148Y-39486771D01*
X40258492Y-39533264D01*
X40206150Y-39544650D01*
X39950150Y-39544650D01*
X39882029Y-39524648D01*
X39835536Y-39470992D01*
X39824150Y-39418650D01*
X39824150Y-38295765D01*
X39819675Y-38280526D01*
X39818285Y-38279321D01*
X39810602Y-38277650D01*
X39630407Y-38277650D01*
X39625900Y-38277811D01*
X39561881Y-38282390D01*
X39548659Y-38284776D01*
X39423692Y-38321469D01*
X39407459Y-38328882D01*
X39355476Y-38362289D01*
X39287355Y-38382290D01*
X39226843Y-38364522D01*
X39226444Y-38365396D01*
X39220366Y-38362620D01*
X39220364Y-38362620D01*
X39095566Y-38305626D01*
X39086651Y-38304344D01*
X39086650Y-38304344D01*
X38957598Y-38285789D01*
X38957591Y-38285788D01*
X38953150Y-38285150D01*
X38672754Y-38285150D01*
X38604633Y-38265148D01*
X38558140Y-38211492D01*
X38548036Y-38141218D01*
X38577530Y-38076638D01*
X38583659Y-38070055D01*
X39412446Y-37241268D01*
X40266182Y-36387531D01*
X40328493Y-36353507D01*
X40399308Y-36358571D01*
G37*
%TD.AperFunction*%
%TA.AperFunction,Conductor*%
G36*
X25078372Y-29785644D02*
G01*
X25083417Y-29789331D01*
X25085006Y-29790977D01*
X25235269Y-29889307D01*
X25403583Y-29951902D01*
X25410564Y-29952833D01*
X25410566Y-29952834D01*
X25574601Y-29974721D01*
X25574605Y-29974721D01*
X25581582Y-29975652D01*
X25588593Y-29975014D01*
X25588597Y-29975014D01*
X25753398Y-29960016D01*
X25760419Y-29959377D01*
X25818862Y-29940388D01*
X25924508Y-29906062D01*
X25924511Y-29906061D01*
X25931207Y-29903885D01*
X26085456Y-29811934D01*
X26097571Y-29800397D01*
X26160696Y-29767904D01*
X26184463Y-29765642D01*
X27577319Y-29765642D01*
X27630926Y-29778760D01*
X27631184Y-29778141D01*
X27636100Y-29780192D01*
X27636105Y-29780195D01*
X27671197Y-29794838D01*
X27842855Y-29866468D01*
X27848058Y-29867665D01*
X27848063Y-29867666D01*
X28061179Y-29916672D01*
X28061184Y-29916673D01*
X28066382Y-29917868D01*
X28071710Y-29918171D01*
X28071713Y-29918171D01*
X28227389Y-29927011D01*
X28295373Y-29930871D01*
X28300680Y-29930271D01*
X28300682Y-29930271D01*
X28420972Y-29916672D01*
X28523281Y-29905106D01*
X28528402Y-29903623D01*
X28528407Y-29903622D01*
X28738472Y-29842790D01*
X28738471Y-29842790D01*
X28743590Y-29841308D01*
X28780303Y-29823521D01*
X28873743Y-29778250D01*
X28928681Y-29765642D01*
X31069453Y-29765642D01*
X31137574Y-29785644D01*
X31175838Y-29824128D01*
X31315443Y-30044110D01*
X31342116Y-30076352D01*
X31357348Y-30094765D01*
X31385358Y-30160003D01*
X31373651Y-30230028D01*
X31325944Y-30282607D01*
X31260263Y-30301080D01*
X30340221Y-30301080D01*
X30272707Y-30281465D01*
X30266589Y-30277582D01*
X30191656Y-30230028D01*
X30154392Y-30206379D01*
X30154388Y-30206377D01*
X30148438Y-30202601D01*
X29979267Y-30142362D01*
X29800953Y-30121100D01*
X29793950Y-30121836D01*
X29793949Y-30121836D01*
X29750140Y-30126440D01*
X29622361Y-30139870D01*
X29615693Y-30142140D01*
X29459032Y-30195472D01*
X29459029Y-30195473D01*
X29452365Y-30197742D01*
X29299415Y-30291837D01*
X29294384Y-30296763D01*
X29294381Y-30296766D01*
X29291286Y-30299797D01*
X29171112Y-30417480D01*
X29073834Y-30568426D01*
X29071423Y-30575051D01*
X29068916Y-30581939D01*
X29026824Y-30639112D01*
X28960503Y-30664451D01*
X28926934Y-30660978D01*
X28926806Y-30661870D01*
X28788838Y-30642033D01*
X28788831Y-30642032D01*
X28784390Y-30641394D01*
X28384390Y-30641394D01*
X28382139Y-30641555D01*
X28319186Y-30646057D01*
X28319184Y-30646057D01*
X28312450Y-30646539D01*
X28305975Y-30648440D01*
X28305971Y-30648441D01*
X28206282Y-30677713D01*
X28174398Y-30687075D01*
X28166817Y-30691947D01*
X28055508Y-30763481D01*
X27987387Y-30783483D01*
X27919266Y-30763481D01*
X27904875Y-30752708D01*
X27868550Y-30721233D01*
X27853542Y-30711587D01*
X27737115Y-30658417D01*
X27720002Y-30653392D01*
X27602319Y-30636472D01*
X27588363Y-30638478D01*
X27584390Y-30652009D01*
X27584390Y-32220894D01*
X27564388Y-32289015D01*
X27510732Y-32335508D01*
X27458390Y-32346894D01*
X27310390Y-32346894D01*
X27242269Y-32326892D01*
X27195776Y-32273236D01*
X27184390Y-32220894D01*
X27184390Y-30652009D01*
X27180006Y-30637080D01*
X27168605Y-30635023D01*
X27118121Y-30638634D01*
X27104899Y-30641020D01*
X26979932Y-30677713D01*
X26963698Y-30685127D01*
X26848446Y-30759194D01*
X26847299Y-30757408D01*
X26793641Y-30781910D01*
X26723367Y-30771804D01*
X26693201Y-30752416D01*
X26664495Y-30727542D01*
X26657684Y-30721640D01*
X26592666Y-30691947D01*
X26535000Y-30665612D01*
X26526806Y-30661870D01*
X26517891Y-30660588D01*
X26517890Y-30660588D01*
X26388838Y-30642033D01*
X26388831Y-30642032D01*
X26384390Y-30641394D01*
X25984390Y-30641394D01*
X25982139Y-30641555D01*
X25919186Y-30646057D01*
X25919184Y-30646057D01*
X25912450Y-30646539D01*
X25905975Y-30648440D01*
X25905971Y-30648441D01*
X25806282Y-30677713D01*
X25774398Y-30687075D01*
X25766817Y-30691947D01*
X25660938Y-30759991D01*
X25660935Y-30759993D01*
X25653358Y-30764863D01*
X25647457Y-30771673D01*
X25638587Y-30781910D01*
X25559136Y-30873600D01*
X25499366Y-31004478D01*
X25498084Y-31013393D01*
X25498084Y-31013394D01*
X25479529Y-31142446D01*
X25479528Y-31142453D01*
X25478890Y-31146894D01*
X25478890Y-33146894D01*
X25484035Y-33218834D01*
X25485936Y-33225309D01*
X25485937Y-33225313D01*
X25508389Y-33301775D01*
X25524571Y-33356886D01*
X25529444Y-33364468D01*
X25529445Y-33364471D01*
X25546114Y-33390409D01*
X25560145Y-33427215D01*
X25561652Y-33426777D01*
X25567198Y-33445867D01*
X25571207Y-33465227D01*
X25573698Y-33484945D01*
X25576614Y-33492309D01*
X25576615Y-33492314D01*
X25589742Y-33525466D01*
X25593581Y-33536677D01*
X25605745Y-33578547D01*
X25615867Y-33595663D01*
X25624559Y-33613403D01*
X25631879Y-33631892D01*
X25656141Y-33665285D01*
X25657492Y-33667145D01*
X25664011Y-33677069D01*
X25682104Y-33707664D01*
X25682108Y-33707669D01*
X25686140Y-33714487D01*
X25700142Y-33728489D01*
X25712983Y-33743523D01*
X25724775Y-33759753D01*
X25730883Y-33764806D01*
X25758591Y-33787728D01*
X25767371Y-33795718D01*
X26303237Y-34331584D01*
X26337263Y-34393896D01*
X26340142Y-34420679D01*
X26340142Y-35024716D01*
X26320140Y-35092837D01*
X26309366Y-35107229D01*
X26271290Y-35151170D01*
X26271288Y-35151173D01*
X26265388Y-35157982D01*
X26261644Y-35166179D01*
X26261644Y-35166180D01*
X26238611Y-35216616D01*
X26205618Y-35288860D01*
X26204336Y-35297775D01*
X26204336Y-35297776D01*
X26185781Y-35426828D01*
X26185780Y-35426835D01*
X26185142Y-35431276D01*
X26185142Y-36774776D01*
X26165140Y-36842897D01*
X26111484Y-36889390D01*
X26059142Y-36900776D01*
X24917447Y-36900776D01*
X24849326Y-36880774D01*
X24828352Y-36863871D01*
X23206799Y-35242318D01*
X23172773Y-35180006D01*
X23170215Y-35162212D01*
X23169597Y-35153568D01*
X23169597Y-35153565D01*
X23169115Y-35146832D01*
X23157487Y-35107229D01*
X23131118Y-35017427D01*
X23128579Y-35008780D01*
X23053178Y-34891454D01*
X23033176Y-34823333D01*
X23053178Y-34755212D01*
X23063952Y-34740820D01*
X23088112Y-34712938D01*
X23094014Y-34706127D01*
X23153784Y-34575249D01*
X23156416Y-34556941D01*
X23173621Y-34437281D01*
X23173622Y-34437274D01*
X23174260Y-34432833D01*
X23174260Y-33432833D01*
X23169115Y-33360893D01*
X23165400Y-33348239D01*
X23131118Y-33231488D01*
X23128579Y-33222841D01*
X23123706Y-33215259D01*
X23123705Y-33215256D01*
X23096938Y-33173605D01*
X23076936Y-33105484D01*
X23096938Y-33037364D01*
X23150594Y-32990871D01*
X23191515Y-32980005D01*
X23322468Y-32968087D01*
X23342459Y-32966268D01*
X23349480Y-32965629D01*
X23428559Y-32939935D01*
X23513569Y-32912314D01*
X23513572Y-32912313D01*
X23520268Y-32910137D01*
X23674517Y-32818186D01*
X23744796Y-32751260D01*
X23799457Y-32699207D01*
X23799459Y-32699205D01*
X23804561Y-32694346D01*
X23903937Y-32544773D01*
X23961034Y-32394466D01*
X24003922Y-32337889D01*
X24039885Y-32319378D01*
X24138569Y-32287314D01*
X24138572Y-32287313D01*
X24145268Y-32285137D01*
X24299517Y-32193186D01*
X24397591Y-32099791D01*
X24424457Y-32074207D01*
X24424459Y-32074205D01*
X24429561Y-32069346D01*
X24528937Y-31919773D01*
X24584333Y-31773943D01*
X24590206Y-31758483D01*
X24590207Y-31758481D01*
X24592706Y-31751901D01*
X24595606Y-31731265D01*
X24617147Y-31577995D01*
X24617147Y-31577990D01*
X24617698Y-31574072D01*
X24618012Y-31551581D01*
X24597995Y-31373124D01*
X24538938Y-31203536D01*
X24457158Y-31072660D01*
X24438012Y-31005890D01*
X24438012Y-29891642D01*
X24458014Y-29823521D01*
X24511670Y-29777028D01*
X24564012Y-29765642D01*
X25010251Y-29765642D01*
X25078372Y-29785644D01*
G37*
%TD.AperFunction*%
%TA.AperFunction,Conductor*%
G36*
X39111306Y-31556039D02*
G01*
X39203833Y-31579796D01*
X39203842Y-31579797D01*
X39211518Y-31581768D01*
X39765523Y-31581768D01*
X39833644Y-31601770D01*
X39880137Y-31655426D01*
X39886419Y-31672269D01*
X39899335Y-31716255D01*
X39916770Y-31775634D01*
X39921642Y-31783215D01*
X39989686Y-31889094D01*
X39989688Y-31889097D01*
X39994558Y-31896674D01*
X40001368Y-31902575D01*
X40021215Y-31919773D01*
X40103295Y-31990896D01*
X40111493Y-31994640D01*
X40119074Y-31999512D01*
X40117479Y-32001994D01*
X40159862Y-32038720D01*
X40179863Y-32106841D01*
X40159860Y-32174961D01*
X40142958Y-32195934D01*
X36770021Y-35568871D01*
X36707709Y-35602897D01*
X36680926Y-35605776D01*
X33472142Y-35605776D01*
X33404021Y-35585774D01*
X33357528Y-35532118D01*
X33346142Y-35479776D01*
X33346142Y-35431276D01*
X33340997Y-35359336D01*
X33335663Y-35341168D01*
X33303000Y-35229931D01*
X33300461Y-35221284D01*
X33259779Y-35157982D01*
X33227545Y-35107824D01*
X33227543Y-35107821D01*
X33222673Y-35100244D01*
X33113936Y-35006022D01*
X32983058Y-34946252D01*
X32974143Y-34944970D01*
X32974142Y-34944970D01*
X32845090Y-34926415D01*
X32845083Y-34926414D01*
X32840642Y-34925776D01*
X32811013Y-34925776D01*
X32742892Y-34905774D01*
X32696399Y-34852118D01*
X32686239Y-34782241D01*
X32692688Y-34736349D01*
X32693240Y-34732423D01*
X32693554Y-34709932D01*
X32692258Y-34698378D01*
X32704542Y-34628452D01*
X32752681Y-34576268D01*
X32817473Y-34558333D01*
X33854822Y-34558333D01*
X33866005Y-34558860D01*
X33873498Y-34560535D01*
X33881424Y-34560286D01*
X33881425Y-34560286D01*
X33941598Y-34558395D01*
X33945556Y-34558333D01*
X33972413Y-34558333D01*
X33976329Y-34557838D01*
X33977116Y-34557789D01*
X33987893Y-34556941D01*
X34023545Y-34555820D01*
X34023546Y-34555820D01*
X34031464Y-34555571D01*
X34050554Y-34550025D01*
X34069914Y-34546016D01*
X34081767Y-34544519D01*
X34081770Y-34544518D01*
X34089632Y-34543525D01*
X34096996Y-34540609D01*
X34097001Y-34540608D01*
X34118450Y-34532115D01*
X34130160Y-34527479D01*
X34141364Y-34523642D01*
X34183234Y-34511478D01*
X34200350Y-34501356D01*
X34218090Y-34492664D01*
X34236579Y-34485344D01*
X34271834Y-34459730D01*
X34281756Y-34453212D01*
X34312351Y-34435119D01*
X34312356Y-34435115D01*
X34319174Y-34431083D01*
X34333176Y-34417081D01*
X34348210Y-34404240D01*
X34358025Y-34397109D01*
X34358026Y-34397108D01*
X34364440Y-34392448D01*
X34392416Y-34358631D01*
X34400405Y-34349852D01*
X34915273Y-33834984D01*
X34923561Y-33827442D01*
X34930042Y-33823329D01*
X34976687Y-33773657D01*
X34979441Y-33770816D01*
X34998429Y-33751828D01*
X35000860Y-33748693D01*
X35001381Y-33748103D01*
X35008400Y-33739886D01*
X35032806Y-33713896D01*
X35038231Y-33708119D01*
X35047805Y-33690704D01*
X35058656Y-33674184D01*
X35060383Y-33671957D01*
X35070844Y-33658471D01*
X35082346Y-33631892D01*
X35088153Y-33618473D01*
X35093370Y-33607823D01*
X35114370Y-33569623D01*
X35116343Y-33561939D01*
X35119315Y-33550367D01*
X35125716Y-33531670D01*
X35130463Y-33520700D01*
X35130465Y-33520694D01*
X35133611Y-33513423D01*
X35134908Y-33505239D01*
X35140428Y-33470382D01*
X35142836Y-33458758D01*
X35151674Y-33424337D01*
X35151675Y-33424328D01*
X35153646Y-33416652D01*
X35153646Y-33396847D01*
X35155197Y-33377136D01*
X35157095Y-33365153D01*
X35158335Y-33357324D01*
X35154205Y-33313632D01*
X35153646Y-33301775D01*
X35153646Y-32689980D01*
X35174698Y-32620253D01*
X35178715Y-32614207D01*
X35244571Y-32515086D01*
X35308340Y-32347214D01*
X35316519Y-32289015D01*
X35332781Y-32173308D01*
X35332781Y-32173303D01*
X35333332Y-32169385D01*
X35333646Y-32146894D01*
X35313629Y-31968437D01*
X35307510Y-31950864D01*
X35269724Y-31842359D01*
X35254572Y-31798849D01*
X35250303Y-31792017D01*
X35220830Y-31744849D01*
X35201694Y-31676480D01*
X35222560Y-31608619D01*
X35276801Y-31562811D01*
X35327684Y-31552080D01*
X39079971Y-31552080D01*
X39111306Y-31556039D01*
G37*
%TD.AperFunction*%
%TA.AperFunction,Conductor*%
G36*
X33796188Y-31572082D02*
G01*
X33842681Y-31625738D01*
X33852785Y-31696012D01*
X33833980Y-31746332D01*
X33806650Y-31788740D01*
X33804241Y-31795360D01*
X33804239Y-31795363D01*
X33791364Y-31830738D01*
X33745231Y-31957487D01*
X33722725Y-32135647D01*
X33723412Y-32142654D01*
X33723412Y-32142657D01*
X33728636Y-32195934D01*
X33740248Y-32314367D01*
X33796931Y-32484763D01*
X33808837Y-32504422D01*
X33884422Y-32629227D01*
X33902646Y-32694499D01*
X33902646Y-33026239D01*
X33882644Y-33094360D01*
X33865741Y-33115335D01*
X33710646Y-33270429D01*
X33648334Y-33304454D01*
X33621551Y-33307333D01*
X33428081Y-33307333D01*
X33359960Y-33287331D01*
X33313467Y-33233675D01*
X33302081Y-33181333D01*
X33302081Y-33014322D01*
X33297606Y-32999083D01*
X33296216Y-32997878D01*
X33288533Y-32996207D01*
X32211081Y-32996207D01*
X32142960Y-32976205D01*
X32096467Y-32922549D01*
X32085081Y-32870207D01*
X32085081Y-32614207D01*
X32105083Y-32546086D01*
X32158739Y-32499593D01*
X32211081Y-32488207D01*
X33283966Y-32488207D01*
X33299205Y-32483732D01*
X33300410Y-32482342D01*
X33302081Y-32474659D01*
X33302081Y-32244464D01*
X33301920Y-32239957D01*
X33297341Y-32175938D01*
X33294955Y-32162716D01*
X33258262Y-32037749D01*
X33250848Y-32021515D01*
X33181655Y-31913847D01*
X33169969Y-31900360D01*
X33073241Y-31816545D01*
X33058233Y-31806900D01*
X33027125Y-31792694D01*
X32973469Y-31746201D01*
X32953467Y-31678080D01*
X32973469Y-31609959D01*
X33027125Y-31563466D01*
X33079467Y-31552080D01*
X33728067Y-31552080D01*
X33796188Y-31572082D01*
G37*
%TD.AperFunction*%
%TA.AperFunction,Conductor*%
G36*
X15675651Y-5945512D02*
G01*
X15696625Y-5962415D01*
X16520115Y-6785905D01*
X16554141Y-6848217D01*
X16549076Y-6919032D01*
X16520115Y-6964095D01*
X16250000Y-7234210D01*
X15677989Y-7806222D01*
X15671440Y-7818215D01*
X15680432Y-7829975D01*
X15685269Y-7833445D01*
X15695584Y-7839448D01*
X15876692Y-7922940D01*
X15887956Y-7926885D01*
X16081585Y-7974624D01*
X16093403Y-7976369D01*
X16292559Y-7986632D01*
X16304487Y-7986112D01*
X16501991Y-7958530D01*
X16513616Y-7955760D01*
X16582790Y-7932144D01*
X16653720Y-7929064D01*
X16715055Y-7964820D01*
X16747322Y-8028060D01*
X16749500Y-8051386D01*
X16749500Y-11780252D01*
X16729498Y-11848373D01*
X16675842Y-11894866D01*
X16623500Y-11906252D01*
X13818192Y-11906252D01*
X13750071Y-11886250D01*
X13703578Y-11832594D01*
X13692192Y-11780252D01*
X13692192Y-10775634D01*
X13712194Y-10707513D01*
X13765850Y-10661020D01*
X13836124Y-10650916D01*
X13885612Y-10669190D01*
X13978684Y-10728141D01*
X14190355Y-10816468D01*
X14195558Y-10817665D01*
X14195563Y-10817666D01*
X14408679Y-10866672D01*
X14408684Y-10866673D01*
X14413882Y-10867868D01*
X14419210Y-10868171D01*
X14419213Y-10868171D01*
X14574889Y-10877011D01*
X14642873Y-10880871D01*
X14648180Y-10880271D01*
X14648182Y-10880271D01*
X14782360Y-10865102D01*
X14870781Y-10855106D01*
X14875902Y-10853623D01*
X14875907Y-10853622D01*
X15085972Y-10792790D01*
X15085971Y-10792790D01*
X15091090Y-10791308D01*
X15123442Y-10775634D01*
X15292695Y-10693632D01*
X15297500Y-10691304D01*
X15354018Y-10650916D01*
X15479770Y-10561053D01*
X15479774Y-10561049D01*
X15484110Y-10557951D01*
X15645583Y-10395062D01*
X15777302Y-10207296D01*
X15875502Y-10000021D01*
X15937374Y-9779164D01*
X15961150Y-9551039D01*
X15961400Y-9525000D01*
X15942008Y-9296461D01*
X15940670Y-9291306D01*
X15940669Y-9291300D01*
X15885729Y-9079626D01*
X15885728Y-9079622D01*
X15884387Y-9074457D01*
X15790185Y-8865335D01*
X15662094Y-8675075D01*
X15603073Y-8613204D01*
X15507465Y-8512981D01*
X15503778Y-8509116D01*
X15499498Y-8505931D01*
X15499495Y-8505929D01*
X15324041Y-8375389D01*
X15319763Y-8372206D01*
X15115311Y-8268257D01*
X14896267Y-8200242D01*
X14890980Y-8199541D01*
X14890979Y-8199541D01*
X14674179Y-8170806D01*
X14674175Y-8170806D01*
X14668895Y-8170106D01*
X14663565Y-8170306D01*
X14663564Y-8170306D01*
X14554295Y-8174408D01*
X14439696Y-8178710D01*
X14215224Y-8225810D01*
X14001897Y-8310057D01*
X13979714Y-8323518D01*
X13883557Y-8381867D01*
X13814943Y-8400106D01*
X13747361Y-8378354D01*
X13702267Y-8323518D01*
X13692192Y-8274148D01*
X13692191Y-6971817D01*
X15141774Y-6971817D01*
X15142876Y-6983695D01*
X15180075Y-7179630D01*
X15183405Y-7191089D01*
X15256979Y-7376442D01*
X15262421Y-7387079D01*
X15297981Y-7442788D01*
X15308612Y-7452057D01*
X15317971Y-7447818D01*
X15877979Y-6887811D01*
X15885592Y-6873868D01*
X15885461Y-6872034D01*
X15881210Y-6865420D01*
X15320467Y-6304678D01*
X15308092Y-6297921D01*
X15299692Y-6304209D01*
X15265114Y-6357761D01*
X15259618Y-6368364D01*
X15185078Y-6553322D01*
X15181684Y-6564781D01*
X15143460Y-6760510D01*
X15142296Y-6772379D01*
X15141774Y-6971817D01*
X13692191Y-6971817D01*
X13692191Y-6051510D01*
X13712193Y-5983389D01*
X13765849Y-5936896D01*
X13818191Y-5925510D01*
X15607530Y-5925510D01*
X15675651Y-5945512D01*
G37*
%TD.AperFunction*%
%TA.AperFunction,Conductor*%
G36*
X23329942Y-5945512D02*
G01*
X23376435Y-5999168D01*
X23386539Y-6069442D01*
X23369255Y-6117342D01*
X23296176Y-6236597D01*
X23197183Y-6475585D01*
X23136796Y-6727118D01*
X23116500Y-6985000D01*
X23136796Y-7242882D01*
X23137950Y-7247689D01*
X23137951Y-7247695D01*
X23171414Y-7387079D01*
X23197183Y-7494415D01*
X23296176Y-7733403D01*
X23431335Y-7953964D01*
X23440607Y-7964820D01*
X23445079Y-7970056D01*
X23474111Y-8034845D01*
X23463507Y-8105045D01*
X23416632Y-8158368D01*
X23353996Y-8177798D01*
X23329696Y-8178710D01*
X23105224Y-8225810D01*
X22891897Y-8310057D01*
X22695814Y-8429043D01*
X22522582Y-8579365D01*
X22519199Y-8583491D01*
X22519195Y-8583495D01*
X22478194Y-8633500D01*
X22377155Y-8756727D01*
X22263691Y-8956055D01*
X22185433Y-9171652D01*
X22144620Y-9397351D01*
X22142418Y-9626701D01*
X22178891Y-9853143D01*
X22252995Y-10070202D01*
X22362612Y-10271672D01*
X22365916Y-10275863D01*
X22501305Y-10447604D01*
X22501309Y-10447608D01*
X22504608Y-10451793D01*
X22508567Y-10455364D01*
X22508569Y-10455366D01*
X22549885Y-10492632D01*
X22674922Y-10605413D01*
X22868684Y-10728141D01*
X23080355Y-10816468D01*
X23085558Y-10817665D01*
X23085563Y-10817666D01*
X23298679Y-10866672D01*
X23298684Y-10866673D01*
X23303882Y-10867868D01*
X23309210Y-10868171D01*
X23309213Y-10868171D01*
X23464889Y-10877011D01*
X23532873Y-10880871D01*
X23538180Y-10880271D01*
X23538182Y-10880271D01*
X23624753Y-10870484D01*
X23672359Y-10865102D01*
X23742295Y-10877325D01*
X23794521Y-10925418D01*
X23812513Y-10990304D01*
X23812513Y-11780252D01*
X23792511Y-11848373D01*
X23738855Y-11894866D01*
X23686513Y-11906252D01*
X20931508Y-11906252D01*
X20863387Y-11886250D01*
X20816894Y-11832594D01*
X20805508Y-11780252D01*
X20805508Y-11346878D01*
X20800363Y-11274938D01*
X20759827Y-11136886D01*
X20719145Y-11073584D01*
X20686911Y-11023426D01*
X20686909Y-11023423D01*
X20682039Y-11015846D01*
X20668994Y-11004542D01*
X20630611Y-10944816D01*
X20625508Y-10909319D01*
X20625508Y-10707714D01*
X20626035Y-10696531D01*
X20627710Y-10689038D01*
X20625570Y-10620951D01*
X20625508Y-10616994D01*
X20625508Y-10590123D01*
X20625012Y-10586193D01*
X20624958Y-10585339D01*
X20624114Y-10574630D01*
X20623688Y-10561053D01*
X20622745Y-10531071D01*
X20617202Y-10511992D01*
X20613193Y-10492632D01*
X20611695Y-10480776D01*
X20611694Y-10480771D01*
X20610700Y-10472904D01*
X20594650Y-10432368D01*
X20590815Y-10421167D01*
X20578652Y-10379301D01*
X20568531Y-10362188D01*
X20559838Y-10344443D01*
X20552519Y-10325957D01*
X20526901Y-10290696D01*
X20520385Y-10280776D01*
X20502296Y-10250189D01*
X20502294Y-10250187D01*
X20498258Y-10243362D01*
X20484256Y-10229360D01*
X20471415Y-10214326D01*
X20464284Y-10204511D01*
X20464283Y-10204510D01*
X20459623Y-10198096D01*
X20425806Y-10170120D01*
X20417027Y-10162131D01*
X19337405Y-9082509D01*
X19303379Y-9020197D01*
X19300500Y-8993414D01*
X19300500Y-8131500D01*
X19320502Y-8063379D01*
X19374158Y-8016886D01*
X19426500Y-8005500D01*
X19525000Y-8005500D01*
X19533850Y-8004867D01*
X19590202Y-8000837D01*
X19590203Y-8000837D01*
X19596940Y-8000355D01*
X19603422Y-7998452D01*
X19610066Y-7997253D01*
X19610320Y-7998661D01*
X19653690Y-7995559D01*
X19757068Y-8010423D01*
X19771027Y-8008416D01*
X19780104Y-7977502D01*
X19782273Y-7978139D01*
X19795002Y-7934787D01*
X19832881Y-7896909D01*
X19848451Y-7886903D01*
X19856032Y-7882031D01*
X19950254Y-7773294D01*
X19951770Y-7774608D01*
X19996661Y-7735712D01*
X20066935Y-7725610D01*
X20131515Y-7755105D01*
X20169897Y-7814832D01*
X20175000Y-7850327D01*
X20175000Y-7994885D01*
X20179384Y-8009814D01*
X20190785Y-8011871D01*
X20241269Y-8008260D01*
X20254491Y-8005874D01*
X20379458Y-7969181D01*
X20395692Y-7961767D01*
X20510944Y-7887700D01*
X20512938Y-7890802D01*
X20562238Y-7868788D01*
X20631869Y-7879226D01*
X20726692Y-7922940D01*
X20737956Y-7926885D01*
X20931585Y-7974624D01*
X20943403Y-7976369D01*
X21142559Y-7986632D01*
X21154487Y-7986112D01*
X21351991Y-7958530D01*
X21363616Y-7955760D01*
X21552336Y-7891331D01*
X21563225Y-7886414D01*
X21667747Y-7826675D01*
X21677523Y-7816512D01*
X21674399Y-7808609D01*
X20829885Y-6964095D01*
X20795859Y-6901783D01*
X20797694Y-6876132D01*
X21464408Y-6876132D01*
X21464539Y-6877966D01*
X21468790Y-6884580D01*
X22031587Y-7447376D01*
X22043962Y-7454133D01*
X22049852Y-7449724D01*
X22128453Y-7299053D01*
X22132945Y-7287991D01*
X22190084Y-7096929D01*
X22192404Y-7085216D01*
X22212676Y-6883892D01*
X22212984Y-6877916D01*
X22212707Y-6871926D01*
X22193490Y-6670514D01*
X22191231Y-6658780D01*
X22135091Y-6467416D01*
X22130661Y-6456341D01*
X22053021Y-6305593D01*
X22043292Y-6295382D01*
X22036472Y-6297739D01*
X21472021Y-6862189D01*
X21464408Y-6876132D01*
X20797694Y-6876132D01*
X20800924Y-6830968D01*
X20829885Y-6785905D01*
X21100000Y-6515790D01*
X21653374Y-5962415D01*
X21715686Y-5928389D01*
X21742469Y-5925510D01*
X23261821Y-5925510D01*
X23329942Y-5945512D01*
G37*
%TD.AperFunction*%
%TA.AperFunction,Conductor*%
G36*
X18928772Y-10443999D02*
G01*
X18938386Y-10452672D01*
X19267103Y-10781388D01*
X19301128Y-10843701D01*
X19304008Y-10870484D01*
X19304008Y-10993439D01*
X19284006Y-11061560D01*
X19280656Y-11066773D01*
X19274754Y-11073584D01*
X19214984Y-11204462D01*
X19213702Y-11213377D01*
X19213702Y-11213378D01*
X19195147Y-11342430D01*
X19195146Y-11342437D01*
X19194508Y-11346878D01*
X19194508Y-11906252D01*
X18905508Y-11906252D01*
X18905508Y-11346878D01*
X18900363Y-11274938D01*
X18859827Y-11136886D01*
X18816010Y-11068705D01*
X18796008Y-11000585D01*
X18796008Y-10851993D01*
X18791533Y-10836754D01*
X18768995Y-10817224D01*
X18730612Y-10757498D01*
X18725508Y-10722000D01*
X18725508Y-10703027D01*
X18726035Y-10691844D01*
X18727710Y-10684351D01*
X18727234Y-10669190D01*
X18725570Y-10616265D01*
X18725508Y-10612307D01*
X18725508Y-10585436D01*
X18725012Y-10581506D01*
X18724958Y-10580652D01*
X18724114Y-10569942D01*
X18723353Y-10545725D01*
X18741206Y-10477010D01*
X18793375Y-10428855D01*
X18863297Y-10416549D01*
X18928772Y-10443999D01*
G37*
%TD.AperFunction*%
%TA.AperFunction,Conductor*%
G36*
X14775261Y-2495002D02*
G01*
X14821754Y-2548658D01*
X14831858Y-2618932D01*
X14802364Y-2683512D01*
X14742715Y-2721874D01*
X14701433Y-2734024D01*
X14690065Y-2738617D01*
X14525778Y-2824504D01*
X14515517Y-2831218D01*
X14371041Y-2947380D01*
X14362281Y-2955958D01*
X14243119Y-3097970D01*
X14236193Y-3108084D01*
X14146882Y-3270542D01*
X14142054Y-3281806D01*
X14085998Y-3458516D01*
X14083450Y-3470503D01*
X14067393Y-3613661D01*
X14067000Y-3620685D01*
X14067000Y-3802885D01*
X14071475Y-3818124D01*
X14072865Y-3819329D01*
X14080548Y-3821000D01*
X16064885Y-3821000D01*
X16080124Y-3816525D01*
X16081329Y-3815135D01*
X16083000Y-3807452D01*
X16083000Y-3627088D01*
X16082699Y-3620940D01*
X16069309Y-3484374D01*
X16066926Y-3472339D01*
X16013346Y-3294876D01*
X16008671Y-3283534D01*
X15921643Y-3119856D01*
X15914856Y-3109640D01*
X15797690Y-2965981D01*
X15789046Y-2957277D01*
X15646212Y-2839114D01*
X15636041Y-2832254D01*
X15472969Y-2744082D01*
X15461670Y-2739332D01*
X15403629Y-2721365D01*
X15344470Y-2682113D01*
X15315923Y-2617109D01*
X15327052Y-2546990D01*
X15374323Y-2494019D01*
X15440889Y-2475000D01*
X21907140Y-2475000D01*
X21975261Y-2495002D01*
X22021754Y-2548658D01*
X22031858Y-2618932D01*
X22002364Y-2683512D01*
X21942715Y-2721874D01*
X21901433Y-2734024D01*
X21890065Y-2738617D01*
X21725778Y-2824504D01*
X21715517Y-2831218D01*
X21571041Y-2947380D01*
X21562281Y-2955958D01*
X21443119Y-3097970D01*
X21436193Y-3108084D01*
X21346882Y-3270542D01*
X21342054Y-3281806D01*
X21285998Y-3458516D01*
X21283450Y-3470503D01*
X21267393Y-3613661D01*
X21267000Y-3620685D01*
X21267000Y-3802885D01*
X21271475Y-3818124D01*
X21272865Y-3819329D01*
X21280548Y-3821000D01*
X23264885Y-3821000D01*
X23280124Y-3816525D01*
X23281329Y-3815135D01*
X23283000Y-3807452D01*
X23283000Y-3627088D01*
X23282699Y-3620940D01*
X23269309Y-3484374D01*
X23266926Y-3472339D01*
X23213346Y-3294876D01*
X23208671Y-3283534D01*
X23121643Y-3119856D01*
X23114856Y-3109640D01*
X22997690Y-2965981D01*
X22989046Y-2957277D01*
X22846212Y-2839114D01*
X22836041Y-2832254D01*
X22672969Y-2744082D01*
X22661670Y-2739332D01*
X22603629Y-2721365D01*
X22544470Y-2682113D01*
X22515923Y-2617109D01*
X22527052Y-2546990D01*
X22574323Y-2494019D01*
X22640889Y-2475000D01*
X23686512Y-2475000D01*
X23754633Y-2495002D01*
X23801126Y-2548658D01*
X23812512Y-2601000D01*
X23812512Y-4548510D01*
X23792510Y-4616631D01*
X23738854Y-4663124D01*
X23686512Y-4674510D01*
X23408033Y-4674510D01*
X23339912Y-4654508D01*
X23293419Y-4600852D01*
X23283680Y-4539922D01*
X23282411Y-4539851D01*
X23283000Y-4529314D01*
X23283000Y-4347115D01*
X23278525Y-4331876D01*
X23277135Y-4330671D01*
X23269452Y-4329000D01*
X21285115Y-4329000D01*
X21269876Y-4333475D01*
X21268671Y-4334865D01*
X21267000Y-4342548D01*
X21267000Y-4522912D01*
X21267301Y-4529063D01*
X21268002Y-4536216D01*
X21254742Y-4605963D01*
X21205879Y-4657469D01*
X21142603Y-4674510D01*
X16208033Y-4674510D01*
X16139912Y-4654508D01*
X16093419Y-4600852D01*
X16083680Y-4539922D01*
X16082411Y-4539851D01*
X16083000Y-4529314D01*
X16083000Y-4347115D01*
X16078525Y-4331876D01*
X16077135Y-4330671D01*
X16069452Y-4329000D01*
X14085115Y-4329000D01*
X14069876Y-4333475D01*
X14068671Y-4334865D01*
X14067000Y-4342548D01*
X14067000Y-4522912D01*
X14067301Y-4529063D01*
X14068002Y-4536216D01*
X14054742Y-4605963D01*
X14005879Y-4657469D01*
X13942603Y-4674510D01*
X13831744Y-4674510D01*
X13763623Y-4654508D01*
X13717130Y-4600852D01*
X13706132Y-4538625D01*
X13713112Y-4449931D01*
X13713112Y-4449930D01*
X13713500Y-4445000D01*
X13693204Y-4187118D01*
X13693279Y-4187112D01*
X13692191Y-4173287D01*
X13692191Y-2601000D01*
X13712193Y-2532879D01*
X13765849Y-2486386D01*
X13818191Y-2475000D01*
X14707140Y-2475000D01*
X14775261Y-2495002D01*
G37*
%TD.AperFunction*%
M02*
