M48
; DRILL file {KiCad (6.0.1)} date Sun Feb 20 07:15:52 2022
; FORMAT={-:-/ absolute / inch / decimal}
; #@! TF.CreationDate,2022-02-20T07:15:52+01:00
; #@! TF.GenerationSoftware,Kicad,Pcbnew,(6.0.1)
; #@! TF.FileFunction,Plated,1,2,PTH
FMAT,2
INCH
; #@! TA.AperFunction,Plated,PTH,ViaDrill
T1C0.0157
; #@! TA.AperFunction,Plated,PTH,ComponentDrill
T2C0.0197
; #@! TA.AperFunction,Plated,PTH,ComponentDrill
T3C0.0276
; #@! TA.AperFunction,Plated,PTH,ComponentDrill
T4C0.0315
; #@! TA.AperFunction,Plated,PTH,ComponentDrill
T5C0.0335
; #@! TA.AperFunction,Plated,PTH,ComponentDrill
T6C0.0590
; #@! TA.AperFunction,Plated,PTH,ComponentDrill
T7C0.0787
%
G90
G05
T1
X0.1641Y-0.9734
X0.1875Y-1.6766
X0.2578Y-2.2156
X0.2812Y-0.5047
X0.375Y-1.2547
X0.375Y-2.7547
X0.3984Y-0.7156
X0.4688Y-0.9969
X0.5062Y-2.3188
X0.5391Y-0.575
X0.5625Y-2.0047
X0.5859Y-1.4891
X0.6328Y-1.325
X0.6328Y-2.825
X0.6328Y-0.6732
X0.6687Y-1.2545
X0.6741Y-0.9046
X0.7031Y-0.5281
X0.7031Y-0.6732
X0.7031Y-2.7547
X0.7056Y-0.8971
X0.7217Y-0.8701
X0.7266Y-2.2625
X0.7443Y-0.3463
X0.75Y-0.5281
X0.75Y-0.8563
X0.7734Y-0.6732
X0.786Y-0.2037
X0.7972Y-0.5281
X0.8163Y-0.3344
X0.8203Y-2.075
X0.8672Y-1.4422
X0.8906Y-1.6297
X0.8906Y-2.7547
X0.9129Y-0.5996
X0.9141Y-2.5203
X0.9419Y-2.0061
X0.9609Y-0.9734
X0.964Y-0.6447
X0.967Y-0.5455
X0.9821Y-1.1142
X1.0313Y-1.0203
X1.0313Y-1.0906
X1.0547Y-2.8496
X1.1004Y-1.3496
X1.1207Y-2.075
X1.1484Y-2.1922
X1.1545Y-2.7955
X1.1545Y-1.2955
X1.1581Y-1.9909
X1.1658Y-2.0455
X1.1663Y-2.1486
X1.1666Y-2.2179
X1.1666Y-2.2494
X1.1942Y-2.0996
X1.2376Y-2.3018
X1.2891Y-0.575
X1.3359Y-1.5359
X1.4297Y-2.0047
X1.4531Y-0.7391
X1.4766Y-2.825
X1.4766Y-1.325
X1.5295Y-2.0455
X1.5938Y-2.4734
X1.6172Y-1.1375
X1.6629Y-0.5996
X1.6629Y-0.6759
X1.7039Y-2.3164
X1.717Y-0.5455
X1.7578Y-1.3496
X1.8047Y-2.8496
X1.8516Y-2.075
X1.9045Y-2.7955
X1.9045Y-1.2955
X1.9219Y-2.3797
X2.0391Y-0.575
X2.0391Y-0.7625
X2.0625Y-1.5
X2.1797Y-2.0996
X2.2266Y-2.825
X2.2266Y-1.325
X2.2795Y-2.0455
X2.2969Y-0.2469
X2.3203Y-2.4734
X2.4141Y-0.5996
X2.4141Y-0.6794
X2.4141Y-1.1141
X2.467Y-0.5455
X2.4773Y-2.3398
X2.5078Y-1.3496
X2.5313Y-2.8496
X2.6016Y-2.075
X2.6545Y-2.7955
X2.6545Y-1.2955
X2.7188Y-1.5125
X2.7656Y-2.4266
X2.7891Y-0.575
X2.8594Y-0.7625
X2.9063Y-2.0996
X2.9297Y-0.2234
X2.9766Y-2.825
X2.9766Y-1.325
X3.0234Y-2.3477
X3.0295Y-2.0455
X3.0469Y-2.8496
X3.0703Y-2.3797
X3.0938Y-2.4031
X3.1629Y-0.5996
X3.1629Y-0.6796
X3.1641Y-1.6641
X3.1641Y-1.1141
X3.217Y-0.5455
X3.2578Y-1.3496
X3.3516Y-2.075
X3.4045Y-1.2955
X3.4219Y-0.7859
X3.4219Y-2.2391
X3.4922Y-1.5359
X3.5156Y-2.45
X3.5168Y-1.9663
X3.5391Y-0.575
X3.5883Y-0.4711
X3.6328Y-2.0996
X3.6858Y-2.7955
X3.6938Y-2.3703
X3.7266Y-1.325
X3.7266Y-1.5359
X3.75Y-1.0203
X3.7734Y-0.2234
X3.7795Y-2.0455
X3.8203Y-0.8094
X3.8203Y-2.45
X3.8883Y-1.2211
X3.9129Y-0.5996
X3.9129Y-0.6824
X3.9375Y-1.1141
X3.967Y-0.5455
X4.0078Y-2.825
X4.0078Y-1.3496
X4.0313Y-2.45
X4.0781Y-2.8496
X4.1016Y-2.075
X4.1545Y-1.2955
X4.1719Y-2.4734
X4.1719Y-2.7313
X4.2422Y-1.5125
X4.2526Y-2.5589
X4.2656Y-0.8094
X4.2891Y-0.575
X4.3125Y-2.3563
X4.3594Y-2.3838
X4.3594Y-2.6141
X4.3725Y-2.2494
X4.4063Y-2.0996
X4.4274Y-2.5649
X4.439Y-2.1555
X4.4531Y-0.2469
X4.4766Y-1.325
X4.4766Y-2.6609
X4.4801Y-2.3124
X4.4813Y-2.3781
X4.5276Y-2.1457
X4.5295Y-2.0455
X4.5463Y-2.2775
X4.5469Y-2.6609
X4.5577Y-2.2481
X4.58Y-2.6626
X4.6141Y-2.6632
X4.6459Y-2.2341
X4.6477Y-2.6613
X4.6629Y-0.5996
X4.6629Y-0.6854
X4.6641Y-1.6766
X4.679Y-2.6578
X4.6892Y-2.2722
X4.7102Y-2.654
X4.7109Y-1.1141
X4.7109Y-2.7313
X4.717Y-0.5455
X4.7313Y-2.7709
X4.7417Y-2.6542
X4.7578Y-1.3496
X4.8516Y-2.075
X4.8516Y-2.6609
X4.8747Y-2.3971
X4.8758Y-2.5837
X4.8984Y-0.8328
X4.8984Y-2.3563
X4.9045Y-1.2955
X4.9219Y-2.2625
X4.9453Y-1.7938
X4.9618Y-2.2184
X4.9699Y-1.8154
X4.9856Y-2.1978
X4.9902Y-1.8394
X4.9922Y-2.7078
X5.0086Y-2.1732
X5.0159Y-2.5805
X5.0187Y-2.4498
X5.0191Y-1.8187
X5.0391Y-0.575
X5.0404Y-1.8418
X5.0683Y-1.8215
X5.0958Y-1.9711
X5.1155Y-2.1045
X5.1305Y-0.4711
X5.1328Y-2.4031
X5.1563Y-2.6844
X5.1772Y-1.9193
X5.1797Y-2.2391
X5.2266Y-1.325
X5.25Y-0.2
X5.2734Y-0.9734
X5.2795Y-2.0455
X5.3414Y-1.2211
X5.3616Y-1.5415
X5.3733Y-2.7955
X5.4129Y-0.5996
X5.4129Y-0.6765
X5.467Y-0.5455
X5.5078Y-1.3496
X5.5078Y-2.2156
X5.5313Y-2.45
X5.6016Y-2.075
X5.6016Y-1.5828
X5.6016Y-2.2391
X5.6545Y-1.2955
X5.6878Y-2.1143
X5.6939Y-2.5156
X5.6953Y-2.825
X5.6953Y-1.4176
X5.7188Y-0.8563
X5.7422Y-2.7078
X5.7495Y-2.5166
X5.7516Y-2.4839
X5.7604Y-2.3848
X5.7656Y-2.8496
X5.7828Y-2.4794
X5.785Y-2.4104
X5.785Y-2.5672
X5.7891Y-0.575
X5.8125Y-1.5377
X5.8125Y-2.0481
X5.8125Y-2.7477
X5.8141Y-1.5709
X5.8146Y-1.6052
X5.8466Y-1.608
X5.8594Y-2.5906
X5.8626Y-1.6351
X5.8828Y-1.8875
X5.8951Y-2.4736
X5.9063Y-2.2391
X5.9297Y-2.7078
X5.9633Y-2.4094
X5.9766Y-1.325
X5.9766Y-2.1219
X5.9781Y-2.3514
X6.0234Y-0.2234
X6.0234Y-2.1922
X6.0295Y-2.0455
X6.0703Y-0.8797
X6.0937Y-2.7891
X6.1303Y-1.5228
X6.1406Y-2.25
X6.1406Y-1.7
X6.1485Y-2.6921
X6.1629Y-0.5996
X6.2049Y-1.3545
X6.217Y-0.5455
X6.2578Y-2.2969
X6.3047Y-2.6073
X6.3063Y-2.6404
X6.3287Y-2.6626
X6.3504Y-2.1732
X6.3516Y-2.075
X6.375Y-2.3563
X6.3962Y-2.4312
X6.3984Y-1.7234
X6.3996Y-2.3356
X6.4045Y-1.2955
X6.4219Y-0.8328
X6.4242Y-2.3564
X6.4492Y-2.3373
X6.4693Y-2.5552
X6.4738Y-2.3585
X6.4947Y-2.0455
X6.4983Y-2.3384
X6.5096Y-2.1486
X6.5108Y-2.075
X6.5229Y-2.3587
X6.5391Y-0.575
X6.5391Y-2.7781
X6.5475Y-2.338
X6.5723Y-2.3586
X6.6033Y-0.5455
X6.6295Y-0.6486
X6.6561Y-0.575
X6.6797Y-2.2156
X6.7148Y-2.8602
X6.7254Y-2.0996
X6.7266Y-1.325
X6.75Y-2.7781
X6.75Y-0.1766
X6.75Y-0.9969
X6.7678Y-2.8662
X6.7795Y-2.0455
X6.7795Y-2.7955
X6.8132Y-1.3986
X6.8203Y-1.5359
X6.8845Y-1.2955
X6.8906Y-0.5996
X6.8906Y-2.45
X6.8941Y-1.509
X6.9041Y-1.325
X6.967Y-0.5455
X6.9968Y-2.2962
X7.0002Y-2.2421
X7.0078Y-1.3496
X7.0239Y-2.3208
X7.0242Y-2.2716
X7.0298Y-2.1978
X7.0494Y-2.2224
X7.0547Y-2.1732
X7.1016Y-2.075
X7.1016Y-2.825
X7.1404Y-0.7866
X7.1484Y-1.6297
X7.1545Y-1.2955
X7.167Y-0.7689
X7.194Y-0.7512
X7.2188Y-0.8797
X7.2234Y-0.7337
X7.251Y-0.7155
X7.2656Y-2.45
X7.2777Y-0.6978
X7.2891Y-0.575
X7.2998Y-0.6732
X7.3125Y-2.6609
X7.3828Y-1.7938
X7.4063Y-2.8496
X7.4297Y-2.0996
X7.4766Y-1.325
X7.4766Y-0.2234
X7.5Y-1.0203
X7.5295Y-2.0455
X7.5295Y-2.7955
X7.5992Y-1.5071
X7.6172Y-2.2625
X7.6629Y-0.5996
X7.6641Y-1.4891
X7.717Y-0.5455
X7.7578Y-1.3496
X7.8516Y-2.075
X7.8516Y-2.825
X7.8516Y-0.7156
X7.9045Y-1.2955
X8.0391Y-0.575
X8.1094Y-2.2391
X8.1328Y-1.7
X8.1797Y-1.5594
X8.1797Y-2.8496
X8.1845Y-2.1045
X8.2031Y-0.7391
X8.2266Y-1.325
X8.2734Y-0.2
X8.2795Y-2.7955
X8.3192Y-0.6219
X8.3264Y-2.0455
X8.3438Y-1.3496
X8.3438Y-1.4925
X8.3812Y-1.4797
X8.467Y-0.5455
X8.5313Y-2.2625
X8.6016Y-2.825
X8.6484Y-2.075
X8.6719Y-2.8496
X8.7422Y-1.6063
X8.7656Y-0.7391
X8.7774Y-2.1102
X8.7891Y-0.575
X8.8359Y-1.4704
X8.8677Y-1.4807
X8.8872Y-2.1291
X8.9063Y-0.5996
X8.9297Y-1.6766
X8.9297Y-2.6141
X9.0Y-0.3172
X9.0469Y-0.8563
X9.1702Y-2.0455
X9.1875Y-2.2625
X9.2148Y-1.4148
X9.2578Y-1.3484
X9.2578Y-1.3941
X9.4688Y-2.8484
X9.5156Y-1.4891
X9.5391Y-0.5984
X9.5391Y-0.9031
X9.5391Y-2.0984
X9.5859Y-2.7078
T3
X0.6398Y-0.2707
X0.8307Y-0.2707
T4
X3.4219Y-2.5856
X3.4219Y-2.6644
T5
X3.1609Y-2.4203
X3.1609Y-2.5203
X3.1609Y-2.6203
X3.2609Y-2.4203
X3.2609Y-2.5203
X3.2609Y-2.6203
T6
X0.225Y-0.275
X0.3187Y-1.025
X0.3188Y-2.525
X0.475Y-0.175
X0.5062Y-1.775
X0.5687Y-0.925
X0.5688Y-2.425
X0.7562Y-1.675
X0.975Y-0.275
X1.1625Y-1.025
X1.1625Y-2.525
X1.225Y-0.175
X1.4125Y-0.925
X1.4125Y-2.425
X1.5375Y-1.775
X1.725Y-0.275
X1.7875Y-1.675
X1.9125Y-1.025
X1.9125Y-2.525
X1.975Y-0.175
X2.1625Y-0.925
X2.1625Y-2.425
X2.2875Y-1.775
X2.475Y-0.275
X2.5375Y-1.675
X2.6625Y-1.025
X2.6625Y-2.525
X2.725Y-0.175
X2.9125Y-0.925
X2.9125Y-2.425
X3.0375Y-1.775
X3.225Y-0.275
X3.2875Y-1.675
X3.4125Y-1.025
X3.475Y-0.175
X3.6625Y-0.925
X3.6938Y-2.525
X3.7875Y-1.775
X3.9438Y-2.425
X3.975Y-0.275
X4.0375Y-1.675
X4.1625Y-1.025
X4.225Y-0.175
X4.4125Y-0.925
X4.5375Y-1.775
X4.725Y-0.275
X4.7875Y-1.675
X4.9125Y-1.025
X4.975Y-0.175
X5.1625Y-0.925
X5.2875Y-1.775
X5.3812Y-2.525
X5.475Y-0.275
X5.5375Y-1.675
X5.6312Y-2.425
X5.6625Y-1.025
X5.725Y-0.175
X5.9125Y-0.925
X6.0375Y-1.775
X6.225Y-0.275
X6.2875Y-1.675
X6.4125Y-1.025
X6.475Y-0.175
X6.6625Y-0.925
X6.7875Y-1.775
X6.7875Y-2.525
X6.975Y-0.275
X7.0375Y-1.675
X7.0375Y-2.425
X7.1625Y-1.025
X7.225Y-0.175
X7.4125Y-0.925
X7.5375Y-1.775
X7.5375Y-2.525
X7.725Y-0.275
X7.7875Y-1.675
X7.7875Y-2.425
X7.9125Y-1.025
X7.975Y-0.175
X8.1625Y-0.925
X8.2875Y-2.525
X8.2875Y-1.775
X8.3812Y-1.775
X8.475Y-0.275
X8.5375Y-2.425
X8.5375Y-1.675
X8.6312Y-1.675
X8.725Y-0.175
X8.9437Y-1.025
X9.1312Y-2.525
X9.1313Y-1.775
X9.1937Y-0.925
X9.225Y-0.275
X9.225Y-1.775
X9.3812Y-2.425
X9.3813Y-1.675
X9.475Y-0.175
X9.475Y-1.675
T7
X1.497Y-0.1978
T2
G00X0.5935Y-0.1762
M15
G01X0.5935Y-0.1447
M16
G05
G00X0.877Y-0.1762
M15
G01X0.877Y-0.1447
M16
G05
T0
M30
