%TF.GenerationSoftware,KiCad,Pcbnew,(6.0.1)*%
%TF.CreationDate,2022-02-20T07:15:50+01:00*%
%TF.ProjectId,atom47-rev5,61746f6d-3437-42d7-9265-76352e6b6963,rev?*%
%TF.SameCoordinates,Original*%
%TF.FileFunction,Paste,Bot*%
%TF.FilePolarity,Positive*%
%FSLAX46Y46*%
G04 Gerber Fmt 4.6, Leading zero omitted, Abs format (unit mm)*
G04 Created by KiCad (PCBNEW (6.0.1)) date 2022-02-20 07:15:50*
%MOMM*%
%LPD*%
G01*
G04 APERTURE LIST*
G04 Aperture macros list*
%AMRoundRect*
0 Rectangle with rounded corners*
0 $1 Rounding radius*
0 $2 $3 $4 $5 $6 $7 $8 $9 X,Y pos of 4 corners*
0 Add a 4 corners polygon primitive as box body*
4,1,4,$2,$3,$4,$5,$6,$7,$8,$9,$2,$3,0*
0 Add four circle primitives for the rounded corners*
1,1,$1+$1,$2,$3*
1,1,$1+$1,$4,$5*
1,1,$1+$1,$6,$7*
1,1,$1+$1,$8,$9*
0 Add four rect primitives between the rounded corners*
20,1,$1+$1,$2,$3,$4,$5,0*
20,1,$1+$1,$4,$5,$6,$7,0*
20,1,$1+$1,$6,$7,$8,$9,0*
20,1,$1+$1,$8,$9,$2,$3,0*%
G04 Aperture macros list end*
%ADD10R,0.700000X1.000000*%
%ADD11R,1.800000X0.900000*%
%ADD12R,0.400000X1.250000*%
%ADD13R,0.600000X1.200000*%
%ADD14R,2.000000X0.400000*%
%ADD15R,1.000000X0.900000*%
%ADD16RoundRect,0.250000X0.315000X0.315000X-0.315000X0.315000X-0.315000X-0.315000X0.315000X-0.315000X0*%
%ADD17RoundRect,0.050000X0.375000X0.050000X-0.375000X0.050000X-0.375000X-0.050000X0.375000X-0.050000X0*%
%ADD18RoundRect,0.050000X0.050000X0.375000X-0.050000X0.375000X-0.050000X-0.375000X0.050000X-0.375000X0*%
%ADD19R,0.900000X1.000000*%
%ADD20RoundRect,0.062500X-0.475000X0.062500X-0.475000X-0.062500X0.475000X-0.062500X0.475000X0.062500X0*%
%ADD21RoundRect,0.062500X-0.062500X0.475000X-0.062500X-0.475000X0.062500X-0.475000X0.062500X0.475000X0*%
%ADD22RoundRect,0.250000X-0.275000X0.275000X-0.275000X-0.275000X0.275000X-0.275000X0.275000X0.275000X0*%
%ADD23R,1.300000X1.200000*%
%ADD24RoundRect,0.250000X0.450000X0.425000X-0.450000X0.425000X-0.450000X-0.425000X0.450000X-0.425000X0*%
G04 APERTURE END LIST*
D10*
X217289245Y-69115674D03*
X217289245Y-66615674D03*
X232767383Y-69115674D03*
X232767383Y-66615674D03*
X100607897Y-69115674D03*
X100607897Y-66615674D03*
X179189213Y-69115674D03*
X179189213Y-66615674D03*
X74414125Y-69115674D03*
X74414125Y-66615674D03*
X198239229Y-69115674D03*
X198239229Y-66615674D03*
X143470433Y-69115674D03*
X143470433Y-66615674D03*
X160139197Y-50065658D03*
X160139197Y-47565658D03*
X36314093Y-69115674D03*
X36314093Y-66615674D03*
X14882825Y-69115674D03*
X14882825Y-66615674D03*
X141089181Y-50065658D03*
X141089181Y-47565658D03*
X228599992Y-50065658D03*
X228599992Y-47565658D03*
X223837688Y-50065658D03*
X223837688Y-47565658D03*
X198239229Y-50065658D03*
X198239229Y-47565658D03*
X179189213Y-50065658D03*
X179189213Y-47565658D03*
X122039165Y-50065658D03*
X122039165Y-47565658D03*
X83939133Y-50065658D03*
X83939133Y-47565658D03*
X64889117Y-50065658D03*
X64889117Y-47565658D03*
X69651621Y-11965626D03*
X69651621Y-9465626D03*
X228004879Y-31015642D03*
X228004879Y-28515642D03*
X188714221Y-31015642D03*
X188714221Y-28515642D03*
X12501565Y-11965618D03*
X12501565Y-9465618D03*
X169664205Y-31015642D03*
X169664205Y-28515642D03*
X203001733Y-11965626D03*
X203001733Y-9465626D03*
X150614189Y-31015642D03*
X150614189Y-28515642D03*
X131564173Y-31015642D03*
X131564173Y-28515642D03*
X145851685Y-11965626D03*
X145851685Y-9465626D03*
X88701637Y-11965626D03*
X88701637Y-9465626D03*
X55364109Y-31015642D03*
X55364109Y-28515642D03*
X36314093Y-31015642D03*
X36314093Y-28515642D03*
X126801669Y-11965626D03*
X126801669Y-9465626D03*
X93464141Y-31015642D03*
X93464141Y-28515642D03*
X235148635Y-11965626D03*
X235148635Y-9465626D03*
X74414125Y-31015642D03*
X74414125Y-28515642D03*
X164901701Y-11965626D03*
X164901701Y-9465626D03*
X50601605Y-11965626D03*
X50601605Y-9465626D03*
X55364109Y-69115674D03*
X55364109Y-66615674D03*
X183951717Y-11965626D03*
X183951717Y-9465626D03*
X207764237Y-31015642D03*
X207764237Y-28515642D03*
X112514157Y-31015642D03*
X112514157Y-28515642D03*
X14882825Y-31015642D03*
X14882825Y-28515642D03*
X107751653Y-11965626D03*
X107751653Y-9465626D03*
X222051749Y-11965626D03*
X222051749Y-9465626D03*
X102989149Y-50065658D03*
X102989149Y-47565658D03*
X19645329Y-50065658D03*
X19645329Y-47565658D03*
X45839101Y-50065658D03*
X45839101Y-47565658D03*
X31551589Y-11965626D03*
X31551589Y-9465626D03*
D11*
X137893750Y-71005000D03*
X137893750Y-72505000D03*
X143093750Y-71005000D03*
X143093750Y-72505000D03*
X83125000Y-13855000D03*
X83125000Y-15355000D03*
X88325000Y-13855000D03*
X88325000Y-15355000D03*
X87887500Y-32905000D03*
X87887500Y-34405000D03*
X93087500Y-32905000D03*
X93087500Y-34405000D03*
X183137500Y-32905000D03*
X183137500Y-34405000D03*
X188337500Y-32905000D03*
X188337500Y-34405000D03*
X9306250Y-32905000D03*
X9306250Y-34405000D03*
X14506250Y-32905000D03*
X14506250Y-34405000D03*
X116462500Y-51955000D03*
X116462500Y-53455000D03*
X121662500Y-51955000D03*
X121662500Y-53455000D03*
X211712500Y-71005000D03*
X211712500Y-72505000D03*
X216912500Y-71005000D03*
X216912500Y-72505000D03*
X97412500Y-51955000D03*
X97412500Y-53455000D03*
X102612500Y-51955000D03*
X102612500Y-53455000D03*
X14068750Y-51955000D03*
X14068750Y-53455000D03*
X19268750Y-51955000D03*
X19268750Y-53455000D03*
X40262500Y-51955000D03*
X40262500Y-53455000D03*
X45462500Y-51955000D03*
X45462500Y-53455000D03*
X234334392Y-51955000D03*
X234334392Y-53455000D03*
X239534392Y-51955000D03*
X239534392Y-53455000D03*
X49787500Y-32905000D03*
X49787500Y-34405000D03*
X54987500Y-32905000D03*
X54987500Y-34405000D03*
X233143750Y-71005000D03*
X233143750Y-72505000D03*
X238343750Y-71005000D03*
X238343750Y-72505000D03*
X145037500Y-32905000D03*
X145037500Y-34405000D03*
X150237500Y-32905000D03*
X150237500Y-34405000D03*
X154562500Y-51955000D03*
X154562500Y-53455000D03*
X159762500Y-51955000D03*
X159762500Y-53455000D03*
X78362500Y-51955000D03*
X78362500Y-53455000D03*
X83562500Y-51955000D03*
X83562500Y-53455000D03*
X192662500Y-71005000D03*
X192662500Y-72505000D03*
X197862500Y-71005000D03*
X197862500Y-72505000D03*
X30737500Y-71005000D03*
X30737500Y-72505000D03*
X35937500Y-71005000D03*
X35937500Y-72505000D03*
X68837500Y-32905000D03*
X68837500Y-34405000D03*
X74037500Y-32905000D03*
X74037500Y-34405000D03*
X173612500Y-51955000D03*
X173612500Y-53455000D03*
X178812500Y-51955000D03*
X178812500Y-53455000D03*
X125987500Y-32905000D03*
X125987500Y-34405000D03*
X131187500Y-32905000D03*
X131187500Y-34405000D03*
X235525000Y-13855000D03*
X235525000Y-15355000D03*
X240725000Y-13855000D03*
X240725000Y-15355000D03*
X106937500Y-32905000D03*
X106937500Y-34405000D03*
X112137500Y-32905000D03*
X112137500Y-34405000D03*
X228381250Y-32905000D03*
X228381250Y-34405000D03*
X233581250Y-32905000D03*
X233581250Y-34405000D03*
X216475000Y-13855000D03*
X216475000Y-15355000D03*
X221675000Y-13855000D03*
X221675000Y-15355000D03*
X135512500Y-51955000D03*
X135512500Y-53455000D03*
X140712500Y-51955000D03*
X140712500Y-53455000D03*
X173612500Y-71005000D03*
X173612500Y-72505000D03*
X178812500Y-71005000D03*
X178812500Y-72505000D03*
X212903124Y-51955000D03*
X212903124Y-53455000D03*
X218103124Y-51955000D03*
X218103124Y-53455000D03*
X102175000Y-13855000D03*
X102175000Y-15355000D03*
X107375000Y-13855000D03*
X107375000Y-15355000D03*
X197425000Y-13855000D03*
X197425000Y-15355000D03*
X202625000Y-13855000D03*
X202625000Y-15355000D03*
X159325000Y-13855000D03*
X159325000Y-15355000D03*
X164525000Y-13855000D03*
X164525000Y-15355000D03*
X45025000Y-13855000D03*
X45025000Y-15355000D03*
X50225000Y-13855000D03*
X50225000Y-15355000D03*
X192662500Y-51955000D03*
X192662500Y-53455000D03*
X197862500Y-51955000D03*
X197862500Y-53455000D03*
X25975000Y-13855000D03*
X25975000Y-15355000D03*
X31175000Y-13855000D03*
X31175000Y-15355000D03*
X164087500Y-32905000D03*
X164087500Y-34405000D03*
X169287500Y-32905000D03*
X169287500Y-34405000D03*
X202187500Y-32905000D03*
X202187500Y-34405000D03*
X207387500Y-32905000D03*
X207387500Y-34405000D03*
X59312500Y-51955000D03*
X59312500Y-53455000D03*
X64512500Y-51955000D03*
X64512500Y-53455000D03*
X9306250Y-71005000D03*
X9306250Y-72505000D03*
X14506250Y-71005000D03*
X14506250Y-72505000D03*
X178375000Y-13855000D03*
X178375000Y-15355000D03*
X183575000Y-13855000D03*
X183575000Y-15355000D03*
X64075000Y-13855000D03*
X64075000Y-15355000D03*
X69275000Y-13855000D03*
X69275000Y-15355000D03*
X68837500Y-71005000D03*
X68837500Y-72505000D03*
X74037500Y-71005000D03*
X74037500Y-72505000D03*
X49787500Y-71005000D03*
X49787500Y-72505000D03*
X54987500Y-71005000D03*
X54987500Y-72505000D03*
X95031250Y-71005000D03*
X95031250Y-72505000D03*
X100231250Y-71005000D03*
X100231250Y-72505000D03*
X121225000Y-13855000D03*
X121225000Y-15355000D03*
X126425000Y-13855000D03*
X126425000Y-15355000D03*
X30737500Y-32905000D03*
X30737500Y-34405000D03*
X35937500Y-32905000D03*
X35937500Y-34405000D03*
X6925000Y-13855000D03*
X6925000Y-15355000D03*
X12125000Y-13855000D03*
X12125000Y-15355000D03*
X19225000Y-25850000D03*
X19225000Y-27350000D03*
X24425000Y-25850000D03*
X24425000Y-27350000D03*
X140275000Y-13855000D03*
X140275000Y-15355000D03*
X145475000Y-13855000D03*
X145475000Y-15355000D03*
D12*
X17375000Y-6875000D03*
X18025000Y-6875000D03*
X18675000Y-6875000D03*
X19325000Y-6875000D03*
X19975000Y-6875000D03*
D13*
X18100008Y-9883122D03*
X19050008Y-9883122D03*
X20000008Y-9883122D03*
X20000008Y-12183122D03*
X19050008Y-12183122D03*
X18100008Y-12183122D03*
D14*
X125611035Y-63430040D03*
X125611035Y-61030040D03*
X125611035Y-62230040D03*
D15*
X16073443Y-19559691D03*
X16073443Y-17984691D03*
X19645321Y-17984691D03*
X19645321Y-19559691D03*
D16*
X155971998Y-62825353D03*
X157371998Y-61425353D03*
X154571998Y-64225353D03*
X155971998Y-61425353D03*
X154571998Y-62825353D03*
X157371998Y-64225353D03*
X154571998Y-61425353D03*
X157371998Y-62825353D03*
X155971998Y-64225353D03*
D17*
X158921998Y-60625353D03*
X158921998Y-61025353D03*
X158921998Y-61425353D03*
X158921998Y-61825353D03*
X158921998Y-62225353D03*
X158921998Y-62625353D03*
X158921998Y-63025353D03*
X158921998Y-63425353D03*
X158921998Y-63825353D03*
X158921998Y-64225353D03*
X158921998Y-64625353D03*
X158921998Y-65025353D03*
D18*
X158171998Y-65775353D03*
X157771998Y-65775353D03*
X157371998Y-65775353D03*
X156971998Y-65775353D03*
X156571998Y-65775353D03*
X156171998Y-65775353D03*
X155771998Y-65775353D03*
X155371998Y-65775353D03*
X154971998Y-65775353D03*
X154571998Y-65775353D03*
X154171998Y-65775353D03*
X153771998Y-65775353D03*
D17*
X153021998Y-65025353D03*
X153021998Y-64625353D03*
X153021998Y-64225353D03*
X153021998Y-63825353D03*
X153021998Y-63425353D03*
X153021998Y-63025353D03*
X153021998Y-62625353D03*
X153021998Y-62225353D03*
X153021998Y-61825353D03*
X153021998Y-61425353D03*
X153021998Y-61025353D03*
X153021998Y-60625353D03*
D18*
X153771998Y-59875353D03*
X154171998Y-59875353D03*
X154571998Y-59875353D03*
X154971998Y-59875353D03*
X155371998Y-59875353D03*
X155771998Y-59875353D03*
X156171998Y-59875353D03*
X156571998Y-59875353D03*
X156971998Y-59875353D03*
X157371998Y-59875353D03*
X157771998Y-59875353D03*
X158171998Y-59875353D03*
D19*
X149615742Y-68778483D03*
X148040742Y-68778483D03*
D15*
X147042303Y-53703471D03*
X147042303Y-55278471D03*
X150614181Y-53703471D03*
X150614181Y-55278471D03*
D19*
X111515710Y-67587857D03*
X109940710Y-67587857D03*
X149615742Y-66992544D03*
X148040742Y-66992544D03*
X119850092Y-55681597D03*
X118275092Y-55681597D03*
D15*
X122039157Y-67395670D03*
X122039157Y-68970670D03*
D20*
X115129779Y-59730040D03*
X115129779Y-60230040D03*
X115129779Y-60730040D03*
X115129779Y-61230040D03*
X115129779Y-61730040D03*
X115129779Y-62230040D03*
X115129779Y-62730040D03*
X115129779Y-63230040D03*
X115129779Y-63730040D03*
X115129779Y-64230040D03*
X115129779Y-64730040D03*
D21*
X115967279Y-65567540D03*
X116467279Y-65567540D03*
X116967279Y-65567540D03*
X117467279Y-65567540D03*
X117967279Y-65567540D03*
X118467279Y-65567540D03*
X118967279Y-65567540D03*
X119467279Y-65567540D03*
X119967279Y-65567540D03*
X120467279Y-65567540D03*
X120967279Y-65567540D03*
D20*
X121804779Y-64730040D03*
X121804779Y-64230040D03*
X121804779Y-63730040D03*
X121804779Y-63230040D03*
X121804779Y-62730040D03*
X121804779Y-62230040D03*
X121804779Y-61730040D03*
X121804779Y-61230040D03*
X121804779Y-60730040D03*
X121804779Y-60230040D03*
X121804779Y-59730040D03*
D21*
X120967279Y-58892540D03*
X120467279Y-58892540D03*
X119967279Y-58892540D03*
X119467279Y-58892540D03*
X118967279Y-58892540D03*
X118467279Y-58892540D03*
X117967279Y-58892540D03*
X117467279Y-58892540D03*
X116967279Y-58892540D03*
X116467279Y-58892540D03*
X115967279Y-58892540D03*
D22*
X117817279Y-62880040D03*
X120417279Y-60280040D03*
X116517279Y-60280040D03*
X117817279Y-64180040D03*
X120417279Y-62880040D03*
X119117279Y-64180040D03*
X120417279Y-64180040D03*
X117817279Y-60280040D03*
X116517279Y-61580040D03*
X119117279Y-62880040D03*
X119117279Y-61580040D03*
X120417279Y-61580040D03*
X117817279Y-61580040D03*
X116517279Y-64180040D03*
X116517279Y-62880040D03*
X119117279Y-60280040D03*
D15*
X130373539Y-64419105D03*
X130373539Y-65994105D03*
D23*
X13692191Y-19872191D03*
X13692191Y-17672191D03*
D19*
X110920397Y-65206605D03*
X109345397Y-65206605D03*
D15*
X128587600Y-63823792D03*
X128587600Y-65398792D03*
D19*
X126398535Y-58658162D03*
X124823535Y-58658162D03*
X138900108Y-60444101D03*
X137325108Y-60444101D03*
D15*
X148828242Y-57064410D03*
X148828242Y-55489410D03*
D19*
X148635863Y-59531260D03*
X150210863Y-59531260D03*
X161732941Y-56276910D03*
X163307941Y-56276910D03*
D15*
X145256364Y-57064410D03*
X145256364Y-55489410D03*
X17859382Y-17984691D03*
X17859382Y-19559691D03*
D24*
X120412592Y-38417520D03*
X117712592Y-38417520D03*
D15*
X109537584Y-57275349D03*
X109537584Y-58850349D03*
D19*
X165304819Y-56872223D03*
X166879819Y-56872223D03*
D15*
X112514149Y-57275349D03*
X112514149Y-58850349D03*
M02*
