%TF.GenerationSoftware,KiCad,Pcbnew,(6.0.1)*%
%TF.CreationDate,2022-02-20T07:15:50+01:00*%
%TF.ProjectId,atom47-rev5,61746f6d-3437-42d7-9265-76352e6b6963,rev?*%
%TF.SameCoordinates,Original*%
%TF.FileFunction,Soldermask,Top*%
%TF.FilePolarity,Negative*%
%FSLAX46Y46*%
G04 Gerber Fmt 4.6, Leading zero omitted, Abs format (unit mm)*
G04 Created by KiCad (PCBNEW (6.0.1)) date 2022-02-20 07:15:50*
%MOMM*%
%LPD*%
G01*
G04 APERTURE LIST*
%ADD10C,3.987800*%
%ADD11C,1.701800*%
%ADD12C,2.286000*%
%ADD13C,3.000000*%
%ADD14C,5.000000*%
%ADD15C,1.350000*%
%ADD16O,1.350000X1.350000*%
%ADD17R,1.700000X1.700000*%
%ADD18O,1.700000X1.700000*%
%ADD19O,1.000000X1.800000*%
%ADD20C,1.200000*%
G04 APERTURE END LIST*
D10*
X147637500Y-28575000D03*
D11*
X152717500Y-28575000D03*
X142557500Y-28575000D03*
D12*
X150177500Y-23495000D03*
X143827500Y-26035000D03*
D11*
X135413750Y-66675000D03*
D10*
X140493750Y-66675000D03*
D11*
X145573750Y-66675000D03*
D12*
X143033750Y-61595000D03*
X136683750Y-64135000D03*
D10*
X11906250Y-28575000D03*
D11*
X6826250Y-28575000D03*
X16986250Y-28575000D03*
D12*
X14446250Y-23495000D03*
X8096250Y-26035000D03*
D10*
X230981250Y-28575000D03*
D11*
X236061250Y-28575000D03*
X225901250Y-28575000D03*
D12*
X233521250Y-23495000D03*
X227171250Y-26035000D03*
D13*
X38025000Y-5025000D03*
D10*
X216693750Y-47625000D03*
D11*
X211613750Y-47625000D03*
X221773750Y-47625000D03*
D12*
X219233750Y-42545000D03*
X212883750Y-45085000D03*
D11*
X16986260Y-66675056D03*
X6826260Y-66675056D03*
D10*
X11906260Y-66675056D03*
D12*
X14446260Y-61595056D03*
X8096260Y-64135056D03*
D10*
X235743750Y-66675000D03*
D11*
X230663750Y-66675000D03*
X240823750Y-66675000D03*
D12*
X238283750Y-61595000D03*
X231933750Y-64135000D03*
D10*
X97631250Y-66675000D03*
D11*
X92551250Y-66675000D03*
X102711250Y-66675000D03*
D12*
X100171250Y-61595000D03*
X93821250Y-64135000D03*
D11*
X4445000Y-9525000D03*
X14605000Y-9525000D03*
D10*
X9525000Y-9525000D03*
D12*
X12065000Y-4445000D03*
X5715000Y-6985000D03*
D10*
X28575000Y-9525000D03*
D11*
X33655000Y-9525000D03*
X23495000Y-9525000D03*
D12*
X31115000Y-4445000D03*
X24765000Y-6985000D03*
D10*
X47625000Y-9525000D03*
D11*
X42545000Y-9525000D03*
X52705000Y-9525000D03*
D12*
X50165000Y-4445000D03*
X43815000Y-6985000D03*
D11*
X71755000Y-9525000D03*
D10*
X66675000Y-9525000D03*
D11*
X61595000Y-9525000D03*
D12*
X69215000Y-4445000D03*
X62865000Y-6985000D03*
D10*
X85725000Y-9525000D03*
D11*
X90805000Y-9525000D03*
X80645000Y-9525000D03*
D12*
X88265000Y-4445000D03*
X81915000Y-6985000D03*
D11*
X109855000Y-9525000D03*
X99695000Y-9525000D03*
D10*
X104775000Y-9525000D03*
D12*
X107315000Y-4445000D03*
X100965000Y-6985000D03*
D11*
X118745000Y-9525000D03*
X128905000Y-9525000D03*
D10*
X123825000Y-9525000D03*
D12*
X126365000Y-4445000D03*
X120015000Y-6985000D03*
D11*
X137795000Y-9525000D03*
D10*
X142875000Y-9525000D03*
D11*
X147955000Y-9525000D03*
D12*
X145415000Y-4445000D03*
X139065000Y-6985000D03*
D10*
X161925000Y-9525000D03*
D11*
X156845000Y-9525000D03*
X167005000Y-9525000D03*
D12*
X164465000Y-4445000D03*
X158115000Y-6985000D03*
D10*
X180975000Y-9525000D03*
D11*
X186055000Y-9525000D03*
X175895000Y-9525000D03*
D12*
X183515000Y-4445000D03*
X177165000Y-6985000D03*
D11*
X205105000Y-9525000D03*
X194945000Y-9525000D03*
D10*
X200025000Y-9525000D03*
D12*
X202565000Y-4445000D03*
X196215000Y-6985000D03*
D10*
X219075000Y-9525000D03*
D11*
X213995000Y-9525000D03*
X224155000Y-9525000D03*
D12*
X221615000Y-4445000D03*
X215265000Y-6985000D03*
D10*
X238125000Y-9525000D03*
D11*
X243205000Y-9525000D03*
X233045000Y-9525000D03*
D12*
X240665000Y-4445000D03*
X234315000Y-6985000D03*
D11*
X38417500Y-28575000D03*
X28257500Y-28575000D03*
D10*
X33337500Y-28575000D03*
D12*
X35877500Y-23495000D03*
X29527500Y-26035000D03*
D11*
X47307500Y-28575000D03*
X57467500Y-28575000D03*
D10*
X52387500Y-28575000D03*
D12*
X54927500Y-23495000D03*
X48577500Y-26035000D03*
D10*
X71437500Y-28575000D03*
D11*
X76517500Y-28575000D03*
X66357500Y-28575000D03*
D12*
X73977500Y-23495000D03*
X67627500Y-26035000D03*
D11*
X95567500Y-28575000D03*
D10*
X90487500Y-28575000D03*
D11*
X85407500Y-28575000D03*
D12*
X93027500Y-23495000D03*
X86677500Y-26035000D03*
D11*
X104457500Y-28575000D03*
X114617500Y-28575000D03*
D10*
X109537500Y-28575000D03*
D12*
X112077500Y-23495000D03*
X105727500Y-26035000D03*
D11*
X123507500Y-28575000D03*
X133667500Y-28575000D03*
D10*
X128587500Y-28575000D03*
D12*
X131127500Y-23495000D03*
X124777500Y-26035000D03*
D11*
X171767500Y-28575000D03*
D10*
X166687500Y-28575000D03*
D11*
X161607500Y-28575000D03*
D12*
X169227500Y-23495000D03*
X162877500Y-26035000D03*
D11*
X190817500Y-28575000D03*
D10*
X185737500Y-28575000D03*
D11*
X180657500Y-28575000D03*
D12*
X188277500Y-23495000D03*
X181927500Y-26035000D03*
D11*
X209867500Y-28575000D03*
X199707500Y-28575000D03*
D10*
X204787500Y-28575000D03*
D12*
X207327500Y-23495000D03*
X200977500Y-26035000D03*
D10*
X42862500Y-47625000D03*
D11*
X47942500Y-47625000D03*
X37782500Y-47625000D03*
D12*
X45402500Y-42545000D03*
X39052500Y-45085000D03*
D11*
X66992500Y-47625000D03*
X56832500Y-47625000D03*
D10*
X61912500Y-47625000D03*
D12*
X64452500Y-42545000D03*
X58102500Y-45085000D03*
D10*
X80962500Y-47625000D03*
D11*
X86042500Y-47625000D03*
X75882500Y-47625000D03*
D12*
X83502500Y-42545000D03*
X77152500Y-45085000D03*
D11*
X94932500Y-47625000D03*
D10*
X100012500Y-47625000D03*
D11*
X105092500Y-47625000D03*
D12*
X102552500Y-42545000D03*
X96202500Y-45085000D03*
D10*
X119062500Y-47625000D03*
D11*
X113982500Y-47625000D03*
X124142500Y-47625000D03*
D12*
X121602500Y-42545000D03*
X115252500Y-45085000D03*
D11*
X133032500Y-47625000D03*
X143192500Y-47625000D03*
D10*
X138112500Y-47625000D03*
D12*
X140652500Y-42545000D03*
X134302500Y-45085000D03*
D11*
X162242500Y-47625000D03*
X152082500Y-47625000D03*
D10*
X157162500Y-47625000D03*
D12*
X159702500Y-42545000D03*
X153352500Y-45085000D03*
D11*
X171132500Y-47625000D03*
X181292500Y-47625000D03*
D10*
X176212500Y-47625000D03*
D12*
X178752500Y-42545000D03*
X172402500Y-45085000D03*
D11*
X200342500Y-47625000D03*
X190182500Y-47625000D03*
D10*
X195262500Y-47625000D03*
D12*
X197802500Y-42545000D03*
X191452500Y-45085000D03*
D10*
X238125000Y-47625000D03*
D11*
X243205000Y-47625000D03*
X233045000Y-47625000D03*
D12*
X240665000Y-42545000D03*
X234315000Y-45085000D03*
D11*
X38417500Y-66675000D03*
D10*
X33337500Y-66675000D03*
D11*
X28257500Y-66675000D03*
D12*
X35877500Y-61595000D03*
X29527500Y-64135000D03*
D11*
X47307500Y-66675000D03*
X57467500Y-66675000D03*
D10*
X52387500Y-66675000D03*
D12*
X54927500Y-61595000D03*
X48577500Y-64135000D03*
D11*
X66357500Y-66675000D03*
X76517500Y-66675000D03*
D10*
X71437500Y-66675000D03*
D12*
X73977500Y-61595000D03*
X67627500Y-64135000D03*
D10*
X176212500Y-66675000D03*
D11*
X181292500Y-66675000D03*
X171132500Y-66675000D03*
D12*
X178752500Y-61595000D03*
X172402500Y-64135000D03*
D11*
X190182500Y-66675000D03*
D10*
X195262500Y-66675000D03*
D11*
X200342500Y-66675000D03*
D12*
X197802500Y-61595000D03*
X191452500Y-64135000D03*
D11*
X209232672Y-66675000D03*
X219392672Y-66675000D03*
D10*
X214312672Y-66675000D03*
D12*
X216852672Y-61595000D03*
X210502672Y-64135000D03*
D14*
X223925000Y-57575000D03*
X23475000Y-57575000D03*
D11*
X11588750Y-47625000D03*
D10*
X16668750Y-47625000D03*
D11*
X21748750Y-47625000D03*
D12*
X19208750Y-42545000D03*
X12858750Y-45085000D03*
D14*
X23625000Y-19475000D03*
X128225000Y-38575000D03*
X215025000Y-19475000D03*
D15*
X86915690Y-65675048D03*
D16*
X86915690Y-67675048D03*
D10*
X235743948Y-47625040D03*
D11*
X240823948Y-47625040D03*
X230663948Y-47625040D03*
D12*
X238283948Y-42545040D03*
X231933948Y-45085040D03*
D10*
X214312680Y-47625040D03*
D11*
X219392680Y-47625040D03*
X209232680Y-47625040D03*
D12*
X216852680Y-42545040D03*
X210502680Y-45085040D03*
D17*
X80287873Y-66555979D03*
D18*
X82827873Y-66555979D03*
X80287873Y-64015979D03*
X82827873Y-64015979D03*
X80287873Y-61475979D03*
X82827873Y-61475979D03*
D19*
X22275000Y-4075000D03*
D20*
X16250000Y-6875000D03*
D19*
X15075000Y-4075000D03*
D20*
X21100000Y-6875000D03*
M02*
