%TF.GenerationSoftware,KiCad,Pcbnew,(6.0.1)*%
%TF.CreationDate,2022-02-20T07:15:50+01:00*%
%TF.ProjectId,atom47-rev5,61746f6d-3437-42d7-9265-76352e6b6963,rev?*%
%TF.SameCoordinates,Original*%
%TF.FileFunction,Soldermask,Bot*%
%TF.FilePolarity,Negative*%
%FSLAX46Y46*%
G04 Gerber Fmt 4.6, Leading zero omitted, Abs format (unit mm)*
G04 Created by KiCad (PCBNEW (6.0.1)) date 2022-02-20 07:15:50*
%MOMM*%
%LPD*%
G01*
G04 APERTURE LIST*
G04 Aperture macros list*
%AMRoundRect*
0 Rectangle with rounded corners*
0 $1 Rounding radius*
0 $2 $3 $4 $5 $6 $7 $8 $9 X,Y pos of 4 corners*
0 Add a 4 corners polygon primitive as box body*
4,1,4,$2,$3,$4,$5,$6,$7,$8,$9,$2,$3,0*
0 Add four circle primitives for the rounded corners*
1,1,$1+$1,$2,$3*
1,1,$1+$1,$4,$5*
1,1,$1+$1,$6,$7*
1,1,$1+$1,$8,$9*
0 Add four rect primitives between the rounded corners*
20,1,$1+$1,$2,$3,$4,$5,0*
20,1,$1+$1,$4,$5,$6,$7,0*
20,1,$1+$1,$6,$7,$8,$9,0*
20,1,$1+$1,$8,$9,$2,$3,0*%
G04 Aperture macros list end*
%ADD10R,0.700000X1.000000*%
%ADD11R,1.800000X0.900000*%
%ADD12C,3.987800*%
%ADD13C,1.701800*%
%ADD14C,2.286000*%
%ADD15C,3.000000*%
%ADD16C,5.000000*%
%ADD17C,1.350000*%
%ADD18O,1.350000X1.350000*%
%ADD19R,1.700000X1.700000*%
%ADD20O,1.700000X1.700000*%
%ADD21R,0.400000X1.250000*%
%ADD22O,1.000000X1.800000*%
%ADD23C,1.200000*%
%ADD24R,0.600000X1.200000*%
%ADD25R,2.000000X0.400000*%
%ADD26R,1.000000X0.900000*%
%ADD27RoundRect,0.050000X0.375000X0.050000X-0.375000X0.050000X-0.375000X-0.050000X0.375000X-0.050000X0*%
%ADD28RoundRect,0.050000X0.050000X0.375000X-0.050000X0.375000X-0.050000X-0.375000X0.050000X-0.375000X0*%
%ADD29R,4.200000X4.200000*%
%ADD30R,0.900000X1.000000*%
%ADD31RoundRect,0.062500X-0.475000X0.062500X-0.475000X-0.062500X0.475000X-0.062500X0.475000X0.062500X0*%
%ADD32R,5.200000X5.200000*%
%ADD33RoundRect,0.062500X-0.062500X0.475000X-0.062500X-0.475000X0.062500X-0.475000X0.062500X0.475000X0*%
%ADD34R,1.300000X1.200000*%
%ADD35RoundRect,0.250000X0.450000X0.425000X-0.450000X0.425000X-0.450000X-0.425000X0.450000X-0.425000X0*%
G04 APERTURE END LIST*
D10*
X217289245Y-69115674D03*
X217289245Y-66615674D03*
X232767383Y-69115674D03*
X232767383Y-66615674D03*
X100607897Y-69115674D03*
X100607897Y-66615674D03*
X179189213Y-69115674D03*
X179189213Y-66615674D03*
X74414125Y-69115674D03*
X74414125Y-66615674D03*
X198239229Y-69115674D03*
X198239229Y-66615674D03*
X143470433Y-69115674D03*
X143470433Y-66615674D03*
X160139197Y-50065658D03*
X160139197Y-47565658D03*
X36314093Y-69115674D03*
X36314093Y-66615674D03*
X14882825Y-69115674D03*
X14882825Y-66615674D03*
X141089181Y-50065658D03*
X141089181Y-47565658D03*
X228599992Y-50065658D03*
X228599992Y-47565658D03*
X223837688Y-50065658D03*
X223837688Y-47565658D03*
X198239229Y-50065658D03*
X198239229Y-47565658D03*
X179189213Y-50065658D03*
X179189213Y-47565658D03*
X122039165Y-50065658D03*
X122039165Y-47565658D03*
X83939133Y-50065658D03*
X83939133Y-47565658D03*
X64889117Y-50065658D03*
X64889117Y-47565658D03*
X69651621Y-11965626D03*
X69651621Y-9465626D03*
X228004879Y-31015642D03*
X228004879Y-28515642D03*
X188714221Y-31015642D03*
X188714221Y-28515642D03*
X12501565Y-11965618D03*
X12501565Y-9465618D03*
X169664205Y-31015642D03*
X169664205Y-28515642D03*
X203001733Y-11965626D03*
X203001733Y-9465626D03*
X150614189Y-31015642D03*
X150614189Y-28515642D03*
X131564173Y-31015642D03*
X131564173Y-28515642D03*
X145851685Y-11965626D03*
X145851685Y-9465626D03*
X88701637Y-11965626D03*
X88701637Y-9465626D03*
X55364109Y-31015642D03*
X55364109Y-28515642D03*
X36314093Y-31015642D03*
X36314093Y-28515642D03*
X126801669Y-11965626D03*
X126801669Y-9465626D03*
X93464141Y-31015642D03*
X93464141Y-28515642D03*
X235148635Y-11965626D03*
X235148635Y-9465626D03*
X74414125Y-31015642D03*
X74414125Y-28515642D03*
X164901701Y-11965626D03*
X164901701Y-9465626D03*
X50601605Y-11965626D03*
X50601605Y-9465626D03*
X55364109Y-69115674D03*
X55364109Y-66615674D03*
X183951717Y-11965626D03*
X183951717Y-9465626D03*
X207764237Y-31015642D03*
X207764237Y-28515642D03*
X112514157Y-31015642D03*
X112514157Y-28515642D03*
X14882825Y-31015642D03*
X14882825Y-28515642D03*
X107751653Y-11965626D03*
X107751653Y-9465626D03*
X222051749Y-11965626D03*
X222051749Y-9465626D03*
X102989149Y-50065658D03*
X102989149Y-47565658D03*
X19645329Y-50065658D03*
X19645329Y-47565658D03*
X45839101Y-50065658D03*
X45839101Y-47565658D03*
X31551589Y-11965626D03*
X31551589Y-9465626D03*
D11*
X137893750Y-71005000D03*
X137893750Y-72505000D03*
X143093750Y-71005000D03*
X143093750Y-72505000D03*
X83125000Y-13855000D03*
X83125000Y-15355000D03*
X88325000Y-13855000D03*
X88325000Y-15355000D03*
X87887500Y-32905000D03*
X87887500Y-34405000D03*
X93087500Y-32905000D03*
X93087500Y-34405000D03*
X183137500Y-32905000D03*
X183137500Y-34405000D03*
X188337500Y-32905000D03*
X188337500Y-34405000D03*
X9306250Y-32905000D03*
X9306250Y-34405000D03*
X14506250Y-32905000D03*
X14506250Y-34405000D03*
X116462500Y-51955000D03*
X116462500Y-53455000D03*
X121662500Y-51955000D03*
X121662500Y-53455000D03*
X211712500Y-71005000D03*
X211712500Y-72505000D03*
X216912500Y-71005000D03*
X216912500Y-72505000D03*
X97412500Y-51955000D03*
X97412500Y-53455000D03*
X102612500Y-51955000D03*
X102612500Y-53455000D03*
X14068750Y-51955000D03*
X14068750Y-53455000D03*
X19268750Y-51955000D03*
X19268750Y-53455000D03*
X40262500Y-51955000D03*
X40262500Y-53455000D03*
X45462500Y-51955000D03*
X45462500Y-53455000D03*
X234334392Y-51955000D03*
X234334392Y-53455000D03*
X239534392Y-51955000D03*
X239534392Y-53455000D03*
X49787500Y-32905000D03*
X49787500Y-34405000D03*
X54987500Y-32905000D03*
X54987500Y-34405000D03*
X233143750Y-71005000D03*
X233143750Y-72505000D03*
X238343750Y-71005000D03*
X238343750Y-72505000D03*
X145037500Y-32905000D03*
X145037500Y-34405000D03*
X150237500Y-32905000D03*
X150237500Y-34405000D03*
X154562500Y-51955000D03*
X154562500Y-53455000D03*
X159762500Y-51955000D03*
X159762500Y-53455000D03*
X78362500Y-51955000D03*
X78362500Y-53455000D03*
X83562500Y-51955000D03*
X83562500Y-53455000D03*
X192662500Y-71005000D03*
X192662500Y-72505000D03*
X197862500Y-71005000D03*
X197862500Y-72505000D03*
X30737500Y-71005000D03*
X30737500Y-72505000D03*
X35937500Y-71005000D03*
X35937500Y-72505000D03*
X68837500Y-32905000D03*
X68837500Y-34405000D03*
X74037500Y-32905000D03*
X74037500Y-34405000D03*
X173612500Y-51955000D03*
X173612500Y-53455000D03*
X178812500Y-51955000D03*
X178812500Y-53455000D03*
X125987500Y-32905000D03*
X125987500Y-34405000D03*
X131187500Y-32905000D03*
X131187500Y-34405000D03*
X235525000Y-13855000D03*
X235525000Y-15355000D03*
X240725000Y-13855000D03*
X240725000Y-15355000D03*
X106937500Y-32905000D03*
X106937500Y-34405000D03*
X112137500Y-32905000D03*
X112137500Y-34405000D03*
X228381250Y-32905000D03*
X228381250Y-34405000D03*
X233581250Y-32905000D03*
X233581250Y-34405000D03*
X216475000Y-13855000D03*
X216475000Y-15355000D03*
X221675000Y-13855000D03*
X221675000Y-15355000D03*
X135512500Y-51955000D03*
X135512500Y-53455000D03*
X140712500Y-51955000D03*
X140712500Y-53455000D03*
X173612500Y-71005000D03*
X173612500Y-72505000D03*
X178812500Y-71005000D03*
X178812500Y-72505000D03*
X212903124Y-51955000D03*
X212903124Y-53455000D03*
X218103124Y-51955000D03*
X218103124Y-53455000D03*
X102175000Y-13855000D03*
X102175000Y-15355000D03*
X107375000Y-13855000D03*
X107375000Y-15355000D03*
X197425000Y-13855000D03*
X197425000Y-15355000D03*
X202625000Y-13855000D03*
X202625000Y-15355000D03*
X159325000Y-13855000D03*
X159325000Y-15355000D03*
X164525000Y-13855000D03*
X164525000Y-15355000D03*
X45025000Y-13855000D03*
X45025000Y-15355000D03*
X50225000Y-13855000D03*
X50225000Y-15355000D03*
X192662500Y-51955000D03*
X192662500Y-53455000D03*
X197862500Y-51955000D03*
X197862500Y-53455000D03*
X25975000Y-13855000D03*
X25975000Y-15355000D03*
X31175000Y-13855000D03*
X31175000Y-15355000D03*
X164087500Y-32905000D03*
X164087500Y-34405000D03*
X169287500Y-32905000D03*
X169287500Y-34405000D03*
X202187500Y-32905000D03*
X202187500Y-34405000D03*
X207387500Y-32905000D03*
X207387500Y-34405000D03*
X59312500Y-51955000D03*
X59312500Y-53455000D03*
X64512500Y-51955000D03*
X64512500Y-53455000D03*
X9306250Y-71005000D03*
X9306250Y-72505000D03*
X14506250Y-71005000D03*
X14506250Y-72505000D03*
X178375000Y-13855000D03*
X178375000Y-15355000D03*
X183575000Y-13855000D03*
X183575000Y-15355000D03*
X64075000Y-13855000D03*
X64075000Y-15355000D03*
X69275000Y-13855000D03*
X69275000Y-15355000D03*
X68837500Y-71005000D03*
X68837500Y-72505000D03*
X74037500Y-71005000D03*
X74037500Y-72505000D03*
X49787500Y-71005000D03*
X49787500Y-72505000D03*
X54987500Y-71005000D03*
X54987500Y-72505000D03*
X95031250Y-71005000D03*
X95031250Y-72505000D03*
X100231250Y-71005000D03*
X100231250Y-72505000D03*
X121225000Y-13855000D03*
X121225000Y-15355000D03*
X126425000Y-13855000D03*
X126425000Y-15355000D03*
X30737500Y-32905000D03*
X30737500Y-34405000D03*
X35937500Y-32905000D03*
X35937500Y-34405000D03*
X6925000Y-13855000D03*
X6925000Y-15355000D03*
X12125000Y-13855000D03*
X12125000Y-15355000D03*
X19225000Y-25850000D03*
X19225000Y-27350000D03*
X24425000Y-25850000D03*
X24425000Y-27350000D03*
X140275000Y-13855000D03*
X140275000Y-15355000D03*
X145475000Y-13855000D03*
X145475000Y-15355000D03*
D12*
X147637500Y-28575000D03*
D13*
X152717500Y-28575000D03*
X142557500Y-28575000D03*
D14*
X150177500Y-23495000D03*
X143827500Y-26035000D03*
D13*
X135413750Y-66675000D03*
D12*
X140493750Y-66675000D03*
D13*
X145573750Y-66675000D03*
D14*
X143033750Y-61595000D03*
X136683750Y-64135000D03*
D12*
X11906250Y-28575000D03*
D13*
X6826250Y-28575000D03*
X16986250Y-28575000D03*
D14*
X14446250Y-23495000D03*
X8096250Y-26035000D03*
D12*
X230981250Y-28575000D03*
D13*
X236061250Y-28575000D03*
X225901250Y-28575000D03*
D14*
X233521250Y-23495000D03*
X227171250Y-26035000D03*
D15*
X38025000Y-5025000D03*
D12*
X216693750Y-47625000D03*
D13*
X211613750Y-47625000D03*
X221773750Y-47625000D03*
D14*
X219233750Y-42545000D03*
X212883750Y-45085000D03*
D13*
X16986260Y-66675056D03*
X6826260Y-66675056D03*
D12*
X11906260Y-66675056D03*
D14*
X14446260Y-61595056D03*
X8096260Y-64135056D03*
D12*
X235743750Y-66675000D03*
D13*
X230663750Y-66675000D03*
X240823750Y-66675000D03*
D14*
X238283750Y-61595000D03*
X231933750Y-64135000D03*
D12*
X97631250Y-66675000D03*
D13*
X92551250Y-66675000D03*
X102711250Y-66675000D03*
D14*
X100171250Y-61595000D03*
X93821250Y-64135000D03*
D13*
X4445000Y-9525000D03*
X14605000Y-9525000D03*
D12*
X9525000Y-9525000D03*
D14*
X12065000Y-4445000D03*
X5715000Y-6985000D03*
D12*
X28575000Y-9525000D03*
D13*
X33655000Y-9525000D03*
X23495000Y-9525000D03*
D14*
X31115000Y-4445000D03*
X24765000Y-6985000D03*
D12*
X47625000Y-9525000D03*
D13*
X42545000Y-9525000D03*
X52705000Y-9525000D03*
D14*
X50165000Y-4445000D03*
X43815000Y-6985000D03*
D13*
X71755000Y-9525000D03*
D12*
X66675000Y-9525000D03*
D13*
X61595000Y-9525000D03*
D14*
X69215000Y-4445000D03*
X62865000Y-6985000D03*
D12*
X85725000Y-9525000D03*
D13*
X90805000Y-9525000D03*
X80645000Y-9525000D03*
D14*
X88265000Y-4445000D03*
X81915000Y-6985000D03*
D13*
X109855000Y-9525000D03*
X99695000Y-9525000D03*
D12*
X104775000Y-9525000D03*
D14*
X107315000Y-4445000D03*
X100965000Y-6985000D03*
D13*
X118745000Y-9525000D03*
X128905000Y-9525000D03*
D12*
X123825000Y-9525000D03*
D14*
X126365000Y-4445000D03*
X120015000Y-6985000D03*
D13*
X137795000Y-9525000D03*
D12*
X142875000Y-9525000D03*
D13*
X147955000Y-9525000D03*
D14*
X145415000Y-4445000D03*
X139065000Y-6985000D03*
D12*
X161925000Y-9525000D03*
D13*
X156845000Y-9525000D03*
X167005000Y-9525000D03*
D14*
X164465000Y-4445000D03*
X158115000Y-6985000D03*
D12*
X180975000Y-9525000D03*
D13*
X186055000Y-9525000D03*
X175895000Y-9525000D03*
D14*
X183515000Y-4445000D03*
X177165000Y-6985000D03*
D13*
X205105000Y-9525000D03*
X194945000Y-9525000D03*
D12*
X200025000Y-9525000D03*
D14*
X202565000Y-4445000D03*
X196215000Y-6985000D03*
D12*
X219075000Y-9525000D03*
D13*
X213995000Y-9525000D03*
X224155000Y-9525000D03*
D14*
X221615000Y-4445000D03*
X215265000Y-6985000D03*
D12*
X238125000Y-9525000D03*
D13*
X243205000Y-9525000D03*
X233045000Y-9525000D03*
D14*
X240665000Y-4445000D03*
X234315000Y-6985000D03*
D13*
X38417500Y-28575000D03*
X28257500Y-28575000D03*
D12*
X33337500Y-28575000D03*
D14*
X35877500Y-23495000D03*
X29527500Y-26035000D03*
D13*
X47307500Y-28575000D03*
X57467500Y-28575000D03*
D12*
X52387500Y-28575000D03*
D14*
X54927500Y-23495000D03*
X48577500Y-26035000D03*
D12*
X71437500Y-28575000D03*
D13*
X76517500Y-28575000D03*
X66357500Y-28575000D03*
D14*
X73977500Y-23495000D03*
X67627500Y-26035000D03*
D13*
X95567500Y-28575000D03*
D12*
X90487500Y-28575000D03*
D13*
X85407500Y-28575000D03*
D14*
X93027500Y-23495000D03*
X86677500Y-26035000D03*
D13*
X104457500Y-28575000D03*
X114617500Y-28575000D03*
D12*
X109537500Y-28575000D03*
D14*
X112077500Y-23495000D03*
X105727500Y-26035000D03*
D13*
X123507500Y-28575000D03*
X133667500Y-28575000D03*
D12*
X128587500Y-28575000D03*
D14*
X131127500Y-23495000D03*
X124777500Y-26035000D03*
D13*
X171767500Y-28575000D03*
D12*
X166687500Y-28575000D03*
D13*
X161607500Y-28575000D03*
D14*
X169227500Y-23495000D03*
X162877500Y-26035000D03*
D13*
X190817500Y-28575000D03*
D12*
X185737500Y-28575000D03*
D13*
X180657500Y-28575000D03*
D14*
X188277500Y-23495000D03*
X181927500Y-26035000D03*
D13*
X209867500Y-28575000D03*
X199707500Y-28575000D03*
D12*
X204787500Y-28575000D03*
D14*
X207327500Y-23495000D03*
X200977500Y-26035000D03*
D12*
X42862500Y-47625000D03*
D13*
X47942500Y-47625000D03*
X37782500Y-47625000D03*
D14*
X45402500Y-42545000D03*
X39052500Y-45085000D03*
D13*
X66992500Y-47625000D03*
X56832500Y-47625000D03*
D12*
X61912500Y-47625000D03*
D14*
X64452500Y-42545000D03*
X58102500Y-45085000D03*
D12*
X80962500Y-47625000D03*
D13*
X86042500Y-47625000D03*
X75882500Y-47625000D03*
D14*
X83502500Y-42545000D03*
X77152500Y-45085000D03*
D13*
X94932500Y-47625000D03*
D12*
X100012500Y-47625000D03*
D13*
X105092500Y-47625000D03*
D14*
X102552500Y-42545000D03*
X96202500Y-45085000D03*
D12*
X119062500Y-47625000D03*
D13*
X113982500Y-47625000D03*
X124142500Y-47625000D03*
D14*
X121602500Y-42545000D03*
X115252500Y-45085000D03*
D13*
X133032500Y-47625000D03*
X143192500Y-47625000D03*
D12*
X138112500Y-47625000D03*
D14*
X140652500Y-42545000D03*
X134302500Y-45085000D03*
D13*
X162242500Y-47625000D03*
X152082500Y-47625000D03*
D12*
X157162500Y-47625000D03*
D14*
X159702500Y-42545000D03*
X153352500Y-45085000D03*
D13*
X171132500Y-47625000D03*
X181292500Y-47625000D03*
D12*
X176212500Y-47625000D03*
D14*
X178752500Y-42545000D03*
X172402500Y-45085000D03*
D13*
X200342500Y-47625000D03*
X190182500Y-47625000D03*
D12*
X195262500Y-47625000D03*
D14*
X197802500Y-42545000D03*
X191452500Y-45085000D03*
D12*
X238125000Y-47625000D03*
D13*
X243205000Y-47625000D03*
X233045000Y-47625000D03*
D14*
X240665000Y-42545000D03*
X234315000Y-45085000D03*
D13*
X38417500Y-66675000D03*
D12*
X33337500Y-66675000D03*
D13*
X28257500Y-66675000D03*
D14*
X35877500Y-61595000D03*
X29527500Y-64135000D03*
D13*
X47307500Y-66675000D03*
X57467500Y-66675000D03*
D12*
X52387500Y-66675000D03*
D14*
X54927500Y-61595000D03*
X48577500Y-64135000D03*
D13*
X66357500Y-66675000D03*
X76517500Y-66675000D03*
D12*
X71437500Y-66675000D03*
D14*
X73977500Y-61595000D03*
X67627500Y-64135000D03*
D12*
X176212500Y-66675000D03*
D13*
X181292500Y-66675000D03*
X171132500Y-66675000D03*
D14*
X178752500Y-61595000D03*
X172402500Y-64135000D03*
D13*
X190182500Y-66675000D03*
D12*
X195262500Y-66675000D03*
D13*
X200342500Y-66675000D03*
D14*
X197802500Y-61595000D03*
X191452500Y-64135000D03*
D13*
X209232672Y-66675000D03*
X219392672Y-66675000D03*
D12*
X214312672Y-66675000D03*
D14*
X216852672Y-61595000D03*
X210502672Y-64135000D03*
D16*
X223925000Y-57575000D03*
X23475000Y-57575000D03*
D13*
X11588750Y-47625000D03*
D12*
X16668750Y-47625000D03*
D13*
X21748750Y-47625000D03*
D14*
X19208750Y-42545000D03*
X12858750Y-45085000D03*
D16*
X23625000Y-19475000D03*
X128225000Y-38575000D03*
X215025000Y-19475000D03*
D17*
X86915690Y-65675048D03*
D18*
X86915690Y-67675048D03*
D12*
X235743948Y-47625040D03*
D13*
X240823948Y-47625040D03*
X230663948Y-47625040D03*
D14*
X238283948Y-42545040D03*
X231933948Y-45085040D03*
D12*
X214312680Y-47625040D03*
D13*
X219392680Y-47625040D03*
X209232680Y-47625040D03*
D14*
X216852680Y-42545040D03*
X210502680Y-45085040D03*
D19*
X80287873Y-66555979D03*
D20*
X82827873Y-66555979D03*
X80287873Y-64015979D03*
X82827873Y-64015979D03*
X80287873Y-61475979D03*
X82827873Y-61475979D03*
D21*
X17375000Y-6875000D03*
X18025000Y-6875000D03*
X18675000Y-6875000D03*
X19325000Y-6875000D03*
X19975000Y-6875000D03*
D22*
X22275000Y-4075000D03*
D23*
X16250000Y-6875000D03*
D22*
X15075000Y-4075000D03*
D23*
X21100000Y-6875000D03*
D24*
X18100008Y-9883122D03*
X19050008Y-9883122D03*
X20000008Y-9883122D03*
X20000008Y-12183122D03*
X19050008Y-12183122D03*
X18100008Y-12183122D03*
D25*
X125611035Y-63430040D03*
X125611035Y-61030040D03*
X125611035Y-62230040D03*
D26*
X16073443Y-19559691D03*
X16073443Y-17984691D03*
X19645321Y-17984691D03*
X19645321Y-19559691D03*
D27*
X158921998Y-60625353D03*
X158921998Y-61025353D03*
X158921998Y-61425353D03*
X158921998Y-61825353D03*
X158921998Y-62225353D03*
X158921998Y-62625353D03*
X158921998Y-63025353D03*
X158921998Y-63425353D03*
X158921998Y-63825353D03*
X158921998Y-64225353D03*
X158921998Y-64625353D03*
X158921998Y-65025353D03*
D28*
X158171998Y-65775353D03*
X157771998Y-65775353D03*
X157371998Y-65775353D03*
X156971998Y-65775353D03*
X156571998Y-65775353D03*
X156171998Y-65775353D03*
X155771998Y-65775353D03*
X155371998Y-65775353D03*
X154971998Y-65775353D03*
X154571998Y-65775353D03*
X154171998Y-65775353D03*
X153771998Y-65775353D03*
D27*
X153021998Y-65025353D03*
X153021998Y-64625353D03*
X153021998Y-64225353D03*
X153021998Y-63825353D03*
X153021998Y-63425353D03*
X153021998Y-63025353D03*
X153021998Y-62625353D03*
X153021998Y-62225353D03*
X153021998Y-61825353D03*
X153021998Y-61425353D03*
X153021998Y-61025353D03*
X153021998Y-60625353D03*
D28*
X153771998Y-59875353D03*
X154171998Y-59875353D03*
X154571998Y-59875353D03*
X154971998Y-59875353D03*
X155371998Y-59875353D03*
X155771998Y-59875353D03*
X156171998Y-59875353D03*
X156571998Y-59875353D03*
X156971998Y-59875353D03*
X157371998Y-59875353D03*
X157771998Y-59875353D03*
X158171998Y-59875353D03*
D29*
X155971998Y-62825353D03*
D30*
X149615742Y-68778483D03*
X148040742Y-68778483D03*
D26*
X147042303Y-53703471D03*
X147042303Y-55278471D03*
X150614181Y-53703471D03*
X150614181Y-55278471D03*
D30*
X111515710Y-67587857D03*
X109940710Y-67587857D03*
X149615742Y-66992544D03*
X148040742Y-66992544D03*
X119850092Y-55681597D03*
X118275092Y-55681597D03*
D26*
X122039157Y-67395670D03*
X122039157Y-68970670D03*
D31*
X115129779Y-59730040D03*
D32*
X118467279Y-62230040D03*
D31*
X115129779Y-60230040D03*
X115129779Y-60730040D03*
X115129779Y-61230040D03*
X115129779Y-61730040D03*
X115129779Y-62230040D03*
X115129779Y-62730040D03*
X115129779Y-63230040D03*
X115129779Y-63730040D03*
X115129779Y-64230040D03*
X115129779Y-64730040D03*
D33*
X115967279Y-65567540D03*
X116467279Y-65567540D03*
X116967279Y-65567540D03*
X117467279Y-65567540D03*
X117967279Y-65567540D03*
X118467279Y-65567540D03*
X118967279Y-65567540D03*
X119467279Y-65567540D03*
X119967279Y-65567540D03*
X120467279Y-65567540D03*
X120967279Y-65567540D03*
D31*
X121804779Y-64730040D03*
X121804779Y-64230040D03*
X121804779Y-63730040D03*
X121804779Y-63230040D03*
X121804779Y-62730040D03*
X121804779Y-62230040D03*
X121804779Y-61730040D03*
X121804779Y-61230040D03*
X121804779Y-60730040D03*
X121804779Y-60230040D03*
X121804779Y-59730040D03*
D33*
X120967279Y-58892540D03*
X120467279Y-58892540D03*
X119967279Y-58892540D03*
X119467279Y-58892540D03*
X118967279Y-58892540D03*
X118467279Y-58892540D03*
X117967279Y-58892540D03*
X117467279Y-58892540D03*
X116967279Y-58892540D03*
X116467279Y-58892540D03*
X115967279Y-58892540D03*
D26*
X130373539Y-64419105D03*
X130373539Y-65994105D03*
D34*
X13692191Y-19872191D03*
X13692191Y-17672191D03*
D30*
X110920397Y-65206605D03*
X109345397Y-65206605D03*
D26*
X128587600Y-63823792D03*
X128587600Y-65398792D03*
D30*
X126398535Y-58658162D03*
X124823535Y-58658162D03*
X138900108Y-60444101D03*
X137325108Y-60444101D03*
D26*
X148828242Y-57064410D03*
X148828242Y-55489410D03*
D30*
X148635863Y-59531260D03*
X150210863Y-59531260D03*
X161732941Y-56276910D03*
X163307941Y-56276910D03*
D26*
X145256364Y-57064410D03*
X145256364Y-55489410D03*
X17859382Y-17984691D03*
X17859382Y-19559691D03*
D35*
X120412592Y-38417520D03*
X117712592Y-38417520D03*
D26*
X109537584Y-57275349D03*
X109537584Y-58850349D03*
D30*
X165304819Y-56872223D03*
X166879819Y-56872223D03*
D26*
X112514149Y-57275349D03*
X112514149Y-58850349D03*
M02*
