%TF.GenerationSoftware,KiCad,Pcbnew,(5.99.0-8436-gbd786b578a)*%
%TF.CreationDate,2021-02-24T19:01:32+01:00*%
%TF.ProjectId,atom47,61746f6d-3437-42e6-9b69-6361645f7063,rev?*%
%TF.SameCoordinates,Original*%
%TF.FileFunction,Soldermask,Bot*%
%TF.FilePolarity,Negative*%
%FSLAX46Y46*%
G04 Gerber Fmt 4.6, Leading zero omitted, Abs format (unit mm)*
G04 Created by KiCad (PCBNEW (5.99.0-8436-gbd786b578a)) date 2021-02-24 19:01:32*
%MOMM*%
%LPD*%
G01*
G04 APERTURE LIST*
%ADD10C,2.286000*%
%ADD11C,1.701800*%
%ADD12C,3.987800*%
%ADD13C,3.000000*%
%ADD14C,5.000000*%
%ADD15C,1.350000*%
%ADD16O,1.350000X1.350000*%
%ADD17R,1.000000X0.900000*%
%ADD18R,1.400000X1.200000*%
%ADD19R,1.700000X1.700000*%
%ADD20O,1.700000X1.700000*%
%ADD21R,0.900000X1.000000*%
%ADD22R,0.400000X1.250000*%
%ADD23C,1.200000*%
%ADD24O,1.000000X1.800000*%
%ADD25R,0.600000X1.200000*%
%ADD26R,2.000000X2.000000*%
%ADD27C,2.000000*%
%ADD28O,2.000000X3.200000*%
%ADD29R,0.400000X2.000000*%
%ADD30R,0.550000X1.600000*%
%ADD31R,1.600000X0.550000*%
G04 APERTURE END LIST*
D10*
X150177500Y-23495000D03*
X143827500Y-26035000D03*
D11*
X142557500Y-28575000D03*
D12*
X147637500Y-28575000D03*
D11*
X152717500Y-28575000D03*
D10*
X143033750Y-61595000D03*
X136683750Y-64135000D03*
D11*
X135413750Y-66675000D03*
D12*
X140493750Y-66675000D03*
D11*
X145573750Y-66675000D03*
D10*
X228758750Y-42545000D03*
X222408750Y-45085000D03*
D11*
X221138750Y-47625000D03*
X231298750Y-47625000D03*
D12*
X226218750Y-47625000D03*
D10*
X133508750Y-61595000D03*
X127158750Y-64135000D03*
D11*
X125888750Y-66675000D03*
D12*
X130968750Y-66675000D03*
D11*
X136048750Y-66675000D03*
D10*
X126365000Y-61595000D03*
X120015000Y-64135000D03*
D12*
X123825000Y-66675000D03*
D11*
X128905000Y-66675000D03*
X118745000Y-66675000D03*
D10*
X14446250Y-23495000D03*
X8096250Y-26035000D03*
D11*
X6826250Y-28575000D03*
D12*
X11906250Y-28575000D03*
D11*
X16986250Y-28575000D03*
D10*
X233521250Y-23495000D03*
X227171250Y-26035000D03*
D11*
X225901250Y-28575000D03*
X236061250Y-28575000D03*
D12*
X230981250Y-28575000D03*
D13*
X38025000Y-5025000D03*
D10*
X235902500Y-61595000D03*
X229552500Y-64135000D03*
D12*
X233362500Y-66675000D03*
D11*
X228282500Y-66675000D03*
X238442500Y-66675000D03*
D10*
X207327500Y-61595000D03*
X200977500Y-64135000D03*
D12*
X204787500Y-66675000D03*
D11*
X209867500Y-66675000D03*
X199707500Y-66675000D03*
D10*
X38258780Y-61595056D03*
X31908780Y-64135056D03*
D12*
X35718780Y-66675056D03*
D11*
X40798780Y-66675056D03*
X30638780Y-66675056D03*
D10*
X16827500Y-61595000D03*
X10477500Y-64135000D03*
D12*
X14287500Y-66675000D03*
D11*
X19367500Y-66675000D03*
X9207500Y-66675000D03*
D10*
X219233750Y-42545000D03*
X212883750Y-45085000D03*
D11*
X221773750Y-47625000D03*
X211613750Y-47625000D03*
D12*
X216693750Y-47625000D03*
D10*
X14446260Y-61595056D03*
X8096260Y-64135056D03*
D11*
X16986260Y-66675056D03*
X6826260Y-66675056D03*
D12*
X11906260Y-66675056D03*
D10*
X62071250Y-61595000D03*
X55721250Y-64135000D03*
D11*
X54451250Y-66675000D03*
X64611250Y-66675000D03*
D12*
X59531250Y-66675000D03*
D10*
X238283750Y-61595000D03*
X231933750Y-64135000D03*
D11*
X230663750Y-66675000D03*
D12*
X235743750Y-66675000D03*
D11*
X240823750Y-66675000D03*
D10*
X238283750Y-42545000D03*
X231933750Y-45085000D03*
D11*
X240823750Y-47625000D03*
D12*
X235743750Y-47625000D03*
D11*
X230663750Y-47625000D03*
D10*
X100171250Y-61595000D03*
X93821250Y-64135000D03*
D11*
X102711250Y-66675000D03*
D12*
X97631250Y-66675000D03*
D11*
X92551250Y-66675000D03*
D10*
X45402500Y-61595000D03*
X39052500Y-64135000D03*
D11*
X37782500Y-66675000D03*
D12*
X42862500Y-66675000D03*
D11*
X47942500Y-66675000D03*
D10*
X12065000Y-4445000D03*
X5715000Y-6985000D03*
D11*
X14605000Y-9525000D03*
X4445000Y-9525000D03*
D12*
X9525000Y-9525000D03*
D10*
X31115000Y-4445000D03*
X24765000Y-6985000D03*
D11*
X23495000Y-9525000D03*
D12*
X28575000Y-9525000D03*
D11*
X33655000Y-9525000D03*
D10*
X50165000Y-4445000D03*
X43815000Y-6985000D03*
D11*
X52705000Y-9525000D03*
X42545000Y-9525000D03*
D12*
X47625000Y-9525000D03*
D10*
X69215000Y-4445000D03*
X62865000Y-6985000D03*
D11*
X71755000Y-9525000D03*
D12*
X66675000Y-9525000D03*
D11*
X61595000Y-9525000D03*
D10*
X88265000Y-4445000D03*
X81915000Y-6985000D03*
D11*
X80645000Y-9525000D03*
X90805000Y-9525000D03*
D12*
X85725000Y-9525000D03*
D10*
X107315000Y-4445000D03*
X100965000Y-6985000D03*
D12*
X104775000Y-9525000D03*
D11*
X109855000Y-9525000D03*
X99695000Y-9525000D03*
D10*
X126365000Y-4445000D03*
X120015000Y-6985000D03*
D12*
X123825000Y-9525000D03*
D11*
X128905000Y-9525000D03*
X118745000Y-9525000D03*
D10*
X145415000Y-4445000D03*
X139065000Y-6985000D03*
D11*
X147955000Y-9525000D03*
X137795000Y-9525000D03*
D12*
X142875000Y-9525000D03*
D10*
X164465000Y-4445000D03*
X158115000Y-6985000D03*
D11*
X167005000Y-9525000D03*
X156845000Y-9525000D03*
D12*
X161925000Y-9525000D03*
D10*
X183515000Y-4445000D03*
X177165000Y-6985000D03*
D11*
X186055000Y-9525000D03*
X175895000Y-9525000D03*
D12*
X180975000Y-9525000D03*
D10*
X202565000Y-4445000D03*
X196215000Y-6985000D03*
D12*
X200025000Y-9525000D03*
D11*
X205105000Y-9525000D03*
X194945000Y-9525000D03*
D10*
X221615000Y-4445000D03*
X215265000Y-6985000D03*
D11*
X213995000Y-9525000D03*
X224155000Y-9525000D03*
D12*
X219075000Y-9525000D03*
D10*
X240665000Y-4445000D03*
X234315000Y-6985000D03*
D11*
X243205000Y-9525000D03*
D12*
X238125000Y-9525000D03*
D11*
X233045000Y-9525000D03*
D10*
X35877500Y-23495000D03*
X29527500Y-26035000D03*
D11*
X28257500Y-28575000D03*
D12*
X33337500Y-28575000D03*
D11*
X38417500Y-28575000D03*
D10*
X54927500Y-23495000D03*
X48577500Y-26035000D03*
D12*
X52387500Y-28575000D03*
D11*
X57467500Y-28575000D03*
X47307500Y-28575000D03*
D10*
X73977500Y-23495000D03*
X67627500Y-26035000D03*
D12*
X71437500Y-28575000D03*
D11*
X66357500Y-28575000D03*
X76517500Y-28575000D03*
D10*
X93027500Y-23495000D03*
X86677500Y-26035000D03*
D11*
X95567500Y-28575000D03*
X85407500Y-28575000D03*
D12*
X90487500Y-28575000D03*
D10*
X112077500Y-23495000D03*
X105727500Y-26035000D03*
D11*
X104457500Y-28575000D03*
X114617500Y-28575000D03*
D12*
X109537500Y-28575000D03*
D10*
X131127500Y-23495000D03*
X124777500Y-26035000D03*
D11*
X123507500Y-28575000D03*
D12*
X128587500Y-28575000D03*
D11*
X133667500Y-28575000D03*
D10*
X169227500Y-23495000D03*
X162877500Y-26035000D03*
D12*
X166687500Y-28575000D03*
D11*
X171767500Y-28575000D03*
X161607500Y-28575000D03*
D10*
X188277500Y-23495000D03*
X181927500Y-26035000D03*
D12*
X185737500Y-28575000D03*
D11*
X190817500Y-28575000D03*
X180657500Y-28575000D03*
D10*
X207327500Y-23495000D03*
X200977500Y-26035000D03*
D12*
X204787500Y-28575000D03*
D11*
X199707500Y-28575000D03*
X209867500Y-28575000D03*
D10*
X45402500Y-42545000D03*
X39052500Y-45085000D03*
D12*
X42862500Y-47625000D03*
D11*
X47942500Y-47625000D03*
X37782500Y-47625000D03*
D10*
X64452500Y-42545000D03*
X58102500Y-45085000D03*
D11*
X56832500Y-47625000D03*
X66992500Y-47625000D03*
D12*
X61912500Y-47625000D03*
D10*
X83502500Y-42545000D03*
X77152500Y-45085000D03*
D12*
X80962500Y-47625000D03*
D11*
X86042500Y-47625000D03*
X75882500Y-47625000D03*
D10*
X102552500Y-42545000D03*
X96202500Y-45085000D03*
D11*
X94932500Y-47625000D03*
D12*
X100012500Y-47625000D03*
D11*
X105092500Y-47625000D03*
D10*
X121602500Y-42545000D03*
X115252500Y-45085000D03*
D12*
X119062500Y-47625000D03*
D11*
X113982500Y-47625000D03*
X124142500Y-47625000D03*
D10*
X140652500Y-42545000D03*
X134302500Y-45085000D03*
D11*
X143192500Y-47625000D03*
D12*
X138112500Y-47625000D03*
D11*
X133032500Y-47625000D03*
D10*
X159702500Y-42545000D03*
X153352500Y-45085000D03*
D12*
X157162500Y-47625000D03*
D11*
X162242500Y-47625000D03*
X152082500Y-47625000D03*
D10*
X178752500Y-42545000D03*
X172402500Y-45085000D03*
D12*
X176212500Y-47625000D03*
D11*
X181292500Y-47625000D03*
X171132500Y-47625000D03*
D10*
X197802500Y-42545000D03*
X191452500Y-45085000D03*
D12*
X195262500Y-47625000D03*
D11*
X190182500Y-47625000D03*
X200342500Y-47625000D03*
D10*
X240665000Y-42545000D03*
X234315000Y-45085000D03*
D11*
X233045000Y-47625000D03*
X243205000Y-47625000D03*
D12*
X238125000Y-47625000D03*
D10*
X35877500Y-61595000D03*
X29527500Y-64135000D03*
D11*
X28257500Y-66675000D03*
X38417500Y-66675000D03*
D12*
X33337500Y-66675000D03*
D10*
X54927500Y-61595000D03*
X48577500Y-64135000D03*
D12*
X52387500Y-66675000D03*
D11*
X47307500Y-66675000D03*
X57467500Y-66675000D03*
D10*
X73977500Y-61595000D03*
X67627500Y-64135000D03*
D11*
X76517500Y-66675000D03*
D12*
X71437500Y-66675000D03*
D11*
X66357500Y-66675000D03*
D10*
X178752500Y-61595000D03*
X172402500Y-64135000D03*
D12*
X176212500Y-66675000D03*
D11*
X181292500Y-66675000D03*
X171132500Y-66675000D03*
D10*
X197802500Y-61595000D03*
X191452500Y-64135000D03*
D11*
X200342500Y-66675000D03*
D12*
X195262500Y-66675000D03*
D11*
X190182500Y-66675000D03*
D10*
X216852500Y-61595000D03*
X210502500Y-64135000D03*
D12*
X214312500Y-66675000D03*
D11*
X209232500Y-66675000D03*
X219392500Y-66675000D03*
D10*
X216852500Y-42545000D03*
X210502500Y-45085000D03*
D12*
X214312500Y-47625000D03*
D11*
X219392500Y-47625000D03*
X209232500Y-47625000D03*
D10*
X202565000Y-61595000D03*
X196215000Y-64135000D03*
D12*
X200025000Y-66675000D03*
D11*
X194945000Y-66675000D03*
X205105000Y-66675000D03*
D10*
X221615000Y-61595000D03*
X215265000Y-64135000D03*
D11*
X213995000Y-66675000D03*
X224155000Y-66675000D03*
D12*
X219075000Y-66675000D03*
D10*
X240665000Y-61595000D03*
X234315000Y-64135000D03*
D11*
X243205000Y-66675000D03*
X233045000Y-66675000D03*
D12*
X238125000Y-66675000D03*
D14*
X223925000Y-57575000D03*
X23475000Y-57575000D03*
D10*
X59690048Y-61595056D03*
X53340048Y-64135056D03*
D11*
X62230048Y-66675056D03*
X52070048Y-66675056D03*
D12*
X57150048Y-66675056D03*
D10*
X78740064Y-61595056D03*
X72390064Y-64135056D03*
D12*
X76200064Y-66675056D03*
D11*
X81280064Y-66675056D03*
X71120064Y-66675056D03*
D10*
X104933836Y-61595056D03*
X98583836Y-64135056D03*
D11*
X97313836Y-66675056D03*
D12*
X102393836Y-66675056D03*
D11*
X107473836Y-66675056D03*
D10*
X169227640Y-61595056D03*
X162877640Y-64135056D03*
D11*
X171767640Y-66675056D03*
D12*
X166687640Y-66675056D03*
D11*
X161607640Y-66675056D03*
D10*
X190658908Y-61595056D03*
X184308908Y-64135056D03*
D11*
X183038908Y-66675056D03*
D12*
X188118908Y-66675056D03*
D11*
X193198908Y-66675056D03*
D10*
X214471428Y-61595056D03*
X208121428Y-64135056D03*
D12*
X211931428Y-66675056D03*
D11*
X217011428Y-66675056D03*
X206851428Y-66675056D03*
D10*
X140652616Y-61595056D03*
X134302616Y-64135056D03*
D11*
X143192616Y-66675056D03*
D12*
X138112616Y-66675056D03*
D11*
X133032616Y-66675056D03*
D10*
X19208750Y-42545000D03*
X12858750Y-45085000D03*
D11*
X21748750Y-47625000D03*
X11588750Y-47625000D03*
D12*
X16668750Y-47625000D03*
D14*
X23625000Y-19475000D03*
X128225000Y-38575000D03*
X215025000Y-19475000D03*
D15*
X86915690Y-65675048D03*
D16*
X86915690Y-67675048D03*
D17*
X19050008Y-17667195D03*
X19050008Y-19242195D03*
D18*
X152995433Y-69065674D03*
X152995433Y-66665674D03*
X150018868Y-69065674D03*
X150018868Y-66665674D03*
X110132897Y-69065674D03*
X110132897Y-66665674D03*
X158948563Y-69065674D03*
X158948563Y-66665674D03*
X83939125Y-69065674D03*
X83939125Y-66665674D03*
X155971998Y-69065674D03*
X155971998Y-66665674D03*
X116086027Y-69065674D03*
X116086027Y-66665674D03*
X164901693Y-50025032D03*
X164901693Y-47625032D03*
X25598451Y-69065674D03*
X25598451Y-66665674D03*
X22026573Y-69065674D03*
X22026573Y-66665674D03*
X145851677Y-50025032D03*
X145851677Y-47625032D03*
X203001725Y-50015658D03*
X203001725Y-47615658D03*
X206573603Y-50015658D03*
X206573603Y-47615658D03*
X187523587Y-50015658D03*
X187523587Y-47615658D03*
X183951709Y-50025032D03*
X183951709Y-47625032D03*
X126801661Y-50025032D03*
X126801661Y-47625032D03*
X88701629Y-50025032D03*
X88701629Y-47625032D03*
X69651613Y-50025032D03*
X69651613Y-47625032D03*
X74414117Y-11915626D03*
X74414117Y-9515626D03*
X223242367Y-30965642D03*
X223242367Y-28565642D03*
X193476717Y-30965642D03*
X193476717Y-28565642D03*
X36314085Y-11915626D03*
X36314085Y-9515626D03*
X174426701Y-30965642D03*
X174426701Y-28565642D03*
X207764229Y-11915626D03*
X207764229Y-9515626D03*
X155376685Y-30965642D03*
X155376685Y-28565642D03*
X136326669Y-30965642D03*
X136326669Y-28565642D03*
X150614181Y-11915626D03*
X150614181Y-9515626D03*
X93464133Y-11915626D03*
X93464133Y-9515626D03*
X60126605Y-30965642D03*
X60126605Y-28565642D03*
X41076589Y-30965642D03*
X41076589Y-28565642D03*
X131564165Y-11915626D03*
X131564165Y-9515626D03*
X98226637Y-30965642D03*
X98226637Y-28565642D03*
X229790810Y-11915626D03*
X229790810Y-9515626D03*
X79176621Y-30965642D03*
X79176621Y-28565642D03*
X169664197Y-11915626D03*
X169664197Y-9515626D03*
X55364101Y-11915626D03*
X55364101Y-9515626D03*
X89892255Y-69065674D03*
X89892255Y-66665674D03*
X188714213Y-11915626D03*
X188714213Y-9515626D03*
X212526733Y-30965642D03*
X212526733Y-28565642D03*
X117276653Y-30965642D03*
X117276653Y-28565642D03*
X19645321Y-30965642D03*
X19645321Y-28565642D03*
X112514149Y-11915626D03*
X112514149Y-9515626D03*
X226814245Y-11915626D03*
X226814245Y-9515626D03*
X107751645Y-50025032D03*
X107751645Y-47625032D03*
X24407825Y-50015658D03*
X24407825Y-47615658D03*
X50601597Y-50025032D03*
X50601597Y-47625032D03*
D19*
X5873748Y-40640024D03*
D20*
X8413748Y-40640024D03*
X5873748Y-38100024D03*
X8413748Y-38100024D03*
X5873748Y-35560024D03*
X8413748Y-35560024D03*
D18*
X39885963Y-11915626D03*
X39885963Y-9515626D03*
D21*
X22218760Y-35718772D03*
X20643760Y-35718772D03*
X30764081Y-32742207D03*
X32339081Y-32742207D03*
D17*
X17264069Y-17667195D03*
X17264069Y-19242195D03*
D21*
X38503150Y-39290650D03*
X40078150Y-39290650D03*
D17*
X25598451Y-28171890D03*
X25598451Y-26596890D03*
D21*
X22218760Y-39290650D03*
X20643760Y-39290650D03*
X22218760Y-37504711D03*
X20643760Y-37504711D03*
D22*
X17375000Y-6875000D03*
X18025000Y-6875000D03*
X18675000Y-6875000D03*
X19325000Y-6875000D03*
X19975000Y-6875000D03*
D23*
X21100000Y-6875000D03*
D24*
X22275000Y-4075000D03*
D23*
X16250000Y-6875000D03*
D24*
X15075000Y-4075000D03*
D25*
X18100008Y-11946878D03*
X19050008Y-11946878D03*
X20000008Y-11946878D03*
X20000008Y-14246878D03*
X19050008Y-14246878D03*
X18100008Y-14246878D03*
D21*
X22218760Y-33932833D03*
X20643760Y-33932833D03*
D26*
X240625192Y-17025000D03*
D27*
X235625192Y-17025000D03*
X238125192Y-17025000D03*
D28*
X232525192Y-9525000D03*
X243725192Y-9525000D03*
D27*
X235625192Y-2525000D03*
X240625192Y-2525000D03*
D29*
X26184390Y-32146894D03*
X28584390Y-32146894D03*
X27384390Y-32146894D03*
D30*
X26965642Y-36231276D03*
X27765642Y-36231276D03*
X28565642Y-36231276D03*
X29365642Y-36231276D03*
X30165642Y-36231276D03*
X30965642Y-36231276D03*
X31765642Y-36231276D03*
X32565642Y-36231276D03*
D31*
X34015642Y-37681276D03*
X34015642Y-38481276D03*
X34015642Y-39281276D03*
X34015642Y-40081276D03*
X34015642Y-40881276D03*
X34015642Y-41681276D03*
X34015642Y-42481276D03*
X34015642Y-43281276D03*
D30*
X32565642Y-44731276D03*
X31765642Y-44731276D03*
X30965642Y-44731276D03*
X30165642Y-44731276D03*
X29365642Y-44731276D03*
X28565642Y-44731276D03*
X27765642Y-44731276D03*
X26965642Y-44731276D03*
D31*
X25515642Y-43281276D03*
X25515642Y-42481276D03*
X25515642Y-41681276D03*
X25515642Y-40881276D03*
X25515642Y-40081276D03*
X25515642Y-39281276D03*
X25515642Y-38481276D03*
X25515642Y-37681276D03*
D17*
X15478112Y-19242172D03*
X15478112Y-17667172D03*
M02*
