M48
; DRILL file {KiCad (5.99.0-8436-gbd786b578a)} date 02/24/21 19:01:34
; FORMAT={-:-/ absolute / inch / decimal}
; #@! TF.CreationDate,2021-02-24T19:01:34+01:00
; #@! TF.GenerationSoftware,Kicad,Pcbnew,(5.99.0-8436-gbd786b578a)
; #@! TF.FileFunction,Plated,1,2,PTH
FMAT,2
INCH
T1C0.0157
T2C0.0197
T3C0.0276
T4C0.0315
T5C0.0335
T6C0.0394
T7C0.0590
T8C0.0591
T9C0.0787
%
G90
G05
T1
X0.2812Y-1.2422
X0.4688Y-1.3816
X0.5062Y-1.6031
X0.5391Y-1.3748
X0.5391Y-1.4063
X0.5391Y-1.4377
X0.5391Y-1.4692
X0.5391Y-1.5007
X0.6563Y-1.3359
X0.6797Y-1.5469
X0.7438Y-0.4281
X0.7734Y-1.5234
X0.8021Y-0.9557
X0.8438Y-1.2188
X0.8438Y-1.372
X0.8494Y-1.5016
X0.8887Y-1.5956
X0.9129Y-1.2668
X0.9371Y-2.7191
X0.9375Y-1.2422
X0.9375Y-2.7656
X0.9711Y-1.188
X0.9727Y-1.7461
X1.0078Y-1.0078
X1.0078Y-1.1484
X1.0078Y-1.7344
X1.0078Y-1.3594
X1.0313Y-1.9688
X1.0535Y-1.5469
X1.0781Y-1.5703
X1.0919Y-1.995
X1.1153Y-1.5017
X1.125Y-1.5938
X1.125Y-1.9934
X1.125Y-1.3594
X1.1484Y-1.5
X1.173Y-1.2176
X1.1892Y-1.3594
X1.2188Y-1.2422
X1.2422Y-1.7099
X1.2554Y-1.3665
X1.289Y-1.6956
X1.2891Y-1.6641
X1.3125Y-1.3113
X1.3125Y-1.3828
X1.3125Y-1.9688
X1.3594Y-0.4688
X1.3594Y-1.2656
X1.4125Y-2.1156
X1.5Y-0.4937
X1.5234Y-1.2656
X1.5703Y-1.5
X1.6625Y-2.0875
X2.2875Y-2.0766
X3.0Y-2.0625
X3.2344Y-2.7656
X3.8102Y-0.5055
X4.1406Y-1.4219
X4.9125Y-1.3922
X5.6625Y-1.3688
X6.4125Y-1.3734
X7.1625Y-1.3453
X7.2894Y-1.9941
X7.3209Y-1.9941
X7.6406Y-0.6563
X7.6738Y-0.6579
X7.9125Y-1.3266
X8.7562Y-1.3219
X9.0Y-0.5156
X9.1937Y-1.2828
T3
X0.6398Y-0.2707
X0.8307Y-0.2707
T4
X3.4219Y-2.5856
X3.4219Y-2.6644
T5
X0.2312Y-1.4
X0.2312Y-1.5
X0.2312Y-1.6
X0.3312Y-1.4
X0.3312Y-1.5
X0.3312Y-1.6
T6
X9.2766Y-0.0994
X9.2766Y-0.6703
X9.375Y-0.6703
X9.4734Y-0.0994
X9.4734Y-0.6703
T7
X0.225Y-0.275
X0.3187Y-1.025
X0.3188Y-2.525
X0.4125Y-2.525
X0.475Y-0.175
X0.5062Y-1.775
X0.5687Y-0.925
X0.5688Y-2.425
X0.6625Y-2.425
X0.7562Y-1.675
X0.975Y-0.275
X1.1625Y-1.025
X1.1625Y-2.525
X1.225Y-0.175
X1.2563Y-2.525
X1.4125Y-0.925
X1.4125Y-2.425
X1.5063Y-2.425
X1.5375Y-1.775
X1.5375Y-2.525
X1.725Y-0.275
X1.7875Y-1.675
X1.7875Y-2.425
X1.9125Y-1.025
X1.9125Y-2.525
X1.975Y-0.175
X2.1Y-2.525
X2.1625Y-0.925
X2.1625Y-2.425
X2.1938Y-2.525
X2.2875Y-1.775
X2.35Y-2.425
X2.4438Y-2.425
X2.475Y-0.275
X2.5375Y-1.675
X2.6625Y-1.025
X2.6625Y-2.525
X2.725Y-0.175
X2.85Y-2.525
X2.9125Y-0.925
X2.9125Y-2.425
X3.0375Y-1.775
X3.1Y-2.425
X3.225Y-0.275
X3.2875Y-1.675
X3.4125Y-1.025
X3.475Y-0.175
X3.6625Y-0.925
X3.6938Y-2.525
X3.7875Y-1.775
X3.8813Y-2.525
X3.9438Y-2.425
X3.975Y-0.275
X4.0375Y-1.675
X4.1313Y-2.425
X4.1625Y-1.025
X4.225Y-0.175
X4.4125Y-0.925
X4.5375Y-1.775
X4.725Y-0.275
X4.725Y-2.525
X4.7875Y-1.675
X4.9125Y-1.025
X4.975Y-0.175
X4.975Y-2.425
X5.0062Y-2.525
X5.1625Y-0.925
X5.2562Y-2.425
X5.2875Y-1.775
X5.2875Y-2.525
X5.3812Y-2.525
X5.475Y-0.275
X5.5375Y-1.675
X5.5375Y-2.425
X5.6312Y-2.425
X5.6625Y-1.025
X5.725Y-0.175
X5.9125Y-0.925
X6.0375Y-1.775
X6.225Y-0.275
X6.2875Y-1.675
X6.4125Y-1.025
X6.4125Y-2.525
X6.475Y-0.175
X6.6625Y-0.925
X6.6625Y-2.425
X6.7875Y-1.775
X6.7875Y-2.525
X6.975Y-0.275
X7.0375Y-1.675
X7.0375Y-2.425
X7.1625Y-1.025
X7.225Y-0.175
X7.2563Y-2.525
X7.4125Y-0.925
X7.5063Y-2.425
X7.5375Y-1.775
X7.5375Y-2.525
X7.725Y-0.275
X7.725Y-2.525
X7.7875Y-1.675
X7.7875Y-2.425
X7.9125Y-1.025
X7.9125Y-2.525
X7.975Y-0.175
X7.975Y-2.425
X8.1625Y-0.925
X8.1625Y-2.425
X8.1938Y-2.525
X8.2875Y-1.775
X8.2875Y-2.525
X8.3812Y-1.775
X8.4438Y-2.425
X8.475Y-0.275
X8.475Y-2.525
X8.5375Y-1.675
X8.5375Y-2.425
X8.6312Y-1.675
X8.725Y-0.175
X8.725Y-2.425
X8.7562Y-1.775
X8.9437Y-1.025
X9.0062Y-1.675
X9.0375Y-2.525
X9.1312Y-1.775
X9.1312Y-2.525
X9.1937Y-0.925
X9.225Y-0.275
X9.225Y-1.775
X9.225Y-2.525
X9.2875Y-2.425
X9.3812Y-1.675
X9.3812Y-2.425
X9.475Y-0.175
X9.475Y-1.675
X9.475Y-2.425
T9
X1.497Y-0.1978
T2
G00X0.5935Y-0.1762
M15
G01X0.5935Y-0.1447
M16
G05
G00X0.877Y-0.1762
M15
G01X0.877Y-0.1447
M16
G05
T8
G00X9.1545Y-0.4006
M15
G01X9.1545Y-0.3494
M16
G05
G00X9.5955Y-0.4006
M15
G01X9.5955Y-0.3494
M16
G05
T0
M30
