M48
; DRILL file {KiCad (5.99.0-8436-gbd786b578a)} date 02/24/21 19:01:34
; FORMAT={-:-/ absolute / inch / decimal}
; #@! TF.CreationDate,2021-02-24T19:01:34+01:00
; #@! TF.GenerationSoftware,Kicad,Pcbnew,(5.99.0-8436-gbd786b578a)
; #@! TF.FileFunction,NonPlated,1,2,NPTH
FMAT,2
INCH
T1C0.0670
T2C0.1570
T3C0.1969
%
G90
G05
T1
X0.175Y-0.375
X0.2687Y-1.125
X0.2688Y-2.625
X0.3625Y-2.625
X0.4562Y-1.875
X0.575Y-0.375
X0.6687Y-1.125
X0.6688Y-2.625
X0.7625Y-2.625
X0.8562Y-1.875
X0.925Y-0.375
X1.1125Y-1.125
X1.1125Y-2.625
X1.2063Y-2.625
X1.325Y-0.375
X1.4875Y-1.875
X1.4875Y-2.625
X1.5125Y-1.125
X1.5125Y-2.625
X1.6063Y-2.625
X1.675Y-0.375
X1.8625Y-1.125
X1.8625Y-2.625
X1.8875Y-1.875
X1.8875Y-2.625
X2.05Y-2.625
X2.075Y-0.375
X2.1437Y-2.625
X2.2375Y-1.875
X2.2625Y-1.125
X2.2625Y-2.625
X2.425Y-0.375
X2.45Y-2.625
X2.5437Y-2.625
X2.6125Y-1.125
X2.6125Y-2.625
X2.6375Y-1.875
X2.8Y-2.625
X2.825Y-0.375
X2.9875Y-1.875
X3.0125Y-1.125
X3.0125Y-2.625
X3.175Y-0.375
X3.2Y-2.625
X3.3625Y-1.125
X3.3875Y-1.875
X3.575Y-0.375
X3.6437Y-2.625
X3.7375Y-1.875
X3.7625Y-1.125
X3.8313Y-2.625
X3.925Y-0.375
X4.0438Y-2.625
X4.1125Y-1.125
X4.1375Y-1.875
X4.2313Y-2.625
X4.325Y-0.375
X4.4875Y-1.875
X4.5125Y-1.125
X4.675Y-0.375
X4.675Y-2.625
X4.8625Y-1.125
X4.8875Y-1.875
X4.9562Y-2.625
X5.075Y-0.375
X5.075Y-2.625
X5.2375Y-1.875
X5.2375Y-2.625
X5.2625Y-1.125
X5.3312Y-2.625
X5.3563Y-2.625
X5.425Y-0.375
X5.6125Y-1.125
X5.6375Y-1.875
X5.6375Y-2.625
X5.7313Y-2.625
X5.825Y-0.375
X5.9875Y-1.875
X6.0125Y-1.125
X6.175Y-0.375
X6.3625Y-1.125
X6.3625Y-2.625
X6.3875Y-1.875
X6.575Y-0.375
X6.7375Y-1.875
X6.7375Y-2.625
X6.7625Y-1.125
X6.7625Y-2.625
X6.925Y-0.375
X7.1125Y-1.125
X7.1375Y-1.875
X7.1375Y-2.625
X7.2063Y-2.625
X7.325Y-0.375
X7.4875Y-1.875
X7.4875Y-2.625
X7.5125Y-1.125
X7.6063Y-2.625
X7.675Y-0.375
X7.675Y-2.625
X7.8625Y-1.125
X7.8625Y-2.625
X7.8875Y-1.875
X7.8875Y-2.625
X8.075Y-0.375
X8.075Y-2.625
X8.1438Y-2.625
X8.2375Y-1.875
X8.2375Y-2.625
X8.2625Y-1.125
X8.2625Y-2.625
X8.3312Y-1.875
X8.425Y-0.375
X8.425Y-2.625
X8.5438Y-2.625
X8.6375Y-1.875
X8.6375Y-2.625
X8.7062Y-1.875
X8.7312Y-1.875
X8.825Y-0.375
X8.825Y-2.625
X8.8937Y-1.125
X8.9875Y-2.625
X9.0812Y-1.875
X9.0812Y-2.625
X9.1062Y-1.875
X9.175Y-0.375
X9.175Y-1.875
X9.175Y-2.625
X9.2937Y-1.125
X9.3875Y-2.625
X9.4812Y-1.875
X9.4812Y-2.625
X9.575Y-0.375
X9.575Y-1.875
X9.575Y-2.625
T2
X0.375Y-0.375
X0.4688Y-1.125
X0.4688Y-2.625
X0.5625Y-2.625
X0.6562Y-1.875
X1.125Y-0.375
X1.3125Y-1.125
X1.3125Y-2.625
X1.4063Y-2.625
X1.6875Y-1.875
X1.6875Y-2.625
X1.875Y-0.375
X2.0625Y-1.125
X2.0625Y-2.625
X2.25Y-2.625
X2.3438Y-2.625
X2.4375Y-1.875
X2.625Y-0.375
X2.8125Y-1.125
X2.8125Y-2.625
X3.0Y-2.625
X3.1875Y-1.875
X3.375Y-0.375
X3.5625Y-1.125
X3.8438Y-2.625
X3.9375Y-1.875
X4.0313Y-2.625
X4.125Y-0.375
X4.3125Y-1.125
X4.6875Y-1.875
X4.875Y-0.375
X4.875Y-2.625
X5.0625Y-1.125
X5.1562Y-2.625
X5.4375Y-1.875
X5.4375Y-2.625
X5.5312Y-2.625
X5.625Y-0.375
X5.8125Y-1.125
X6.1875Y-1.875
X6.375Y-0.375
X6.5625Y-1.125
X6.5625Y-2.625
X6.9375Y-1.875
X6.9375Y-2.625
X7.125Y-0.375
X7.3125Y-1.125
X7.4063Y-2.625
X7.6875Y-1.875
X7.6875Y-2.625
X7.875Y-0.375
X7.875Y-2.625
X8.0625Y-1.125
X8.0625Y-2.625
X8.3438Y-2.625
X8.4375Y-1.875
X8.4375Y-2.625
X8.5312Y-1.875
X8.625Y-0.375
X8.625Y-2.625
X8.9062Y-1.875
X9.0938Y-1.125
X9.1875Y-2.625
X9.2812Y-1.875
X9.2812Y-2.625
X9.375Y-0.375
X9.375Y-1.875
X9.375Y-2.625
T3
X0.9242Y-2.2667
X0.9301Y-0.7667
X5.0482Y-1.5187
X8.4656Y-0.7667
X8.8159Y-2.2667
T0
M30
